{"accessors":[{"bufferView":0,"componentType":5123,"count":3624,"max":[1333],"min":[0],"type":"SCALAR"},{"bufferView":1,"componentType":5126,"count":1334,"max":[0.3499999940395355,0.0,0.3499999940395355],"min":[-0.3499999940395355,-0.4000000059604645,-0.3499999940395355],"type":"VEC3"},{"bufferView":2,"componentType":5126,"count":1334,"max":[1.0,1.0,1.0],"min":[-1.0,-1.0,-1.0],"type":"VEC3"},{"bufferView":3,"componentType":5126,"count":1334,"max":[1.0,0.7071136832237244,0.7071070075035095,1.0],"min":[-0.7277806997299194,-0.7071064710617065,-1.0,-1.0],"type":"VEC4"},{"bufferView":4,"componentType":5126,"count":1334,"max":[1.0,1.0],"min":[0.010005732998251915,1.0],"type":"VEC2"},{"bufferView":5,"componentType":5126,"count":1334,"max":[0.6772361397743225,0.673691987991333],"min":[0.3272361159324646,0.3236919641494751],"type":"VEC2"},{"bufferView":6,"componentType":5123,"count":3624,"max":[1333],"min":[0],"type":"SCALAR"},{"bufferView":7,"componentType":5126,"count":1334,"max":[0.3499999940395355,0.0,0.3499999940395355],"min":[-0.3499999940395355,-0.4000000059604645,-0.3499999940395355],"type":"VEC3"},{"bufferView":8,"componentType":5126,"count":1334,"max":[1.0,1.0,1.0],"min":[-1.0,-1.0,-1.0],"type":"VEC3"},{"bufferView":9,"componentType":5126,"count":1334,"max":[1.0,0.7071136832237244,0.7071070075035095,1.0],"min":[-0.7277806997299194,-0.7071064710617065,-1.0,-1.0],"type":"VEC4"},{"bufferView":10,"componentType":5126,"count":1334,"max":[1.0,1.0],"min":[0.010005732998251915,1.0],"type":"VEC2"},{"bufferView":11,"componentType":5126,"count":1334,"max":[0.854472279548645,0.847383975982666],"min":[0.1544722616672516,0.14738398790359497],"type":"VEC2"},{"bufferView":12,"componentType":5123,"count":3624,"max":[1333],"min":[0],"type":"SCALAR"},{"bufferView":13,"componentType":5126,"count":1334,"max":[0.3499999940395355,0.0,0.3499999940395355],"min":[-0.3499999940395355,-0.4000000059604645,-0.3499999940395355],"type":"VEC3"},{"bufferView":14,"componentType":5126,"count":1334,"max":[1.0,1.0,1.0],"min":[-1.0,-1.0,-1.0],"type":"VEC3"},{"bufferView":15,"componentType":5126,"count":1334,"max":[1.0,0.7071136832237244,0.7071070075035095,1.0],"min":[-0.7277806997299194,-0.7071065306663513,-1.0,-1.0],"type":"VEC4"},{"bufferView":16,"componentType":5126,"count":1334,"max":[1.0,1.0],"min":[0.010005732998251915,1.0],"type":"VEC2"},{"bufferView":17,"componentType":5126,"count":1334,"max":[0.7215451598167419,0.7171149849891663],"min":[0.28404515981674194,0.27961498498916626],"type":"VEC2"},{"bufferView":18,"componentType":5123,"count":3624,"max":[1331],"min":[0],"type":"SCALAR"},{"bufferView":19,"componentType":5126,"count":1332,"max":[0.3499999940395355,0.0,0.3499999940395355],"min":[-0.3499999940395355,-0.4000000059604645,-0.3499999940395355],"type":"VEC3"},{"bufferView":20,"componentType":5126,"count":1332,"max":[1.0,1.0,1.0],"min":[-1.0,-1.0,-1.0],"type":"VEC3"},{"bufferView":21,"componentType":5126,"count":1332,"max":[1.0,1.0],"min":[0.010005732998251915,1.0],"type":"VEC2"},{"bufferView":22,"componentType":5126,"count":1332,"max":[0.6772361397743225,0.673691987991333],"min":[0.3272361159324646,0.3236919641494751],"type":"VEC2"}],"asset":{"generator":"Verge3D for Blender","version":"2.0"},"bufferViews":[{"buffer":0,"byteLength":7248,"byteOffset":0,"target":34963},{"buffer":0,"byteLength":16008,"byteOffset":7248,"target":34962},{"buffer":0,"byteLength":16008,"byteOffset":23256,"target":34962},{"buffer":0,"byteLength":21344,"byteOffset":39264,"target":34962},{"buffer":0,"byteLength":10672,"byteOffset":60608,"target":34962},{"buffer":0,"byteLength":10672,"byteOffset":71280,"target":34962},{"buffer":0,"byteLength":7248,"byteOffset":81952,"target":34963},{"buffer":0,"byteLength":16008,"byteOffset":89200,"target":34962},{"buffer":0,"byteLength":16008,"byteOffset":105208,"target":34962},{"buffer":0,"byteLength":21344,"byteOffset":121216,"target":34962},{"buffer":0,"byteLength":10672,"byteOffset":142560,"target":34962},{"buffer":0,"byteLength":10672,"byteOffset":153232,"target":34962},{"buffer":0,"byteLength":7248,"byteOffset":163904,"target":34963},{"buffer":0,"byteLength":16008,"byteOffset":171152,"target":34962},{"buffer":0,"byteLength":16008,"byteOffset":187160,"target":34962},{"buffer":0,"byteLength":21344,"byteOffset":203168,"target":34962},{"buffer":0,"byteLength":10672,"byteOffset":224512,"target":34962},{"buffer":0,"byteLength":10672,"byteOffset":235184,"target":34962},{"buffer":0,"byteLength":7248,"byteOffset":245856,"target":34963},{"buffer":0,"byteLength":15984,"byteOffset":253104,"target":34962},{"buffer":0,"byteLength":15984,"byteOffset":269088,"target":34962},{"buffer":0,"byteLength":10656,"byteOffset":285072,"target":34962},{"buffer":0,"byteLength":10656,"byteOffset":295728,"target":34962}],"buffers":[{"byteLength":306384,"uri":"myCadTest1.bin"}],"cameras":[{"extensions":{"S8S_v3d_camera":{"controls":"ORBIT","enablePan":true,"moveSpeed":1.0,"orbitMaxDistance":100.0,"orbitMaxPolarAngle":3.1415927410125732,"orbitMaxZoom":100.0,"orbitMinDistance":0.0,"orbitMinPolarAngle":0.0,"orbitMinZoom":0.009999999776482582,"orbitTarget":[0.0,0.0,-0.0],"rotateSpeed":1.0,"viewportFitInitialAspect":1.7777777777777777,"viewportFitType":"AUTO"}},"name":"Camera","perspective":{"aspectRatio":1.7777777777777777,"yfov":0.39959652046304894,"zfar":100.0,"znear":0.10000000149011612},"type":"perspective"}],"extensions":{"S8S_v3d_lights":{"lights":[{"color":[1.0,1.0,1.0],"intensity":1.0,"name":"Point","profile":"blender","shadow":{"bias":-0.0018,"cameraFar":100,"cameraFov":0,"cameraNear":0.1,"csm":{"maxDistance":200.0},"enabled":true,"expBias":2.5,"mapSize":1024,"radius":1.0,"slopeScaledBias":2.5},"type":"directional"},{"color":[1.0,1.0,1.0],"intensity":1.0,"name":"Point.001","profile":"blender","shadow":{"bias":-0.0018,"cameraFar":100,"cameraFov":0,"cameraNear":0.1,"csm":{"maxDistance":200.0},"enabled":true,"expBias":2.5,"mapSize":1024,"radius":1.0,"slopeScaledBias":2.5},"type":"directional"},{"color":[1.0,1.0,1.0],"intensity":1.0,"name":"Point.002","profile":"blender","shadow":{"bias":-0.0018,"cameraFar":100,"cameraFov":0,"cameraNear":0.1,"csm":{"maxDistance":200.0},"enabled":true,"expBias":2.5,"mapSize":1024,"radius":1.0,"slopeScaledBias":2.5},"type":"directional"}]}},"extensionsUsed":["S8S_v3d_texture","S8S_v3d_materials","S8S_v3d_camera","S8S_v3d_lights","S8S_v3d_mesh","S8S_v3d_node","S8S_v3d_scene"],"images":[{"uri":"Blue_Tile_Base.jpg"},{"uri":"Blue_Tile_Roughness.jpg"},{"uri":"Blue_Tile_Normal.jpg"},{"uri":"_Roughness_.jpg"},{"uri":"_Height_.jpg"},{"uri":"_Diffuse_.jpg"},{"uri":"_Normal_.jpg"},{"uri":"Wood_Planks_Base.jpg"},{"uri":"Wood_Planks_Roughness.jpg"},{"uri":"Wood_Planks_Normal.jpg"}],"materials":[{"extensions":{"S8S_v3d_materials":{"gtaoVisible":true,"materialIndex":0,"nodeGraph":{"edges":[{"fromNode":1,"fromOutput":0,"toInput":0,"toNode":0},{"fromNode":2,"fromOutput":0,"toInput":0,"toNode":1},{"fromNode":3,"fromOutput":0,"toInput":2,"toNode":1},{"fromNode":4,"fromOutput":0,"toInput":1,"toNode":5},{"fromNode":5,"fromOutput":0,"toInput":5,"toNode":1},{"fromNode":7,"fromOutput":0,"toInput":0,"toNode":2},{"fromNode":7,"fromOutput":0,"toInput":0,"toNode":3},{"fromNode":7,"fromOutput":0,"toInput":0,"toNode":4},{"fromNode":6,"fromOutput":0,"toInput":0,"toNode":7},{"fromNode":8,"fromOutput":2,"toInput":0,"toNode":6}],"nodes":[{"inputs":[[0,0,0,0],[0,0,0,0],[0.0,0.0,0.0],0.0],"is_active_output":true,"name":"Material Output","outputs":[],"type":"OUTPUT_MATERIAL_BL"},{"inputs":[[0.800000011920929,0.800000011920929,0.800000011920929,1.0],0.0,0.5,1.4500000476837158,1.0,[0.0,0.0,0.0],0.0,[1.0,0.20000000298023224,0.10000000149011612],0.05000000074505806,1.399999976158142,0.0,0.5,[1.0,1.0,1.0,1.0],0.0,0.0,[0.0,0.0,0.0],0.0,0.0,0.029999999329447746,1.5,[1.0,1.0,1.0,1.0],[0.0,0.0,0.0],0.0,0.5,[1.0,1.0,1.0,1.0],[0.0,0.0,0.0,1.0],1.0],"is_active_output":false,"name":"Principled BSDF","outputs":[[0,0,0,0]],"type":"BSDF_PRINCIPLED_BL"},{"alphaMode":"STRAIGHT","inputs":[[0.0,0.0,0.0]],"is_active_output":false,"name":"Image Texture","outputs":[[0.0,0.0,0.0,0.0],0.0],"projection":"FLAT","projectionBlend":0.0,"texture":0,"type":"TEX_IMAGE_BL"},{"alphaMode":"STRAIGHT","inputs":[[0.0,0.0,0.0]],"is_active_output":false,"name":"Image Texture.001","outputs":[[0.0,0.0,0.0,0.0],0.0],"projection":"FLAT","projectionBlend":0.0,"texture":1,"type":"TEX_IMAGE_BL"},{"alphaMode":"STRAIGHT","inputs":[[0.0,0.0,0.0]],"is_active_output":false,"name":"Image Texture.002","outputs":[[0.0,0.0,0.0,0.0],0.0],"projection":"FLAT","projectionBlend":0.0,"texture":2,"type":"TEX_IMAGE_BL"},{"inputs":[0.20000004768371582,[0.5,0.5,1.0,1.0]],"is_active_output":false,"name":"Normal Map","outputs":[[0.0,0.0,0.0]],"type":"NORMAL_MAP_BL","uvLayer":""},{"inputs":[[0.0,0.0,0.0],[0.0,0.0,0.0],[0.0,0.0,0.0],[1.0,1.0,1.0]],"is_active_output":false,"name":"Mapping","outputs":[[0.0,0.0,0.0]],"type":"MAPPING_BL","vectorType":"POINT"},{"inputs":[[0.0,0.0,0.0]],"is_active_output":false,"name":"Reroute","outputs":[[0.0,0.0,0.0]],"type":"REROUTE_BL"},{"inputs":[],"is_active_output":false,"name":"Texture Coordinate","object":-1,"outputs":[[0.0,0.0,0.0],[0.0,0.0,0.0],[0.0,0.0,0.0],[0.0,0.0,0.0],[0.0,0.0,0.0],[0.0,0.0,0.0],[0.0,0.0,0.0]],"type":"TEX_COORD_BL"},{"inputs":[],"is_active_output":false,"name":"Frame","outputs":[],"type":"FRAME_BL"},{"inputs":[],"is_active_output":false,"name":"Frame.001","outputs":[],"type":"FRAME_BL"}]},"useCastShadows":true}},"name":"Blue tile"},{"extensions":{"S8S_v3d_materials":{"gtaoVisible":true,"materialIndex":0,"nodeGraph":{"edges":[{"fromNode":1,"fromOutput":0,"toInput":0,"toNode":0}],"nodes":[{"inputs":[[0,0,0,0],[0,0,0,0],[0.0,0.0,0.0],0.0],"is_active_output":true,"name":"Material Output","outputs":[],"type":"OUTPUT_MATERIAL_BL"},{"inputs":[[0.800000011920929,0.800000011920929,0.800000011920929,1.0],0.0,0.5,1.4500000476837158,1.0,[0.0,0.0,0.0],0.0,[1.0,0.20000000298023224,0.10000000149011612],0.05000000074505806,1.399999976158142,0.0,0.5,[1.0,1.0,1.0,1.0],0.0,0.0,[0.0,0.0,0.0],0.0,0.0,0.029999999329447746,1.5,[1.0,1.0,1.0,1.0],[0.0,0.0,0.0],0.0,0.5,[1.0,1.0,1.0,1.0],[0.0,0.0,0.0,1.0],1.0],"is_active_output":false,"name":"Principled BSDF","outputs":[[0,0,0,0]],"type":"BSDF_PRINCIPLED_BL"}]},"useCastShadows":true}},"name":"Material"},{"extensions":{"S8S_v3d_materials":{"gtaoVisible":true,"materialIndex":0,"nodeGraph":{"edges":[{"fromNode":4,"fromOutput":0,"toInput":0,"toNode":0},{"fromNode":5,"fromOutput":0,"toInput":2,"toNode":4},{"fromNode":8,"fromOutput":0,"toInput":1,"toNode":1},{"fromNode":1,"fromOutput":0,"toInput":5,"toNode":4},{"fromNode":6,"fromOutput":0,"toInput":0,"toNode":2},{"fromNode":2,"fromOutput":0,"toInput":2,"toNode":0},{"fromNode":3,"fromOutput":2,"toInput":3,"toNode":9},{"fromNode":9,"fromOutput":0,"toInput":0,"toNode":7},{"fromNode":9,"fromOutput":0,"toInput":0,"toNode":5},{"fromNode":9,"fromOutput":0,"toInput":0,"toNode":8},{"fromNode":9,"fromOutput":0,"toInput":0,"toNode":6},{"fromNode":7,"fromOutput":0,"toInput":0,"toNode":4}],"nodes":[{"inputs":[[0,0,0,0],[0,0,0,0],[0.0,0.0,0.0],0.0],"is_active_output":true,"name":"材质输出","outputs":[],"type":"OUTPUT_MATERIAL_BL"},{"inputs":[1.0,[0.5,0.5,1.0,1.0]],"is_active_output":false,"name":"法线贴图","outputs":[[0.0,0.0,0.0]],"type":"NORMAL_MAP_BL","uvLayer":""},{"inputs":[0.0,0.0,0.05000000074505806,[0.0,0.0,0.0]],"is_active_output":false,"name":"置换","outputs":[[0.0,0.0,0.0]],"type":"DISPLACEMENT_BL"},{"inputs":[],"is_active_output":false,"name":"纹理坐标","object":-1,"outputs":[[0.0,0.0,0.0],[0.0,0.0,0.0],[0.0,0.0,0.0],[0.0,0.0,0.0],[0.0,0.0,0.0],[0.0,0.0,0.0],[0.0,0.0,0.0]],"type":"TEX_COORD_BL"},{"inputs":[[0.800000011920929,0.800000011920929,0.800000011920929,1.0],0.0,0.5,1.4500000476837158,1.0,[0.0,0.0,0.0],0.0,[1.0,0.20000000298023224,0.10000000149011612],0.05000000074505806,1.399999976158142,0.0,0.0,[1.0,1.0,1.0,1.0],0.0,0.0,[0.0,0.0,0.0],0.0,0.0,0.029999999329447746,1.5,[1.0,1.0,1.0,1.0],[0.0,0.0,0.0],0.0,0.5,[1.0,1.0,1.0,1.0],[0.0,0.0,0.0,1.0],1.0],"is_active_output":false,"name":"原理化BSDF","outputs":[[0,0,0,0]],"type":"BSDF_PRINCIPLED_BL"},{"alphaMode":"STRAIGHT","inputs":[[0.0,0.0,0.0]],"is_active_output":false,"name":"图像纹理.003","outputs":[[0.0,0.0,0.0,0.0],0.0],"projection":"FLAT","projectionBlend":0.0,"texture":3,"type":"TEX_IMAGE_BL"},{"alphaMode":"STRAIGHT","inputs":[[0.0,0.0,0.0]],"is_active_output":false,"name":"图像纹理.001","outputs":[[0.0,0.0,0.0,0.0],0.0],"projection":"FLAT","projectionBlend":0.0,"texture":4,"type":"TEX_IMAGE_BL"},{"alphaMode":"STRAIGHT","inputs":[[0.0,0.0,0.0]],"is_active_output":false,"name":"图像纹理","outputs":[[0.0,0.0,0.0,0.0],0.0],"projection":"FLAT","projectionBlend":0.0,"texture":5,"type":"TEX_IMAGE_BL"},{"alphaMode":"STRAIGHT","inputs":[[0.0,0.0,0.0]],"is_active_output":false,"name":"图像纹理.002","outputs":[[0.0,0.0,0.0,0.0],0.0],"projection":"FLAT","projectionBlend":0.0,"texture":6,"type":"TEX_IMAGE_BL"},{"inputs":[[1.0,1.0,1.0],[0.0,0.0,0.0],[0.0,0.0,0.0],[1.0,1.0,1.0]],"is_active_output":false,"name":"映射","outputs":[[0.0,0.0,0.0]],"type":"MAPPING_BL","vectorType":"POINT"}]},"useCastShadows":true}},"name":"Rotten Wood"},{"extensions":{"S8S_v3d_materials":{"gtaoVisible":true,"materialIndex":0,"nodeGraph":{"edges":[{"fromNode":10,"fromOutput":0,"toInput":0,"toNode":2},{"fromNode":3,"fromOutput":0,"toInput":0,"toNode":10},{"fromNode":4,"fromOutput":0,"toInput":2,"toNode":10},{"fromNode":5,"fromOutput":0,"toInput":1,"toNode":6},{"fromNode":6,"fromOutput":0,"toInput":5,"toNode":10},{"fromNode":8,"fromOutput":0,"toInput":0,"toNode":3},{"fromNode":8,"fromOutput":0,"toInput":0,"toNode":4},{"fromNode":8,"fromOutput":0,"toInput":0,"toNode":5},{"fromNode":7,"fromOutput":0,"toInput":0,"toNode":8},{"fromNode":9,"fromOutput":2,"toInput":0,"toNode":7}],"nodes":[{"inputs":[],"is_active_output":false,"name":"Frame","outputs":[],"type":"FRAME_BL"},{"inputs":[],"is_active_output":false,"name":"Frame.001","outputs":[],"type":"FRAME_BL"},{"inputs":[[0,0,0,0],[0,0,0,0],[0.0,0.0,0.0],0.0],"is_active_output":true,"name":"Material Output","outputs":[],"type":"OUTPUT_MATERIAL_BL"},{"alphaMode":"STRAIGHT","inputs":[[0.0,0.0,0.0]],"is_active_output":false,"name":"Image Texture","outputs":[[0.0,0.0,0.0,0.0],0.0],"projection":"FLAT","projectionBlend":0.0,"texture":7,"type":"TEX_IMAGE_BL"},{"alphaMode":"STRAIGHT","inputs":[[0.0,0.0,0.0]],"is_active_output":false,"name":"Image Texture.001","outputs":[[0.0,0.0,0.0,0.0],0.0],"projection":"FLAT","projectionBlend":0.0,"texture":8,"type":"TEX_IMAGE_BL"},{"alphaMode":"STRAIGHT","inputs":[[0.0,0.0,0.0]],"is_active_output":false,"name":"Image Texture.002","outputs":[[0.0,0.0,0.0,0.0],0.0],"projection":"FLAT","projectionBlend":0.0,"texture":9,"type":"TEX_IMAGE_BL"},{"inputs":[1.0,[0.5,0.5,1.0,1.0]],"is_active_output":false,"name":"Normal Map","outputs":[[0.0,0.0,0.0]],"type":"NORMAL_MAP_BL","uvLayer":""},{"inputs":[[0.0,0.0,0.0],[0.0,0.0,0.0],[0.0,0.0,0.0],[1.0,1.0,1.0]],"is_active_output":false,"name":"Mapping","outputs":[[0.0,0.0,0.0]],"type":"MAPPING_BL","vectorType":"POINT"},{"inputs":[[0.0,0.0,0.0]],"is_active_output":false,"name":"Reroute","outputs":[[0.0,0.0,0.0]],"type":"REROUTE_BL"},{"inputs":[],"is_active_output":false,"name":"Texture Coordinate","object":-1,"outputs":[[0.0,0.0,0.0],[0.0,0.0,0.0],[0.0,0.0,0.0],[0.0,0.0,0.0],[0.0,0.0,0.0],[0.0,0.0,0.0],[0.0,0.0,0.0]],"type":"TEX_COORD_BL"},{"inputs":[[0.800000011920929,0.800000011920929,0.800000011920929,1.0],0.0,0.5,1.4500000476837158,1.0,[0.0,0.0,0.0],0.0,[1.0,0.20000000298023224,0.10000000149011612],0.05000000074505806,1.399999976158142,0.0,0.5,[1.0,1.0,1.0,1.0],0.0,0.0,[0.0,0.0,0.0],0.0,0.0,0.029999999329447746,1.5,[1.0,1.0,1.0,1.0],[0.0,0.0,0.0],0.0,0.5,[1.0,1.0,1.0,1.0],[0.0,0.0,0.0,1.0],1.0],"is_active_output":false,"name":"Principled BSDF","outputs":[[0,0,0,0]],"type":"BSDF_PRINCIPLED_BL"}]},"useCastShadows":true}},"name":"Wooden Planks"},{"extensions":{"S8S_v3d_materials":{"gtaoVisible":true,"materialIndex":0,"nodeGraph":{"edges":[{"fromNode":1,"fromOutput":0,"toInput":0,"toNode":0}],"nodes":[{"inputs":[[0,0,0,0],[0,0,0,0]],"is_active_output":true,"name":"World Output","outputs":[],"type":"OUTPUT_WORLD_BL"},{"inputs":[[0.05087608844041824,0.05087608844041824,0.05087608844041824,1.0],1.0],"is_active_output":false,"name":"Background","outputs":[[0,0,0,0]],"type":"BACKGROUND_BL"}]},"useCastShadows":true}},"name":"Verge3D_Environment_World"}],"meshes":[{"extensions":{"S8S_v3d_mesh":{"colorLayers":{},"uvLayers":{"UVMap":"TEXCOORD_1","automap":"TEXCOORD_0"}}},"name":"Sketch.002","primitives":[{"attributes":{"NORMAL":2,"POSITION":1,"TANGENT":3,"TEXCOORD_0":5,"TEXCOORD_1":4},"indices":0,"material":3,"mode":4}]},{"extensions":{"S8S_v3d_mesh":{"colorLayers":{},"uvLayers":{"UVMap":"TEXCOORD_1","automap":"TEXCOORD_0"}}},"name":"Sketch.003","primitives":[{"attributes":{"NORMAL":8,"POSITION":7,"TANGENT":9,"TEXCOORD_0":11,"TEXCOORD_1":10},"indices":6,"material":0,"mode":4}]},{"extensions":{"S8S_v3d_mesh":{"colorLayers":{},"uvLayers":{"UVMap":"TEXCOORD_1","automap":"TEXCOORD_0"}}},"name":"Sketch.004","primitives":[{"attributes":{"NORMAL":14,"POSITION":13,"TANGENT":15,"TEXCOORD_0":17,"TEXCOORD_1":16},"indices":12,"material":2,"mode":4}]},{"extensions":{"S8S_v3d_mesh":{"colorLayers":{},"uvLayers":{"UVMap":"TEXCOORD_1","automap":"TEXCOORD_0"}}},"name":"Sketch.005","primitives":[{"attributes":{"NORMAL":20,"POSITION":19,"TEXCOORD_0":22,"TEXCOORD_1":21},"indices":18,"material":1,"mode":4}]}],"nodes":[{"extensions":{"S8S_v3d_node":{"frustumCulling":true,"groupNames":[],"hidden":false,"hidpiCompositing":false,"objectColor":[1.0,1.0,1.0,1.0],"objectIndex":0,"renderOrder":0,"useShadows":true}},"mesh":0,"name":"Sketch"},{"extensions":{"S8S_v3d_node":{"frustumCulling":true,"groupNames":[],"hidden":false,"hidpiCompositing":false,"objectColor":[1.0,1.0,1.0,1.0],"objectIndex":0,"renderOrder":0,"useShadows":true}},"mesh":3,"name":"Sketch.004","translation":[0.0,0.0,0.8847109079360962]},{"extensions":{"S8S_v3d_node":{"frustumCulling":true,"groupNames":[],"hidden":false,"hidpiCompositing":false,"objectColor":[1.0,1.0,1.0,1.0],"objectIndex":0,"renderOrder":0,"useShadows":true}},"mesh":1,"name":"Sketch.002","translation":[-0.8000000715255737,0.0,-0.0]},{"extensions":{"S8S_v3d_node":{"frustumCulling":true,"groupNames":[],"hidden":false,"hidpiCompositing":false,"objectColor":[1.0,1.0,1.0,1.0],"objectIndex":0,"renderOrder":0,"useShadows":true}},"mesh":2,"name":"Sketch.003","translation":[0.800000011920929,0.0,-0.0]},{"camera":0,"extensions":{"S8S_v3d_node":{"frustumCulling":true,"groupNames":["Collection"],"hidden":false,"hidpiCompositing":false,"objectColor":[0.0,0.0,0.0,0.0],"objectIndex":0,"renderOrder":0}},"name":"Camera","rotation":[-0.20997299253940582,0.3857799470424652,0.09062844514846802,0.8937962055206299],"scale":[1.0,0.9999998807907104,0.9999998807907104],"translation":[7.358891487121582,4.958309173583984,6.925790786743164]},{"extensions":{"S8S_v3d_lights":{"light":0},"S8S_v3d_node":{"frustumCulling":true,"groupNames":["Collection"],"hidden":false,"hidpiCompositing":false,"objectColor":[1.0,1.0,1.0,1.0],"objectIndex":0,"renderOrder":0}},"name":"Point","rotation":[-0.7071067690849304,0.0,0.0,0.7071067690849304],"scale":[1.0,0.9999999403953552,0.9999999403953552],"translation":[-0.23803496360778809,3.8767502307891846,-0.8761383295059204]},{"extensions":{"S8S_v3d_lights":{"light":1},"S8S_v3d_node":{"frustumCulling":true,"groupNames":["Collection"],"hidden":false,"hidpiCompositing":false,"objectColor":[1.0,1.0,1.0,1.0],"objectIndex":0,"renderOrder":0}},"name":"Point.001","rotation":[-3.0908619663705394e-08,-0.7071067690849304,0.7071067690849304,3.0908619663705394e-08],"scale":[1.0,0.9999999403953552,0.9999999403953552],"translation":[-0.23803496360778809,-9.874140739440918,-0.8761383295059204]},{"extensions":{"S8S_v3d_lights":{"light":2},"S8S_v3d_node":{"frustumCulling":true,"groupNames":["Collection"],"hidden":false,"hidpiCompositing":false,"objectColor":[1.0,1.0,1.0,1.0],"objectIndex":0,"renderOrder":0}},"name":"Point.002","rotation":[-4.049775981229686e-08,1.7114270889351246e-08,1.0,1.6292068494294654e-07],"scale":[0.9999999403953552,0.9999998807907104,0.9999998807907104],"translation":[-0.23803496360778809,-0.23906326293945312,7.173813343048096]}],"samplers":[{}],"scene":0,"scenes":[{"extensions":{"S8S_v3d_scene":{"aaMethod":"AUTO","iblEnvironmentMode":"PMREM","physicallyCorrectLights":true,"pmremMaxTileSize":512,"shadowMap":{"esmDistanceScale":1.0,"renderReverseSided":false,"renderSingleSided":true,"type":"PCFPOISSON"},"toneMapping":{"type":"filmicBlender"},"worldMaterial":4}},"extras":{"animFrameRate":24,"coordSystem":"Z_UP_RIGHT"},"name":"Scene","nodes":[0,2,3,1,4,5,6,7]}],"textures":[{"extensions":{"S8S_v3d_texture":{"colorSpace":"srgb"}},"name":"Blue_Tile_Base.jpg","sampler":0,"source":0},{"extensions":{"S8S_v3d_texture":{"colorSpace":"non-color"}},"name":"Blue_Tile_Roughness.jpg","sampler":0,"source":1},{"extensions":{"S8S_v3d_texture":{"colorSpace":"non-color"}},"name":"Blue_Tile_Normal.jpg","sampler":0,"source":2},{"extensions":{"S8S_v3d_texture":{"colorSpace":"non-color"}},"name":"_Roughness_.jpg","sampler":0,"source":3},{"extensions":{"S8S_v3d_texture":{"colorSpace":"non-color"}},"name":"_Height_.jpg","sampler":0,"source":4},{"extensions":{"S8S_v3d_texture":{"colorSpace":"srgb"}},"name":"_Diffuse_.jpg","sampler":0,"source":5},{"extensions":{"S8S_v3d_texture":{"colorSpace":"non-color"}},"name":"_Normal_.jpg","sampler":0,"source":6},{"extensions":{"S8S_v3d_texture":{"colorSpace":"srgb"}},"name":"Wood_Planks_Base.jpg","sampler":0,"source":7},{"extensions":{"S8S_v3d_texture":{"colorSpace":"non-color"}},"name":"Wood_Planks_Roughness.jpg","sampler":0,"source":8},{"extensions":{"S8S_v3d_texture":{"colorSpace":"non-color"}},"name":"Wood_Planks_Normal.jpg","sampler":0,"source":9}]}
