{"accessors":[{"bufferView":0,"componentType":5123,"count":4032,"max":[1215],"min":[0],"type":"SCALAR"},{"bufferView":1,"componentType":5126,"count":1216,"max":[6.34864616394043,1.0,6.294715881347656],"min":[-6.308265686035156,-9.644205093383789,-6.296252727508545],"type":"VEC3"},{"bufferView":2,"componentType":5126,"count":1216,"max":[0.995857298374176,1.0,0.9951847791671753],"min":[-0.995855987071991,-1.0,-0.9951847791671753],"type":"VEC3"},{"bufferView":3,"componentType":5126,"count":1216,"max":[1.0,1.4813731468166225e-05,0.9951847195625305,1.0],"min":[-0.9951847195625305,-1.4813731468166225e-05,-0.9951847195625305,-1.0],"type":"VEC4"},{"bufferView":4,"componentType":5126,"count":1216,"max":[1.0,1.0],"min":[0.0,0.0],"type":"VEC2"},{"bufferView":5,"componentType":5126,"count":1216,"max":[1.0000004768371582,1.0],"min":[-0.02769683673977852,0.0],"type":"VEC2"},{"bufferView":6,"componentType":5123,"count":8460,"max":[2097],"min":[0],"type":"SCALAR"},{"bufferView":7,"componentType":5126,"count":2098,"max":[6.505427360534668,-1.8773956298828125,6.450682640075684],"min":[-6.465048789978027,-12.459449768066406,-6.452218055725098],"type":"VEC3"},{"bufferView":8,"componentType":5126,"count":2098,"max":[0.9999978542327881,1.0,0.9999996423721313],"min":[-0.9999986290931702,-1.0,-0.9999997615814209],"type":"VEC3"},{"bufferView":9,"componentType":5126,"count":2098,"max":[1.0,0.0,-0.0,-1.0],"min":[1.0,0.0,-0.0,-1.0],"type":"VEC4"},{"bufferView":10,"componentType":5126,"count":2098,"max":[0.0,1.0],"min":[0.0,1.0],"type":"VEC2"},{"bufferView":11,"componentType":5126,"count":2098,"max":[1.0000004768371582,1.0],"min":[0.0,0.0],"type":"VEC2"},{"bufferView":12,"componentType":5123,"count":5256,"max":[1385],"min":[0],"type":"SCALAR"},{"bufferView":13,"componentType":5126,"count":1386,"max":[0.04171858727931976,0.03815785050392151,0.005543604493141174],"min":[-0.040847256779670715,-0.0802454799413681,-0.1397179514169693],"type":"VEC3"},{"bufferView":14,"componentType":5126,"count":1386,"max":[0.9916788935661316,0.9997600317001343,0.999997615814209],"min":[-0.9886631965637207,-0.9499863982200623,-0.9999996423721313],"type":"VEC3"},{"bufferView":15,"componentType":5126,"count":1386,"max":[1.0,1.0,0.9999000430107117,1.0],"min":[-0.9999995827674866,-1.0,-0.9518026113510132,-1.0],"type":"VEC4"},{"bufferView":16,"componentType":5126,"count":1386,"max":[1.5455496311187744,1.0],"min":[0.0,0.0],"type":"VEC2"},{"bufferView":17,"componentType":5123,"count":4230,"max":[942],"min":[0],"type":"SCALAR"},{"bufferView":18,"componentType":5126,"count":943,"max":[0.18254080414772034,0.11942768096923828,0.1812913566827774],"min":[-0.18256443738937378,2.0623207092285156e-05,-0.18191170692443848],"type":"VEC3"},{"bufferView":19,"componentType":5126,"count":943,"max":[0.9999967813491821,1.0,0.9947868585586548],"min":[-0.9999967813491821,-1.0,-0.9947867393493652],"type":"VEC3"},{"bufferView":20,"componentType":5126,"count":943,"max":[1.7220748662948608,1.7153801918029785],"min":[-0.7220748662948608,-0.7153801918029785],"type":"VEC2"},{"bufferView":21,"componentType":5123,"count":1350,"max":[290],"min":[0],"type":"SCALAR"},{"bufferView":22,"componentType":5126,"count":291,"max":[0.17516615986824036,0.1172783374786377,0.17395512759685516],"min":[-0.17518983781337738,0.011600375175476074,-0.17457552254199982],"type":"VEC3"},{"bufferView":23,"componentType":5126,"count":291,"max":[0.9999967813491821,1.0,0.9947867393493652],"min":[-0.9999967813491821,0.0,-0.9947868585586548],"type":"VEC3"},{"bufferView":24,"componentType":5126,"count":291,"max":[1.6396286487579346,1.6333858966827393],"min":[-0.6396287679672241,-0.6333858966827393],"type":"VEC2"},{"bufferView":25,"componentType":5126,"count":75,"max":[4.166666507720947],"min":[0.0],"type":"SCALAR"},{"bufferView":26,"componentType":5126,"count":75,"max":[-0.0005883935955353081,0.2777787446975708,-0.0],"min":[-0.0005883935955353081,0.1857684701681137,-0.0],"type":"VEC3"},{"bufferView":27,"componentType":5126,"count":7,"max":[4.166666507720947],"min":[0.0],"type":"SCALAR"},{"bufferView":28,"componentType":5126,"count":7,"max":[0.0,0.0,-0.0,1.0],"min":[0.0,0.0,-0.0,1.0],"type":"VEC4"},{"bufferView":29,"componentType":5126,"count":91,"max":[4.166666507720947],"min":[0.0],"type":"SCALAR"},{"bufferView":30,"componentType":5126,"count":91,"max":[1.8841357865332804e-17,0.27883416414260864,0.004559621214866638],"min":[-0.00010619618115015328,0.1032559871673584,-0.17430837452411652],"type":"VEC3"},{"bufferView":31,"componentType":5126,"count":47,"max":[4.166666507720947],"min":[0.0],"type":"SCALAR"},{"bufferView":32,"componentType":5126,"count":47,"max":[0.3659125864505768,1.708569513932983e-17,-0.0,1.0],"min":[0.0,-6.775847092595982e-18,-9.103312561814712e-17,0.9306492209434509],"type":"VEC4"}],"animations":[{"channels":[{"sampler":0,"target":{"node":0,"path":"translation"}},{"sampler":1,"target":{"node":0,"path":"rotation"}}],"extensions":{"S8S_v3d_animation":{"auto":true,"loop":"REPEAT","offset":0.0,"repeatCount":1.0,"repeatInfinite":true}},"name":"Cylinder.001","samplers":[{"input":25,"interpolation":"LINEAR","output":26},{"input":27,"interpolation":"LINEAR","output":28}]},{"channels":[{"sampler":0,"target":{"node":2,"path":"translation"}},{"sampler":1,"target":{"node":2,"path":"rotation"}}],"extensions":{"S8S_v3d_animation":{"auto":true,"loop":"REPEAT","offset":0.0,"repeatCount":1.0,"repeatInfinite":true}},"name":"zaklepki.001","samplers":[{"input":29,"interpolation":"LINEAR","output":30},{"input":31,"interpolation":"LINEAR","output":32}]}],"asset":{"generator":"Verge3D for Blender","version":"2.0"},"bufferViews":[{"buffer":0,"byteLength":8064,"byteOffset":0,"target":34963},{"buffer":0,"byteLength":14592,"byteOffset":8064,"target":34962},{"buffer":0,"byteLength":14592,"byteOffset":22656,"target":34962},{"buffer":0,"byteLength":19456,"byteOffset":37248,"target":34962},{"buffer":0,"byteLength":9728,"byteOffset":56704,"target":34962},{"buffer":0,"byteLength":9728,"byteOffset":66432,"target":34962},{"buffer":0,"byteLength":16920,"byteOffset":76160,"target":34963},{"buffer":0,"byteLength":25176,"byteOffset":93080,"target":34962},{"buffer":0,"byteLength":25176,"byteOffset":118256,"target":34962},{"buffer":0,"byteLength":33568,"byteOffset":143432,"target":34962},{"buffer":0,"byteLength":16784,"byteOffset":177000,"target":34962},{"buffer":0,"byteLength":16784,"byteOffset":193784,"target":34962},{"buffer":0,"byteLength":10512,"byteOffset":210568,"target":34963},{"buffer":0,"byteLength":16632,"byteOffset":221080,"target":34962},{"buffer":0,"byteLength":16632,"byteOffset":237712,"target":34962},{"buffer":0,"byteLength":22176,"byteOffset":254344,"target":34962},{"buffer":0,"byteLength":11088,"byteOffset":276520,"target":34962},{"buffer":0,"byteLength":8460,"byteOffset":287608,"target":34963},{"buffer":0,"byteLength":11316,"byteOffset":296068,"target":34962},{"buffer":0,"byteLength":11316,"byteOffset":307384,"target":34962},{"buffer":0,"byteLength":7544,"byteOffset":318700,"target":34962},{"buffer":0,"byteLength":2700,"byteOffset":326244,"target":34963},{"buffer":0,"byteLength":3492,"byteOffset":328944,"target":34962},{"buffer":0,"byteLength":3492,"byteOffset":332436,"target":34962},{"buffer":0,"byteLength":2328,"byteOffset":335928,"target":34962},{"buffer":0,"byteLength":300,"byteOffset":338256},{"buffer":0,"byteLength":900,"byteOffset":338556},{"buffer":0,"byteLength":28,"byteOffset":339456},{"buffer":0,"byteLength":112,"byteOffset":339484},{"buffer":0,"byteLength":364,"byteOffset":339596},{"buffer":0,"byteLength":1092,"byteOffset":339960},{"buffer":0,"byteLength":188,"byteOffset":341052},{"buffer":0,"byteLength":752,"byteOffset":341240}],"buffers":[{"byteLength":341992,"uri":"my_nabe_test7.bin"}],"cameras":[{"extensions":{"S8S_v3d_camera":{"controls":"ORBIT","enablePan":true,"moveSpeed":1.0,"orbitMaxDistance":30.0,"orbitMaxPolarAngle":3.1415927410125732,"orbitMaxZoom":100.0,"orbitMinDistance":3.0,"orbitMinPolarAngle":0.0,"orbitMinZoom":0.009999999776482582,"orbitTarget":[0.0,0.0,-0.0],"rotateSpeed":1.0,"viewportFitInitialAspect":1.7777777777777777,"viewportFitType":"AUTO"}},"name":"Camera","perspective":{"aspectRatio":1.7777777777777777,"yfov":0.1850372412763541,"zfar":100.0,"znear":0.10000000149011612},"type":"perspective"}],"extensions":{"S8S_v3d_lights":{"lights":[{"color":[1.0,1.0,1.0],"decay":2,"distance":10.00000011175871,"intensity":100.0,"name":"Lamp","profile":"blender","shadow":{"bias":-0.0018,"cameraFar":10.00000011175871,"cameraFov":0,"cameraNear":1.0007989406585693,"enabled":true,"expBias":2.5,"mapSize":512,"radius":1.0,"slopeScaledBias":2.5},"type":"point"}]}},"extensionsUsed":["S8S_v3d_texture","S8S_v3d_materials","S8S_v3d_camera","S8S_v3d_lights","S8S_v3d_mesh","S8S_v3d_node","S8S_v3d_animation","S8S_v3d_scene"],"images":[{"uri":"environment.hdr"}],"materials":[{"extensions":{"S8S_v3d_materials":{"gtaoVisible":true,"materialIndex":0,"nodeGraph":{"edges":[{"fromNode":0,"fromOutput":0,"toInput":0,"toNode":1}],"nodes":[{"inputs":[[0.15232475101947784,0.15232475101947784,0.15232475101947784,1.0],0.0,[1.0,0.20000000298023224,0.10000000149011612],[0.800000011920929,0.800000011920929,0.800000011920929,1.0],1.399999976158142,0.0,1.0,0.5,0.0,0.5,0.0,0.0,0.0,0.5,0.0,0.029999999329447746,1.4500000476837158,0.0,0.0,[0.0,0.0,0.0,1.0],1.0,1.0,[0.0,0.0,0.0],[0.0,0.0,0.0],[0.0,0.0,0.0]],"is_active_output":false,"name":"Principled BSDF","outputs":[[0,0,0,0]],"type":"BSDF_PRINCIPLED_BL"},{"inputs":[[0,0,0,0],[0,0,0,0],[0.0,0.0,0.0],0.0],"is_active_output":true,"name":"Material Output","outputs":[],"type":"OUTPUT_MATERIAL_BL"}]},"useCastShadows":true}},"name":"Material"},{"extensions":{"S8S_v3d_materials":{"gtaoVisible":true,"materialIndex":0,"nodeGraph":{"edges":[{"fromNode":0,"fromOutput":0,"toInput":0,"toNode":1},{"fromNode":2,"fromOutput":0,"toInput":22,"toNode":0}],"nodes":[{"inputs":[[0.2882961630821228,0.2882961630821228,0.2882961630821228,1.0],0.0,[1.0,0.20000000298023224,0.10000000149011612],[0.800000011920929,0.800000011920929,0.800000011920929,1.0],1.399999976158142,0.0,1.0,0.5,0.0,0.20000000298023224,0.0,0.0,0.0,0.5,0.0,0.029999999329447746,1.4500000476837158,0.0,0.0,[0.0,0.0,0.0,1.0],0.0,1.0,[0.0,0.0,0.0],[0.0,0.0,0.0],[0.0,0.0,0.0]],"is_active_output":false,"name":"Principled BSDF","outputs":[[0,0,0,0]],"type":"BSDF_PRINCIPLED_BL"},{"inputs":[[0,0,0,0],[0,0,0,0],[0.0,0.0,0.0],0.0],"is_active_output":true,"name":"Material Output","outputs":[],"type":"OUTPUT_MATERIAL_BL"},{"inputs":[1.0,[0.5,0.5,1.0,1.0]],"is_active_output":false,"name":"Normal Map","outputs":[[0.0,0.0,0.0]],"type":"NORMAL_MAP_BL","uvLayer":""}]},"useCastShadows":true}},"name":"Material #2100456173"},{"extensions":{"S8S_v3d_materials":{"gtaoVisible":true,"materialIndex":0,"nodeGraph":{"edges":[{"fromNode":0,"fromOutput":0,"toInput":0,"toNode":1},{"fromNode":2,"fromOutput":0,"toInput":22,"toNode":0}],"nodes":[{"inputs":[[0.1725490242242813,0.1725490242242813,0.1725490242242813,1.0],0.0,[1.0,0.20000000298023224,0.10000000149011612],[0.800000011920929,0.800000011920929,0.800000011920929,1.0],1.399999976158142,0.0,0.0,0.5,0.0,0.5527864098548889,0.0,0.0,0.0,0.5,0.0,0.029999999329447746,1.4500000476837158,0.0,0.0,[0.0,0.0,0.0,1.0],0.0,0.07843124866485596,[0.0,0.0,0.0],[0.0,0.0,0.0],[0.0,0.0,0.0]],"is_active_output":false,"name":"Principled BSDF","outputs":[[0,0,0,0]],"type":"BSDF_PRINCIPLED_BL"},{"inputs":[[0,0,0,0],[0,0,0,0],[0.0,0.0,0.0],0.0],"is_active_output":true,"name":"Material Output","outputs":[],"type":"OUTPUT_MATERIAL_BL"},{"inputs":[1.0,[0.5,0.5,1.0,1.0]],"is_active_output":false,"name":"Normal Map","outputs":[[0.0,0.0,0.0]],"type":"NORMAL_MAP_BL","uvLayer":""}]},"useCastShadows":true}},"name":"Material #25"},{"extensions":{"S8S_v3d_materials":{"gtaoVisible":true,"materialIndex":0,"nodeGraph":{"edges":[{"fromNode":0,"fromOutput":0,"toInput":0,"toNode":2}],"nodes":[{"inputs":[[0.5137255191802979,0.0,0.0,1.0],0.0,[1.0,0.20000000298023224,0.10000000149011612],[0.800000011920929,0.800000011920929,0.800000011920929,1.0],1.399999976158142,0.0,0.0,0.5,0.0,0.5527864098548889,0.0,0.0,0.0,0.5,0.0,0.029999999329447746,1.4500000476837158,0.0,0.0,[0.0,0.0,0.0,1.0],0.0,1.0,[0.0,0.0,0.0],[0.0,0.0,0.0],[0.0,0.0,0.0]],"is_active_output":false,"name":"Principled BSDF","outputs":[[0,0,0,0]],"type":"BSDF_PRINCIPLED_BL"},{"inputs":[[0.0,0.0,0.0]],"is_active_output":false,"name":"Image Texture","outputs":[[0.0,0.0,0.0,0.0],0.0],"projection":"FLAT","projectionBlend":0.0,"type":"TEX_IMAGE_NONE_BL"},{"inputs":[[0,0,0,0],[0,0,0,0],[0.0,0.0,0.0],0.0],"is_active_output":true,"name":"Material Output","outputs":[],"type":"OUTPUT_MATERIAL_BL"}]},"useCastShadows":true}},"name":"Material #27"},{"extensions":{"S8S_v3d_materials":{"gtaoVisible":true,"materialIndex":0,"nodeGraph":{"edges":[{"fromNode":0,"fromOutput":0,"toInput":0,"toNode":1},{"fromNode":4,"fromOutput":0,"toInput":6,"toNode":2},{"fromNode":3,"fromOutput":0,"toInput":0,"toNode":2},{"fromNode":2,"fromOutput":2,"toInput":0,"toNode":0}],"nodes":[{"inputs":[[0.05087608844041824,0.05087608844041824,0.05087608844041824,1.0],1.0],"is_active_output":false,"name":"Background","outputs":[[0,0,0,0]],"type":"BACKGROUND_BL"},{"inputs":[[0,0,0,0],[0,0,0,0]],"is_active_output":true,"name":"World Output","outputs":[],"type":"OUTPUT_WORLD_BL"},{"blendType":"MIX","clampFactor":true,"clampResult":false,"dataType":"RGBA","factorMode":"UNIFORM","inputs":[0.5,[0.5,0.5,0.5],0.0,0.0,[0.0,0.0,0.0],[0.0,0.0,0.0],[0.5,0.5,0.5,1.0],[0.05126946419477463,0.05126946419477463,0.05126946419477463,1.0]],"is_active_output":false,"name":"Mix","outputs":[0.0,[0.0,0.0,0.0],[0.0,0.0,0.0,0.0]],"type":"MIX_BL"},{"inputs":[],"is_active_output":false,"name":"Light Path","outputs":[0.0,0.0,0.0,0.0,0.0,0.0,0.0,0.0,0.0,0.0,0.0,0.0,0.0],"type":"LIGHT_PATH_BL"},{"inputs":[[0.0,0.0,0.0]],"is_active_output":false,"name":"Environment Texture","outputs":[[0.0,0.0,0.0,0.0]],"projection":"EQUIRECTANGULAR","texture":0,"type":"TEX_ENVIRONMENT_BL"}]},"useCastShadows":true}},"name":"Verge3D_Environment_World"}],"meshes":[{"extensions":{"S8S_v3d_mesh":{"colorLayers":{},"uvLayers":{"UVChannel_1":"TEXCOORD_1","UVMap":"TEXCOORD_0"}}},"name":"Cylinder.001","primitives":[{"attributes":{"NORMAL":2,"POSITION":1,"TANGENT":3,"TEXCOORD_0":4,"TEXCOORD_1":5},"indices":0,"material":2,"mode":4},{"attributes":{"NORMAL":8,"POSITION":7,"TANGENT":9,"TEXCOORD_0":10,"TEXCOORD_1":11},"indices":6,"material":1,"mode":4}]},{"extensions":{"S8S_v3d_mesh":{"colorLayers":{},"uvLayers":{"UVChannel_1":"TEXCOORD_0"}}},"name":"Mesh.004","primitives":[{"attributes":{"NORMAL":14,"POSITION":13,"TANGENT":15,"TEXCOORD_0":16},"indices":12,"material":1,"mode":4}]},{"extensions":{"S8S_v3d_mesh":{"colorLayers":{},"uvLayers":{"UVChannel_1":"TEXCOORD_0"}}},"name":"Mesh.042","primitives":[{"attributes":{"NORMAL":19,"POSITION":18,"TEXCOORD_0":20},"indices":17,"material":3,"mode":4},{"attributes":{"NORMAL":23,"POSITION":22,"TEXCOORD_0":24},"indices":21,"material":0,"mode":4}]}],"nodes":[{"extensions":{"S8S_v3d_node":{"frustumCulling":true,"groupNames":[],"hidden":false,"hidpiCompositing":false,"objectColor":[1.0,1.0,1.0,1.0],"objectIndex":0,"renderOrder":0,"useShadows":true}},"mesh":0,"name":"Cylinder.001","scale":[0.02853618748486042,0.005707236938178539,0.02853618748486042],"translation":[-0.0005883935955353081,0.1857684701681137,-0.0]},{"camera":0,"extensions":{"S8S_v3d_node":{"frustumCulling":true,"groupNames":["Collection 1"],"hidden":false,"hidpiCompositing":false,"objectColor":[0.0,0.0,0.0,0.0],"objectIndex":0,"renderOrder":0}},"name":"Camera","rotation":[-0.20997299253940582,0.3857799470424652,0.09062844514846802,0.8937962055206299],"scale":[1.0,0.9999998807907104,0.9999998807907104],"translation":[7.226052284240723,5.1113457679748535,6.946681022644043]},{"extensions":{"S8S_v3d_node":{"frustumCulling":true,"groupNames":["Nonstick Pan"],"hidden":false,"hidpiCompositing":false,"objectColor":[0.800000011920929,0.800000011920929,0.800000011920929,1.0],"objectIndex":0,"renderOrder":0,"useShadows":true}},"mesh":1,"name":"zaklepki.001","translation":[1.8841357865332804e-17,0.1032559871673584,-0.17430837452411652]},{"extensions":{"S8S_v3d_node":{"frustumCulling":true,"groupNames":["Nonstick Pan"],"hidden":false,"hidpiCompositing":false,"objectColor":[0.800000011920929,0.800000011920929,0.800000011920929,1.0],"objectIndex":0,"renderOrder":0,"useShadows":true}},"mesh":2,"name":"RDA_140_"},{"extensions":{"S8S_v3d_lights":{"light":0},"S8S_v3d_node":{"frustumCulling":true,"groupNames":["Collection 1"],"hidden":false,"hidpiCompositing":false,"objectColor":[0.0,0.0,0.0,0.0],"objectIndex":0,"renderOrder":0}},"name":"Lamp","rotation":[-0.28416627645492554,0.7269423007965088,0.34203392267227173,0.5232754945755005],"scale":[1.0,0.9999998807907104,0.9999998807907104],"translation":[4.076245307922363,5.903861999511719,-1.0054539442062378]},{"children":[3,2],"extensions":{"S8S_v3d_node":{"frustumCulling":true,"groupNames":["Nonstick Pan"],"hidden":false,"hidpiCompositing":false,"objectColor":[0.800000011920929,0.800000011920929,0.800000011920929,1.0],"objectIndex":0,"renderOrder":0}},"name":"Nonstick Pan"}],"samplers":[{}],"scene":0,"scenes":[{"extensions":{"S8S_v3d_scene":{"aaMethod":"AUTO","iblEnvironmentMode":"PMREM","physicallyCorrectLights":true,"pmremMaxTileSize":256,"shadowMap":{"esmDistanceScale":1.0,"renderReverseSided":false,"renderSingleSided":true,"type":"PCFPOISSON"},"worldMaterial":4}},"extras":{"animFrameRate":24,"coordSystem":"Z_UP_RIGHT"},"name":"Scene","nodes":[0,4,1,5]}],"textures":[{"extensions":{"S8S_v3d_texture":{"colorSpace":"linear","source":0}},"name":"environment.hdr","sampler":0}]}
