{"accessors":[{"bufferView":0,"componentType":5123,"count":4680,"max":[4657],"min":[0],"type":"SCALAR"},{"bufferView":1,"componentType":5126,"count":4658,"max":[66.45299530029297,0.0,58.62177658081055],"min":[-66.45299530029297,-10.0,-58.62177658081055],"type":"VEC3"},{"bufferView":2,"componentType":5126,"count":4658,"max":[1.0,1.0,1.0],"min":[-1.0,-1.0,-1.0],"type":"VEC3"},{"bufferView":3,"componentType":5126,"count":4658,"max":[5.845298767089844,3.748893976211548],"min":[-4.383975028991699,-0.9634950160980225],"type":"VEC2"},{"bufferView":4,"componentType":5123,"count":8028,"max":[7851],"min":[0],"type":"SCALAR"},{"bufferView":5,"componentType":5126,"count":7852,"max":[68.45299530029297,0.0,60.62177658081055],"min":[-68.45299530029297,-70.0,-60.62177658081055],"type":"VEC3"},{"bufferView":6,"componentType":5126,"count":7852,"max":[1.0,1.0,1.0],"min":[-1.0,-1.0,-1.0],"type":"VEC3"},{"bufferView":7,"componentType":5126,"count":7852,"max":[6.82529878616333,7.042178153991699],"min":[-6.82529878616333,-5.042178153991699],"type":"VEC2"},{"bufferView":8,"componentType":5123,"count":7548,"max":[7177],"min":[0],"type":"SCALAR"},{"bufferView":9,"componentType":5126,"count":7178,"max":[68.45299530029297,3.0,60.62177658081055],"min":[-68.45299530029297,-10.0,-60.62177658081055],"type":"VEC3"},{"bufferView":10,"componentType":5126,"count":7178,"max":[1.0,1.0,1.0],"min":[-1.0,-1.0,-1.0],"type":"VEC3"},{"bufferView":11,"componentType":5126,"count":7178,"max":[6.815299034118652,7.032177925109863],"min":[-6.815299034118652,-5.032177925109863],"type":"VEC2"},{"bufferView":12,"componentType":5126,"count":42,"max":[4.166666507720947],"min":[0.0],"type":"SCALAR"},{"bufferView":13,"componentType":5126,"count":42,"max":[0.0,0.5,-0.0],"min":[0.0,0.0,-0.0],"type":"VEC3"},{"bufferView":14,"componentType":5126,"count":8,"max":[4.166666507720947],"min":[0.0],"type":"SCALAR"},{"bufferView":15,"componentType":5126,"count":8,"max":[0.0,0.7071067690849304,-0.0,0.7071068286895752],"min":[0.0,0.7071067690849304,-0.0,0.7071068286895752],"type":"VEC4"},{"bufferView":16,"componentType":5126,"count":42,"max":[4.166666507720947],"min":[0.0],"type":"SCALAR"},{"bufferView":17,"componentType":5126,"count":42,"max":[0.0,0.5,-0.0],"min":[0.0,0.0,-0.0],"type":"VEC3"},{"bufferView":18,"componentType":5126,"count":8,"max":[4.166666507720947],"min":[0.0],"type":"SCALAR"},{"bufferView":19,"componentType":5126,"count":8,"max":[0.0,0.7071067690849304,-0.0,0.7071068286895752],"min":[0.0,0.7071067690849304,-0.0,0.7071068286895752],"type":"VEC4"}],"animations":[{"channels":[{"sampler":0,"target":{"node":1,"path":"translation"}},{"sampler":1,"target":{"node":1,"path":"rotation"}}],"extensions":{"S8S_v3d_animation":{"auto":true,"loop":"REPEAT","offset":0.0,"repeatCount":1.0,"repeatInfinite":true}},"name":"6角500ml パッキン","samplers":[{"input":12,"interpolation":"LINEAR","output":13},{"input":14,"interpolation":"LINEAR","output":15}]},{"channels":[{"sampler":0,"target":{"node":2,"path":"translation"}},{"sampler":1,"target":{"node":2,"path":"rotation"}}],"extensions":{"S8S_v3d_animation":{"auto":true,"loop":"REPEAT","offset":0.0,"repeatCount":1.0,"repeatInfinite":true}},"name":"6角500ml 蓋","samplers":[{"input":16,"interpolation":"LINEAR","output":17},{"input":18,"interpolation":"LINEAR","output":19}]}],"asset":{"generator":"Verge3D for Blender","version":"2.0"},"bufferViews":[{"buffer":0,"byteLength":9360,"byteOffset":0,"target":34963},{"buffer":0,"byteLength":55896,"byteOffset":9360,"target":34962},{"buffer":0,"byteLength":55896,"byteOffset":65256,"target":34962},{"buffer":0,"byteLength":37264,"byteOffset":121152,"target":34962},{"buffer":0,"byteLength":16056,"byteOffset":158416,"target":34963},{"buffer":0,"byteLength":94224,"byteOffset":174472,"target":34962},{"buffer":0,"byteLength":94224,"byteOffset":268696,"target":34962},{"buffer":0,"byteLength":62816,"byteOffset":362920,"target":34962},{"buffer":0,"byteLength":15096,"byteOffset":425736,"target":34963},{"buffer":0,"byteLength":86136,"byteOffset":440832,"target":34962},{"buffer":0,"byteLength":86136,"byteOffset":526968,"target":34962},{"buffer":0,"byteLength":57424,"byteOffset":613104,"target":34962},{"buffer":0,"byteLength":168,"byteOffset":670528},{"buffer":0,"byteLength":504,"byteOffset":670696},{"buffer":0,"byteLength":32,"byteOffset":671200},{"buffer":0,"byteLength":128,"byteOffset":671232},{"buffer":0,"byteLength":168,"byteOffset":671360},{"buffer":0,"byteLength":504,"byteOffset":671528},{"buffer":0,"byteLength":32,"byteOffset":672032},{"buffer":0,"byteLength":128,"byteOffset":672064}],"buffers":[{"byteLength":672192,"uri":"my_6kaku_500ml_01.bin"}],"cameras":[{"extensions":{"S8S_v3d_camera":{"controls":"ORBIT","enablePan":true,"moveSpeed":1.0,"orbitMaxDistance":20.0,"orbitMaxPolarAngle":3.1415927410125732,"orbitMaxZoom":100.0,"orbitMinDistance":3.0,"orbitMinPolarAngle":0.0,"orbitMinZoom":0.009999999776482582,"orbitTarget":[0.0,0.0,-0.0],"rotateSpeed":1.0,"viewportFitInitialAspect":1.7777777777777777,"viewportFitType":"AUTO"}},"name":"Camera","perspective":{"aspectRatio":1.7777777777777777,"yfov":0.5033799372418416,"zfar":100.0,"znear":0.10000000149011612},"type":"perspective"}],"extensions":{"S8S_v3d_lights":{"lights":[{"color":[1.0,1.0,1.0],"decay":2,"distance":10.00000011175871,"intensity":100.0,"name":"Lamp","profile":"blender","shadow":{"bias":-0.0018,"cameraFar":10.00000011175871,"cameraFov":0,"cameraNear":1.0007989406585693,"enabled":true,"expBias":2.5,"mapSize":512,"radius":1.0,"slopeScaledBias":2.5},"type":"point"}]}},"extensionsUsed":["S8S_v3d_texture","S8S_v3d_materials","S8S_v3d_camera","S8S_v3d_lights","S8S_v3d_mesh","S8S_v3d_node","S8S_v3d_animation","S8S_v3d_scene"],"images":[{"uri":"environment.hdr"}],"materials":[{"extensions":{"S8S_v3d_materials":{"gtaoVisible":true,"materialIndex":0,"nodeGraph":{"edges":[{"fromNode":0,"fromOutput":0,"toInput":0,"toNode":1}],"nodes":[{"inputs":[[1.0,0.669230043888092,0.0019509772537276149,1.0],0.0,[1.0,0.20000000298023224,0.10000000149011612],[0.800000011920929,0.800000011920929,0.800000011920929,1.0],1.399999976158142,0.0,0.0,0.0,0.0,1.0,0.0,0.0,0.0,0.5,0.0,0.029999999329447746,1.4500000476837158,0.0,0.0,[0.0,0.0,0.0,1.0],1.0,1.0,[0.0,0.0,0.0],[0.0,0.0,0.0],[0.0,0.0,0.0]],"is_active_output":false,"name":"Principled BSDF","outputs":[[0,0,0,0]],"type":"BSDF_PRINCIPLED_BL"},{"inputs":[[0,0,0,0],[0,0,0,0],[0.0,0.0,0.0],0.0],"is_active_output":true,"name":"Material Output","outputs":[],"type":"OUTPUT_MATERIAL_BL"}]},"useCastShadows":true}},"name":"Bamboo_Light_-_Semigloss"},{"extensions":{"S8S_v3d_materials":{"gtaoVisible":true,"materialIndex":0,"nodeGraph":{"edges":[{"fromNode":0,"fromOutput":0,"toInput":0,"toNode":1}],"nodes":[{"inputs":[[0.800000011920929,0.800000011920929,0.800000011920929,1.0],0.0,[1.0,0.20000000298023224,0.10000000149011612],[0.800000011920929,0.800000011920929,0.800000011920929,1.0],1.399999976158142,0.0,0.0,0.0,0.0,1.0,0.0,0.0,0.0,0.5,0.0,0.029999999329447746,1.4500000476837158,0.0,0.0,[0.0,0.0,0.0,1.0],1.0,1.0,[0.0,0.0,0.0],[0.0,0.0,0.0],[0.0,0.0,0.0]],"is_active_output":false,"name":"Principled BSDF","outputs":[[0,0,0,0]],"type":"BSDF_PRINCIPLED_BL"},{"inputs":[[0,0,0,0],[0,0,0,0],[0.0,0.0,0.0],0.0],"is_active_output":true,"name":"Material Output","outputs":[],"type":"OUTPUT_MATERIAL_BL"}]},"useCastShadows":true}},"name":"Plastic_-_Translucent_Glossy_(White)"},{"extensions":{"S8S_v3d_materials":{"gtaoVisible":true,"materialIndex":0,"nodeGraph":{"edges":[{"fromNode":0,"fromOutput":0,"toInput":0,"toNode":1},{"fromNode":4,"fromOutput":0,"toInput":6,"toNode":2},{"fromNode":3,"fromOutput":0,"toInput":0,"toNode":2},{"fromNode":2,"fromOutput":2,"toInput":0,"toNode":0}],"nodes":[{"inputs":[[0.05087608844041824,0.05087608844041824,0.05087608844041824,1.0],1.0],"is_active_output":false,"name":"Background","outputs":[[0,0,0,0]],"type":"BACKGROUND_BL"},{"inputs":[[0,0,0,0],[0,0,0,0]],"is_active_output":true,"name":"World Output","outputs":[],"type":"OUTPUT_WORLD_BL"},{"blendType":"MIX","clampFactor":true,"clampResult":false,"dataType":"RGBA","factorMode":"UNIFORM","inputs":[0.5,[0.5,0.5,0.5],0.0,0.0,[0.0,0.0,0.0],[0.0,0.0,0.0],[0.5,0.5,0.5,1.0],[0.05126946419477463,0.05126946419477463,0.05126946419477463,1.0]],"is_active_output":false,"name":"Mix","outputs":[0.0,[0.0,0.0,0.0],[0.0,0.0,0.0,0.0]],"type":"MIX_BL"},{"inputs":[],"is_active_output":false,"name":"Light Path","outputs":[0.0,0.0,0.0,0.0,0.0,0.0,0.0,0.0,0.0,0.0,0.0,0.0,0.0],"type":"LIGHT_PATH_BL"},{"inputs":[[0.0,0.0,0.0]],"is_active_output":false,"name":"Environment Texture","outputs":[[0.0,0.0,0.0,0.0]],"projection":"EQUIRECTANGULAR","texture":0,"type":"TEX_ENVIRONMENT_BL"}]},"useCastShadows":true}},"name":"Verge3D_Environment_World"}],"meshes":[{"extensions":{"S8S_v3d_mesh":{"colorLayers":{},"uvLayers":{"UVMap":"TEXCOORD_0"}}},"name":"6角500ml パッキン","primitives":[{"attributes":{"NORMAL":2,"POSITION":1,"TEXCOORD_0":3},"indices":0,"material":0,"mode":4}]},{"extensions":{"S8S_v3d_mesh":{"colorLayers":{},"uvLayers":{"UVMap":"TEXCOORD_0"}}},"name":"6角500ml 本体","primitives":[{"attributes":{"NORMAL":6,"POSITION":5,"TEXCOORD_0":7},"indices":4,"material":1,"mode":4}]},{"extensions":{"S8S_v3d_mesh":{"colorLayers":{},"uvLayers":{"UVMap":"TEXCOORD_0"}}},"name":"6角500ml 蓋","primitives":[{"attributes":{"NORMAL":10,"POSITION":9,"TEXCOORD_0":11},"indices":8,"material":0,"mode":4}]}],"nodes":[{"extensions":{"S8S_v3d_node":{"frustumCulling":true,"groupNames":[],"hidden":false,"hidpiCompositing":false,"objectColor":[1.0,1.0,1.0,1.0],"objectIndex":0,"renderOrder":0,"useShadows":true}},"mesh":1,"name":"6角500ml 本体","rotation":[0.0,0.7071067094802856,-0.0,0.7071068286895752],"scale":[0.009999999776482582,0.009999999776482582,0.009999999776482582]},{"extensions":{"S8S_v3d_node":{"frustumCulling":true,"groupNames":[],"hidden":false,"hidpiCompositing":false,"objectColor":[1.0,1.0,1.0,1.0],"objectIndex":0,"renderOrder":0,"useShadows":true}},"mesh":0,"name":"6角500ml パッキン","rotation":[0.0,0.7071067094802856,-0.0,0.7071068286895752],"scale":[0.009999999776482582,0.009999999776482582,0.009999999776482582]},{"extensions":{"S8S_v3d_node":{"frustumCulling":true,"groupNames":[],"hidden":false,"hidpiCompositing":false,"objectColor":[1.0,1.0,1.0,1.0],"objectIndex":0,"renderOrder":0,"useShadows":true}},"mesh":2,"name":"6角500ml 蓋","rotation":[0.0,0.7071067094802856,-0.0,0.7071068286895752],"scale":[0.009999999776482582,0.009999999776482582,0.009999999776482582]},{"camera":0,"extensions":{"S8S_v3d_node":{"frustumCulling":true,"groupNames":["Collection 1"],"hidden":false,"hidpiCompositing":false,"objectColor":[0.0,0.0,0.0,0.0],"objectIndex":0,"renderOrder":0}},"name":"Camera","rotation":[-0.20997299253940582,0.3857799470424652,0.09062844514846802,0.8937962055206299],"scale":[1.0,0.9999998807907104,0.9999998807907104],"translation":[7.226052284240723,5.1113457679748535,6.946681022644043]},{"extensions":{"S8S_v3d_lights":{"light":0},"S8S_v3d_node":{"frustumCulling":true,"groupNames":["Collection 1"],"hidden":false,"hidpiCompositing":false,"objectColor":[0.0,0.0,0.0,0.0],"objectIndex":0,"renderOrder":0}},"name":"Lamp","rotation":[-0.28416627645492554,0.7269423007965088,0.34203392267227173,0.5232754945755005],"scale":[1.0,0.9999998807907104,0.9999998807907104],"translation":[4.076245307922363,5.903861999511719,-1.0054539442062378]}],"samplers":[{}],"scene":0,"scenes":[{"extensions":{"S8S_v3d_scene":{"aaMethod":"AUTO","iblEnvironmentMode":"PMREM","physicallyCorrectLights":true,"pmremMaxTileSize":256,"shadowMap":{"esmDistanceScale":1.0,"renderReverseSided":false,"renderSingleSided":true,"type":"PCFPOISSON"},"worldMaterial":2}},"extras":{"animFrameRate":24,"coordSystem":"Z_UP_RIGHT"},"name":"Scene","nodes":[0,1,2,4,3]}],"textures":[{"extensions":{"S8S_v3d_texture":{"colorSpace":"linear","source":0}},"name":"environment.hdr","sampler":0}]}
