{"accessors":[{"bufferView":0,"componentType":5123,"count":756,"max":[383],"min":[0],"type":"SCALAR"},{"bufferView":1,"componentType":5126,"count":384,"max":[1.0,1.0,1.0],"min":[-1.0,-1.0,-1.0],"type":"VEC3"},{"bufferView":2,"componentType":5126,"count":384,"max":[0.9951846599578857,1.0,0.9951847791671753],"min":[-0.9951847791671753,-1.0,-0.9951847791671753],"type":"VEC3"},{"bufferView":3,"componentType":5126,"count":384,"max":[1.0,0.9900000095367432],"min":[0.0,0.0],"type":"VEC2"},{"bufferView":4,"componentType":5121,"count":420,"max":[213],"min":[0],"type":"SCALAR"},{"bufferView":5,"componentType":5126,"count":214,"max":[1.0,3.468714475631714,1.0],"min":[-1.0,-1.0,-1.0],"type":"VEC3"},{"bufferView":6,"componentType":5126,"count":214,"max":[0.9996737837791443,1.0,1.0],"min":[-0.9996737837791443,-1.0,-1.0],"type":"VEC3"},{"bufferView":7,"componentType":5126,"count":214,"max":[1.0,0.9900000095367432],"min":[0.0,0.0],"type":"VEC2"},{"bufferView":8,"componentType":5121,"count":468,"max":[235],"min":[0],"type":"SCALAR"},{"bufferView":9,"componentType":5126,"count":236,"max":[1.0,1.0,1.0],"min":[-1.0,-1.0,-0.004617094993591309],"type":"VEC3"},{"bufferView":10,"componentType":5126,"count":236,"max":[0.9996737837791443,1.0,0.9951847791671753],"min":[-0.9996737837791443,-1.0,-1.0],"type":"VEC3"},{"bufferView":11,"componentType":5126,"count":236,"max":[0.9900000095367432,0.9900000095367432],"min":[0.01000000536441803,0.0],"type":"VEC2"},{"bufferView":12,"componentType":5121,"count":468,"max":[235],"min":[0],"type":"SCALAR"},{"bufferView":13,"componentType":5126,"count":236,"max":[1.0,1.0,1.0],"min":[-1.0,-1.0,-0.004617094993591309],"type":"VEC3"},{"bufferView":14,"componentType":5126,"count":236,"max":[0.9996737837791443,1.0,0.9951847791671753],"min":[-0.9996737837791443,-1.0,-1.0],"type":"VEC3"},{"bufferView":15,"componentType":5126,"count":236,"max":[0.9900000095367432,0.9900000095367432],"min":[0.01000000536441803,0.0],"type":"VEC2"},{"bufferView":16,"componentType":5126,"count":108,"max":[5.0],"min":[0.0],"type":"SCALAR"},{"bufferView":17,"componentType":5126,"count":108,"max":[0.004334256052970886,2.0839104652404785,-0.002167128026485443],"min":[0.0,1.2839103937149048,-0.006501384079456329],"type":"VEC3"},{"bufferView":18,"componentType":5126,"count":164,"max":[5.0],"min":[0.0],"type":"SCALAR"},{"bufferView":19,"componentType":5126,"count":164,"max":[1.0,0.4999999701976776,0.4999999701976776,7.549790126404332e-08],"min":[0.5,-1.5678172219071233e-16,-2.220446049250313e-16,-0.7071067690849304],"type":"VEC4"},{"bufferView":20,"componentType":5126,"count":102,"max":[5.0],"min":[0.0],"type":"SCALAR"},{"bufferView":21,"componentType":5126,"count":102,"max":[0.0,2.0812113285064697,-0.0],"min":[-0.002167128026485443,1.281211256980896,-0.0021671277936547995],"type":"VEC3"},{"bufferView":22,"componentType":5126,"count":164,"max":[5.0],"min":[0.0],"type":"SCALAR"},{"bufferView":23,"componentType":5126,"count":164,"max":[0.0,1.1086139928976184e-16,1.5700924318127872e-16,1.0],"min":[-0.7071067690849304,-0.5,-0.4999999701976776,0.5000000596046448],"type":"VEC4"},{"bufferView":24,"componentType":5126,"count":2,"max":[0.8333333134651184],"min":[0.0],"type":"SCALAR"},{"bufferView":25,"componentType":5126,"count":2,"max":[4.076245307922363,5.903861999511719,-1.0054539442062378],"min":[4.076245307922363,5.903861999511719,-1.0054539442062378],"type":"VEC3"},{"bufferView":26,"componentType":5126,"count":2,"max":[0.8333333134651184],"min":[0.0],"type":"SCALAR"},{"bufferView":27,"componentType":5126,"count":2,"max":[-0.28416621685028076,0.7269423604011536,0.34203392267227173,0.5232754945755005],"min":[-0.28416621685028076,0.7269423604011536,0.34203392267227173,0.5232754945755005],"type":"VEC4"},{"bufferView":28,"componentType":5126,"count":102,"max":[5.0],"min":[0.0],"type":"SCALAR"},{"bufferView":29,"componentType":5126,"count":102,"max":[0.0,1.9000000953674316,-0.0],"min":[-0.002167128026485443,1.100000023841858,-0.0021671277936547995],"type":"VEC3"},{"bufferView":30,"componentType":5126,"count":88,"max":[5.0],"min":[0.0],"type":"SCALAR"},{"bufferView":31,"componentType":5126,"count":88,"max":[0.0,0.0,-0.0,1.0],"min":[0.0,-0.7071067690849304,-0.0,0.7071068286895752],"type":"VEC4"}],"animations":[{"channels":[{"sampler":0,"target":{"node":1,"path":"translation"}},{"sampler":1,"target":{"node":1,"path":"rotation"}}],"extensions":{"S8S_v3d_animation":{"auto":true,"loop":"REPEAT","offset":0.0,"repeatCount":1.0,"repeatInfinite":true}},"name":"Cylinder.003","samplers":[{"input":16,"interpolation":"LINEAR","output":17},{"input":18,"interpolation":"LINEAR","output":19}]},{"channels":[{"sampler":0,"target":{"node":2,"path":"translation"}},{"sampler":1,"target":{"node":2,"path":"rotation"}}],"extensions":{"S8S_v3d_animation":{"auto":true,"loop":"REPEAT","offset":0.0,"repeatCount":1.0,"repeatInfinite":true}},"name":"Cylinder.002","samplers":[{"input":20,"interpolation":"LINEAR","output":21},{"input":22,"interpolation":"LINEAR","output":23}]},{"channels":[{"sampler":0,"target":{"node":4,"path":"translation"}},{"sampler":1,"target":{"node":4,"path":"rotation"}}],"extensions":{"S8S_v3d_animation":{"auto":true,"loop":"REPEAT","offset":0.0,"repeatCount":1.0,"repeatInfinite":true}},"name":"Lamp","samplers":[{"input":24,"interpolation":"LINEAR","output":25},{"input":26,"interpolation":"LINEAR","output":27}]},{"channels":[{"sampler":0,"target":{"node":5,"path":"translation"}},{"sampler":1,"target":{"node":5,"path":"rotation"}}],"extensions":{"S8S_v3d_animation":{"auto":true,"loop":"REPEAT","offset":0.0,"repeatCount":1.0,"repeatInfinite":true}},"name":"Cylinder.001","samplers":[{"input":28,"interpolation":"LINEAR","output":29},{"input":30,"interpolation":"LINEAR","output":31}]}],"asset":{"generator":"Verge3D for Blender","version":"2.0"},"bufferViews":[{"buffer":0,"byteLength":1512,"byteOffset":0,"target":34963},{"buffer":0,"byteLength":4608,"byteOffset":1512,"target":34962},{"buffer":0,"byteLength":4608,"byteOffset":6120,"target":34962},{"buffer":0,"byteLength":3072,"byteOffset":10728,"target":34962},{"buffer":0,"byteLength":420,"byteOffset":13800,"target":34963},{"buffer":0,"byteLength":2568,"byteOffset":14220,"target":34962},{"buffer":0,"byteLength":2568,"byteOffset":16788,"target":34962},{"buffer":0,"byteLength":1712,"byteOffset":19356,"target":34962},{"buffer":0,"byteLength":468,"byteOffset":21068,"target":34963},{"buffer":0,"byteLength":2832,"byteOffset":21536,"target":34962},{"buffer":0,"byteLength":2832,"byteOffset":24368,"target":34962},{"buffer":0,"byteLength":1888,"byteOffset":27200,"target":34962},{"buffer":0,"byteLength":468,"byteOffset":29088,"target":34963},{"buffer":0,"byteLength":2832,"byteOffset":29556,"target":34962},{"buffer":0,"byteLength":2832,"byteOffset":32388,"target":34962},{"buffer":0,"byteLength":1888,"byteOffset":35220,"target":34962},{"buffer":0,"byteLength":432,"byteOffset":37108},{"buffer":0,"byteLength":1296,"byteOffset":37540},{"buffer":0,"byteLength":656,"byteOffset":38836},{"buffer":0,"byteLength":2624,"byteOffset":39492},{"buffer":0,"byteLength":408,"byteOffset":42116},{"buffer":0,"byteLength":1224,"byteOffset":42524},{"buffer":0,"byteLength":656,"byteOffset":43748},{"buffer":0,"byteLength":2624,"byteOffset":44404},{"buffer":0,"byteLength":8,"byteOffset":47028},{"buffer":0,"byteLength":24,"byteOffset":47036},{"buffer":0,"byteLength":8,"byteOffset":47060},{"buffer":0,"byteLength":32,"byteOffset":47068},{"buffer":0,"byteLength":408,"byteOffset":47100},{"buffer":0,"byteLength":1224,"byteOffset":47508},{"buffer":0,"byteLength":352,"byteOffset":48732},{"buffer":0,"byteLength":1408,"byteOffset":49084}],"buffers":[{"byteLength":50492,"uri":"my_doublehandle_bottle_test1.bin"}],"cameras":[{"extensions":{"S8S_v3d_camera":{"controls":"ORBIT","enablePan":true,"moveSpeed":1.0,"orbitMaxDistance":20.0,"orbitMaxPolarAngle":3.1415927410125732,"orbitMaxZoom":100.0,"orbitMinDistance":3.0,"orbitMinPolarAngle":0.0,"orbitMinZoom":0.009999999776482582,"orbitTarget":[0.0,0.0,-0.0],"rotateSpeed":1.0,"viewportFitInitialAspect":1.7777777777777777,"viewportFitType":"AUTO"}},"name":"Camera","perspective":{"aspectRatio":1.7777777777777777,"yfov":0.5033799372418416,"zfar":100.0,"znear":0.10000000149011612},"type":"perspective"}],"extensions":{"S8S_v3d_lights":{"lights":[{"color":[1.0,1.0,1.0],"decay":2,"distance":10.00000011175871,"intensity":100.0,"name":"Lamp","profile":"blender","shadow":{"bias":-0.0018,"cameraFar":10.00000011175871,"cameraFov":0,"cameraNear":1.0007989406585693,"enabled":true,"expBias":2.5,"mapSize":512,"radius":1.0,"slopeScaledBias":2.5},"type":"point"}]}},"extensionsUsed":["S8S_v3d_texture","S8S_v3d_materials","S8S_v3d_camera","S8S_v3d_lights","S8S_v3d_mesh","S8S_v3d_node","S8S_v3d_animation","S8S_v3d_scene"],"images":[{"uri":"environment.hdr"}],"materials":[{"extensions":{"S8S_v3d_materials":{"gtaoVisible":true,"materialIndex":0,"nodeGraph":{"edges":[{"fromNode":0,"fromOutput":0,"toInput":0,"toNode":1}],"nodes":[{"inputs":[[0.800000011920929,0.800000011920929,0.800000011920929,1.0],0.0,[1.0,0.20000000298023224,0.10000000149011612],[0.800000011920929,0.800000011920929,0.800000011920929,1.0],1.399999976158142,0.0,0.0,0.5,0.0,0.5,0.0,0.0,0.0,0.5,0.0,0.029999999329447746,1.4500000476837158,0.0,0.0,[0.0,0.0,0.0,1.0],1.0,1.0,[0.0,0.0,0.0],[0.0,0.0,0.0],[0.0,0.0,0.0]],"is_active_output":false,"name":"Principled BSDF","outputs":[[0,0,0,0]],"type":"BSDF_PRINCIPLED_BL"},{"inputs":[[0,0,0,0],[0,0,0,0],[0.0,0.0,0.0],0.0],"is_active_output":true,"name":"Material Output","outputs":[],"type":"OUTPUT_MATERIAL_BL"}]},"useCastShadows":true}},"name":"Material"},{"extensions":{"S8S_v3d_materials":{"gtaoVisible":true,"materialIndex":0,"nodeGraph":{"edges":[{"fromNode":0,"fromOutput":0,"toInput":0,"toNode":1}],"nodes":[{"inputs":[[0.09850453585386276,0.09850453585386276,0.09850453585386276,1.0],0.0,[1.0,0.20000000298023224,0.10000000149011612],[0.800000011920929,0.800000011920929,0.800000011920929,1.0],1.399999976158142,0.0,0.0,0.5,0.0,0.5,0.0,0.0,0.0,0.5,0.0,0.029999999329447746,1.4500000476837158,0.0,0.0,[0.0,0.0,0.0,1.0],1.0,1.0,[0.0,0.0,0.0],[0.0,0.0,0.0],[0.0,0.0,0.0]],"is_active_output":false,"name":"Principled BSDF","outputs":[[0,0,0,0]],"type":"BSDF_PRINCIPLED_BL"},{"inputs":[[0,0,0,0],[0,0,0,0],[0.0,0.0,0.0],0.0],"is_active_output":true,"name":"Material Output","outputs":[],"type":"OUTPUT_MATERIAL_BL"}]},"useCastShadows":true}},"name":"Material.001"},{"extensions":{"S8S_v3d_materials":{"gtaoVisible":true,"materialIndex":0,"nodeGraph":{"edges":[{"fromNode":0,"fromOutput":0,"toInput":0,"toNode":1},{"fromNode":4,"fromOutput":0,"toInput":6,"toNode":2},{"fromNode":3,"fromOutput":0,"toInput":0,"toNode":2},{"fromNode":2,"fromOutput":2,"toInput":0,"toNode":0}],"nodes":[{"inputs":[[0.05087608844041824,0.05087608844041824,0.05087608844041824,1.0],1.0],"is_active_output":false,"name":"Background","outputs":[[0,0,0,0]],"type":"BACKGROUND_BL"},{"inputs":[[0,0,0,0],[0,0,0,0]],"is_active_output":true,"name":"World Output","outputs":[],"type":"OUTPUT_WORLD_BL"},{"blendType":"MIX","clampFactor":true,"clampResult":false,"dataType":"RGBA","factorMode":"UNIFORM","inputs":[0.5,[0.5,0.5,0.5],0.0,0.0,[0.0,0.0,0.0],[0.0,0.0,0.0],[0.5,0.5,0.5,1.0],[0.05126946419477463,0.05126946419477463,0.05126946419477463,1.0]],"is_active_output":false,"name":"Mix","outputs":[0.0,[0.0,0.0,0.0],[0.0,0.0,0.0,0.0]],"type":"MIX_BL"},{"inputs":[],"is_active_output":false,"name":"Light Path","outputs":[0.0,0.0,0.0,0.0,0.0,0.0,0.0,0.0,0.0,0.0,0.0,0.0,0.0],"type":"LIGHT_PATH_BL"},{"inputs":[[0.0,0.0,0.0]],"is_active_output":false,"name":"Environment Texture","outputs":[[0.0,0.0,0.0,0.0]],"projection":"EQUIRECTANGULAR","texture":0,"type":"TEX_ENVIRONMENT_BL"}]},"useCastShadows":true}},"name":"Verge3D_Environment_World"}],"meshes":[{"extensions":{"S8S_v3d_mesh":{"colorLayers":{},"uvLayers":{"UVMap":"TEXCOORD_0"}}},"name":"Cylinder","primitives":[{"attributes":{"NORMAL":2,"POSITION":1,"TEXCOORD_0":3},"indices":0,"material":0,"mode":4}]},{"extensions":{"S8S_v3d_mesh":{"colorLayers":{},"uvLayers":{"UVMap":"TEXCOORD_0"}}},"name":"Cylinder.002","primitives":[{"attributes":{"NORMAL":6,"POSITION":5,"TEXCOORD_0":7},"indices":4,"material":1,"mode":4}]},{"extensions":{"S8S_v3d_mesh":{"colorLayers":{},"uvLayers":{"UVMap":"TEXCOORD_0"}}},"name":"Cylinder.006","primitives":[{"attributes":{"NORMAL":10,"POSITION":9,"TEXCOORD_0":11},"indices":8,"material":1,"mode":4}]},{"extensions":{"S8S_v3d_mesh":{"colorLayers":{},"uvLayers":{"UVMap":"TEXCOORD_0"}}},"name":"Cylinder.009","primitives":[{"attributes":{"NORMAL":14,"POSITION":13,"TEXCOORD_0":15},"indices":12,"material":1,"mode":4}]}],"nodes":[{"extensions":{"S8S_v3d_node":{"frustumCulling":true,"groupNames":[],"hidden":false,"hidpiCompositing":false,"objectColor":[1.0,1.0,1.0,1.0],"objectIndex":0,"renderOrder":0,"useShadows":true}},"mesh":0,"name":"Cylinder"},{"extensions":{"S8S_v3d_node":{"frustumCulling":true,"groupNames":[],"hidden":false,"hidpiCompositing":false,"objectColor":[1.0,1.0,1.0,1.0],"objectIndex":0,"renderOrder":0,"useShadows":true}},"mesh":3,"name":"Cylinder.003","rotation":[1.0,0.0,-2.220446049250313e-16,7.549790126404332e-08],"scale":[1.0,0.07999999076128006,1.0],"translation":[0.0,1.2839103937149048,-0.006501384079456329]},{"extensions":{"S8S_v3d_node":{"frustumCulling":true,"groupNames":[],"hidden":false,"hidpiCompositing":false,"objectColor":[1.0,1.0,1.0,1.0],"objectIndex":0,"renderOrder":0,"useShadows":true}},"mesh":2,"name":"Cylinder.002","scale":[1.0,0.07999999076128006,1.0],"translation":[0.0,1.281211256980896,-0.0]},{"camera":0,"extensions":{"S8S_v3d_node":{"frustumCulling":true,"groupNames":["Collection 1"],"hidden":false,"hidpiCompositing":false,"objectColor":[0.0,0.0,0.0,0.0],"objectIndex":0,"renderOrder":0}},"name":"Camera","rotation":[-0.20997299253940582,0.3857799470424652,0.09062844514846802,0.8937962055206299],"scale":[1.0,0.9999998807907104,0.9999998807907104],"translation":[7.226052284240723,5.1113457679748535,6.946681022644043]},{"extensions":{"S8S_v3d_lights":{"light":0},"S8S_v3d_node":{"frustumCulling":true,"groupNames":["Collection 1"],"hidden":false,"hidpiCompositing":false,"objectColor":[0.0,0.0,0.0,0.0],"objectIndex":0,"renderOrder":0}},"name":"Lamp","rotation":[-0.28416627645492554,0.7269423007965088,0.34203392267227173,0.5232754945755005],"scale":[1.0,0.9999998807907104,0.9999998807907104],"translation":[4.076245307922363,5.903861999511719,-1.0054539442062378]},{"extensions":{"S8S_v3d_node":{"frustumCulling":true,"groupNames":[],"hidden":false,"hidpiCompositing":false,"objectColor":[1.0,1.0,1.0,1.0],"objectIndex":0,"renderOrder":0,"useShadows":true}},"mesh":1,"name":"Cylinder.001","scale":[1.0,0.07999999076128006,1.0],"translation":[0.0,1.100000023841858,-0.0]}],"samplers":[{}],"scene":0,"scenes":[{"extensions":{"S8S_v3d_scene":{"aaMethod":"AUTO","iblEnvironmentMode":"PMREM","physicallyCorrectLights":true,"pmremMaxTileSize":256,"shadowMap":{"esmDistanceScale":1.0,"renderReverseSided":false,"renderSingleSided":true,"type":"PCFPOISSON"},"worldMaterial":2}},"extras":{"animFrameRate":24,"coordSystem":"Z_UP_RIGHT"},"name":"Scene","nodes":[0,5,2,1,4,3]}],"textures":[{"extensions":{"S8S_v3d_texture":{"colorSpace":"linear","source":0}},"name":"environment.hdr","sampler":0}]}
