{"accessors":[{"bufferView":0,"componentType":5123,"count":492,"max":[379],"min":[0],"type":"SCALAR"},{"bufferView":1,"componentType":5126,"count":380,"max":[52.35319900512695,79.9774169921875,52.5],"min":[-52.35319900512695,77.9774169921875,-52.5],"type":"VEC3"},{"bufferView":2,"componentType":5126,"count":380,"max":[0.9972050189971924,1.0,1.0],"min":[-0.9972050189971924,-1.0,-1.0],"type":"VEC3"},{"bufferView":3,"componentType":5126,"count":380,"max":[5.235320091247559,17.49336051940918],"min":[-5.235320091247559,-15.49336051940918],"type":"VEC2"},{"bufferView":4,"componentType":5123,"count":10518,"max":[10356],"min":[0],"type":"SCALAR"},{"bufferView":5,"componentType":5126,"count":10357,"max":[60.48296356201172,80.3719482421875,60.5],"min":[-60.48296356201172,65.3719482421875,-60.5],"type":"VEC3"},{"bufferView":6,"componentType":5126,"count":10357,"max":[0.9992683529853821,1.0,1.0],"min":[-0.9992683529853821,-1.0,-1.0],"type":"VEC3"},{"bufferView":7,"componentType":5126,"count":10357,"max":[5.93336296081543,20.412071228027344],"min":[-5.93336296081543,-18.412071228027344],"type":"VEC2"},{"bufferView":8,"componentType":5123,"count":7548,"max":[7327],"min":[0],"type":"SCALAR"},{"bufferView":9,"componentType":5126,"count":7328,"max":[60.0,79.8719482421875,60.0],"min":[-60.0,-0.12805557250976562,-60.0],"type":"VEC3"},{"bufferView":10,"componentType":5126,"count":7328,"max":[1.0,1.0,1.0],"min":[-1.0,-1.0,-1.0],"type":"VEC3"},{"bufferView":11,"componentType":5126,"count":7328,"max":[8.255435943603516,23.15424919128418],"min":[-8.255435943603516,-22.23617935180664],"type":"VEC2"},{"bufferView":12,"componentType":5123,"count":10308,"max":[9771],"min":[0],"type":"SCALAR"},{"bufferView":13,"componentType":5126,"count":9772,"max":[60.46592712402344,83.3719482421875,60.5],"min":[-60.46592712402344,65.3719482421875,-60.5],"type":"VEC3"},{"bufferView":14,"componentType":5126,"count":9772,"max":[1.0,1.0,1.0],"min":[-1.0,-1.0,-1.0],"type":"VEC3"},{"bufferView":15,"componentType":5126,"count":9772,"max":[5.93336296081543,20.36496925354004],"min":[-5.93336296081543,-18.36496925354004],"type":"VEC2"},{"bufferView":16,"componentType":5126,"count":15,"max":[9.583333015441895],"min":[0.0],"type":"SCALAR"},{"bufferView":17,"componentType":5126,"count":15,"max":[0.00015083688776940107,-0.3987194299697876,-0.0],"min":[0.0,-0.39876681566238403,-6.367049248945378e-12],"type":"VEC3"},{"bufferView":18,"componentType":5126,"count":87,"max":[9.583333015441895],"min":[0.0],"type":"SCALAR"},{"bufferView":19,"componentType":5126,"count":87,"max":[0.21193820238113403,0.7071067690849304,-0.0,0.7071068286895752],"min":[0.0,0.6745977997779846,-0.21193823218345642,0.6745977997779846],"type":"VEC4"},{"bufferView":20,"componentType":5126,"count":202,"max":[9.583333015441895],"min":[0.0],"type":"SCALAR"},{"bufferView":21,"componentType":5126,"count":202,"max":[0.7877086997032166,0.7510674595832825,-0.0],"min":[0.0,-0.39876681566238403,-6.367049248945378e-12],"type":"VEC3"},{"bufferView":22,"componentType":5126,"count":92,"max":[9.583333015441895],"min":[0.0],"type":"SCALAR"},{"bufferView":23,"componentType":5126,"count":92,"max":[0.21193820238113403,0.7071067690849304,-0.0,0.7071068286895752],"min":[0.0,0.6745977997779846,-0.21193823218345642,0.6745977997779846],"type":"VEC4"},{"bufferView":24,"componentType":5126,"count":202,"max":[9.583333015441895],"min":[0.0],"type":"SCALAR"},{"bufferView":25,"componentType":5126,"count":202,"max":[0.7877086997032166,0.7510674595832825,-0.0],"min":[0.0,-0.39876681566238403,-6.367049248945378e-12],"type":"VEC3"},{"bufferView":26,"componentType":5126,"count":92,"max":[9.583333015441895],"min":[0.0],"type":"SCALAR"},{"bufferView":27,"componentType":5126,"count":92,"max":[0.21193820238113403,0.7071067690849304,-0.0,0.7071068286895752],"min":[0.0,0.6745977997779846,-0.21193823218345642,0.6745977997779846],"type":"VEC4"},{"bufferView":28,"componentType":5126,"count":206,"max":[9.583333015441895],"min":[0.0],"type":"SCALAR"},{"bufferView":29,"componentType":5126,"count":206,"max":[0.7871053218841553,0.7502020001411438,1.9101147746836133e-11],"min":[-0.00045251072151586413,-0.399774432182312,-0.0],"type":"VEC3"},{"bufferView":30,"componentType":5126,"count":92,"max":[9.583333015441895],"min":[0.0],"type":"SCALAR"},{"bufferView":31,"componentType":5126,"count":92,"max":[0.21193820238113403,0.7071067690849304,-0.0,0.7071068286895752],"min":[0.0,0.6745977997779846,-0.21193823218345642,0.6745977997779846],"type":"VEC4"}],"animations":[{"channels":[{"sampler":0,"target":{"node":0,"path":"translation"}},{"sampler":1,"target":{"node":0,"path":"rotation"}}],"extensions":{"S8S_v3d_animation":{"auto":true,"loop":"REPEAT","offset":0.0,"repeatCount":1.0,"repeatInfinite":true}},"name":"Φ120bowl-500ml 本体","samplers":[{"input":16,"interpolation":"LINEAR","output":17},{"input":18,"interpolation":"LINEAR","output":19}]},{"channels":[{"sampler":0,"target":{"node":1,"path":"translation"}},{"sampler":1,"target":{"node":1,"path":"rotation"}}],"extensions":{"S8S_v3d_animation":{"auto":true,"loop":"REPEAT","offset":0.0,"repeatCount":1.0,"repeatInfinite":true}},"name":"Φ120bowl-500ml 蓋シリコン","samplers":[{"input":20,"interpolation":"LINEAR","output":21},{"input":22,"interpolation":"LINEAR","output":23}]},{"channels":[{"sampler":0,"target":{"node":2,"path":"translation"}},{"sampler":1,"target":{"node":2,"path":"rotation"}}],"extensions":{"S8S_v3d_animation":{"auto":true,"loop":"REPEAT","offset":0.0,"repeatCount":1.0,"repeatInfinite":true}},"name":"Φ120bowl-500ml シルバー","samplers":[{"input":24,"interpolation":"LINEAR","output":25},{"input":26,"interpolation":"LINEAR","output":27}]},{"channels":[{"sampler":0,"target":{"node":4,"path":"translation"}},{"sampler":1,"target":{"node":4,"path":"rotation"}}],"extensions":{"S8S_v3d_animation":{"auto":true,"loop":"REPEAT","offset":0.0,"repeatCount":1.0,"repeatInfinite":true}},"name":"Φ120bowl-500ml ガラス","samplers":[{"input":28,"interpolation":"LINEAR","output":29},{"input":30,"interpolation":"LINEAR","output":31}]}],"asset":{"generator":"Verge3D for Blender","version":"2.0"},"bufferViews":[{"buffer":0,"byteLength":984,"byteOffset":0,"target":34963},{"buffer":0,"byteLength":4560,"byteOffset":984,"target":34962},{"buffer":0,"byteLength":4560,"byteOffset":5544,"target":34962},{"buffer":0,"byteLength":3040,"byteOffset":10104,"target":34962},{"buffer":0,"byteLength":21036,"byteOffset":13144,"target":34963},{"buffer":0,"byteLength":124284,"byteOffset":34180,"target":34962},{"buffer":0,"byteLength":124284,"byteOffset":158464,"target":34962},{"buffer":0,"byteLength":82856,"byteOffset":282748,"target":34962},{"buffer":0,"byteLength":15096,"byteOffset":365604,"target":34963},{"buffer":0,"byteLength":87936,"byteOffset":380700,"target":34962},{"buffer":0,"byteLength":87936,"byteOffset":468636,"target":34962},{"buffer":0,"byteLength":58624,"byteOffset":556572,"target":34962},{"buffer":0,"byteLength":20616,"byteOffset":615196,"target":34963},{"buffer":0,"byteLength":117264,"byteOffset":635812,"target":34962},{"buffer":0,"byteLength":117264,"byteOffset":753076,"target":34962},{"buffer":0,"byteLength":78176,"byteOffset":870340,"target":34962},{"buffer":0,"byteLength":60,"byteOffset":948516},{"buffer":0,"byteLength":180,"byteOffset":948576},{"buffer":0,"byteLength":348,"byteOffset":948756},{"buffer":0,"byteLength":1392,"byteOffset":949104},{"buffer":0,"byteLength":808,"byteOffset":950496},{"buffer":0,"byteLength":2424,"byteOffset":951304},{"buffer":0,"byteLength":368,"byteOffset":953728},{"buffer":0,"byteLength":1472,"byteOffset":954096},{"buffer":0,"byteLength":808,"byteOffset":955568},{"buffer":0,"byteLength":2424,"byteOffset":956376},{"buffer":0,"byteLength":368,"byteOffset":958800},{"buffer":0,"byteLength":1472,"byteOffset":959168},{"buffer":0,"byteLength":824,"byteOffset":960640},{"buffer":0,"byteLength":2472,"byteOffset":961464},{"buffer":0,"byteLength":368,"byteOffset":963936},{"buffer":0,"byteLength":1472,"byteOffset":964304}],"buffers":[{"byteLength":965776,"uri":"my_120bowl_500ml_01.bin"}],"cameras":[{"extensions":{"S8S_v3d_camera":{"controls":"ORBIT","enablePan":true,"moveSpeed":1.0,"orbitMaxDistance":20.0,"orbitMaxPolarAngle":3.1415927410125732,"orbitMaxZoom":100.0,"orbitMinDistance":3.0,"orbitMinPolarAngle":0.0,"orbitMinZoom":0.009999999776482582,"orbitTarget":[0.0,0.0,-0.0],"rotateSpeed":1.0,"viewportFitInitialAspect":1.7777777777777777,"viewportFitType":"AUTO"}},"name":"Camera","perspective":{"aspectRatio":1.7777777777777777,"yfov":0.5033799372418416,"zfar":100.0,"znear":0.10000000149011612},"type":"perspective"}],"extensions":{"S8S_v3d_lights":{"lights":[{"color":[1.0,1.0,1.0],"decay":2,"distance":10.00000011175871,"intensity":100.0,"name":"Lamp","profile":"blender","shadow":{"bias":-0.0018,"cameraFar":10.00000011175871,"cameraFov":0,"cameraNear":1.0007989406585693,"enabled":true,"expBias":2.5,"mapSize":512,"radius":1.0,"slopeScaledBias":2.5},"type":"point"}]}},"extensionsUsed":["S8S_v3d_texture","S8S_v3d_materials","S8S_v3d_camera","S8S_v3d_lights","S8S_v3d_mesh","S8S_v3d_node","S8S_v3d_animation","S8S_v3d_scene"],"images":[{"uri":"environment.hdr"}],"materials":[{"extensions":{"S8S_v3d_materials":{"gtaoVisible":true,"materialIndex":0,"nodeGraph":{"edges":[{"fromNode":0,"fromOutput":0,"toInput":0,"toNode":1}],"nodes":[{"inputs":[[1.0,1.0,1.0,1.0],0.0,[1.0,0.20000000298023224,0.10000000149011612],[0.800000011920929,0.800000011920929,0.800000011920929,1.0],1.399999976158142,0.0,0.0,0.0,0.0,1.0,0.0,0.0,0.0,0.5,0.0,0.029999999329447746,1.4500000476837158,0.0,0.0,[0.0,0.0,0.0,1.0],1.0,1.0,[0.0,0.0,0.0],[0.0,0.0,0.0],[0.0,0.0,0.0]],"is_active_output":false,"name":"Principled BSDF","outputs":[[0,0,0,0]],"type":"BSDF_PRINCIPLED_BL"},{"inputs":[[0,0,0,0],[0,0,0,0],[0.0,0.0,0.0],0.0],"is_active_output":true,"name":"Material Output","outputs":[],"type":"OUTPUT_MATERIAL_BL"}]},"useCastShadows":true}},"name":"Plastic_-_Translucent_Matte_(White)"},{"extensions":{"S8S_v3d_materials":{"gtaoVisible":true,"materialIndex":0,"nodeGraph":{"edges":[{"fromNode":0,"fromOutput":0,"toInput":0,"toNode":1}],"nodes":[{"inputs":[[0.800000011920929,0.800000011920929,0.800000011920929,1.0],0.0,[1.0,0.20000000298023224,0.10000000149011612],[0.800000011920929,0.800000011920929,0.800000011920929,1.0],1.399999976158142,0.0,0.0,0.0,0.0,1.0,0.0,0.0,0.0,0.5,0.0,0.029999999329447746,1.4500000476837158,0.0,0.0,[0.0,0.0,0.0,1.0],1.0,1.0,[0.0,0.0,0.0],[0.0,0.0,0.0],[0.0,0.0,0.0]],"is_active_output":false,"name":"Principled BSDF","outputs":[[0,0,0,0]],"type":"BSDF_PRINCIPLED_BL"},{"inputs":[[0,0,0,0],[0,0,0,0],[0.0,0.0,0.0],0.0],"is_active_output":true,"name":"Material Output","outputs":[],"type":"OUTPUT_MATERIAL_BL"}]},"useCastShadows":true}},"name":"Polycarbonate_(Clear)"},{"extensions":{"S8S_v3d_materials":{"gtaoVisible":true,"materialIndex":0,"nodeGraph":{"edges":[{"fromNode":0,"fromOutput":0,"toInput":0,"toNode":1}],"nodes":[{"inputs":[[0.800000011920929,0.800000011920929,0.800000011920929,1.0],0.0,[1.0,0.20000000298023224,0.10000000149011612],[0.800000011920929,0.800000011920929,0.800000011920929,1.0],1.399999976158142,0.0,0.0,0.0,0.0,1.0,0.0,0.0,0.0,0.5,0.0,0.029999999329447746,1.4500000476837158,0.0,0.0,[0.0,0.0,0.0,1.0],1.0,1.0,[0.0,0.0,0.0],[0.0,0.0,0.0],[0.0,0.0,0.0]],"is_active_output":false,"name":"Principled BSDF","outputs":[[0,0,0,0]],"type":"BSDF_PRINCIPLED_BL"},{"inputs":[[0,0,0,0],[0,0,0,0],[0.0,0.0,0.0],0.0],"is_active_output":true,"name":"Material Output","outputs":[],"type":"OUTPUT_MATERIAL_BL"}]},"useCastShadows":true}},"name":"Polycarbonate_(Clear).001"},{"extensions":{"S8S_v3d_materials":{"gtaoVisible":true,"materialIndex":0,"nodeGraph":{"edges":[{"fromNode":0,"fromOutput":0,"toInput":0,"toNode":1}],"nodes":[{"inputs":[[0.4868977963924408,0.4868977963924408,0.4868977963924408,1.0],0.0,[1.0,0.20000000298023224,0.10000000149011612],[0.800000011920929,0.800000011920929,0.800000011920929,1.0],1.399999976158142,0.0,0.0,0.0,0.0,1.0,0.0,0.0,0.0,0.5,0.0,0.029999999329447746,1.4500000476837158,0.0,0.0,[0.0,0.0,0.0,1.0],1.0,1.0,[0.0,0.0,0.0],[0.0,0.0,0.0],[0.0,0.0,0.0]],"is_active_output":false,"name":"Principled BSDF","outputs":[[0,0,0,0]],"type":"BSDF_PRINCIPLED_BL"},{"inputs":[[0,0,0,0],[0,0,0,0],[0.0,0.0,0.0],0.0],"is_active_output":true,"name":"Material Output","outputs":[],"type":"OUTPUT_MATERIAL_BL"}]},"useCastShadows":true}},"name":"Stainless_Steel_-_Polished"},{"extensions":{"S8S_v3d_materials":{"gtaoVisible":true,"materialIndex":0,"nodeGraph":{"edges":[{"fromNode":0,"fromOutput":0,"toInput":0,"toNode":1},{"fromNode":4,"fromOutput":0,"toInput":6,"toNode":2},{"fromNode":3,"fromOutput":0,"toInput":0,"toNode":2},{"fromNode":2,"fromOutput":2,"toInput":0,"toNode":0}],"nodes":[{"inputs":[[0.05087608844041824,0.05087608844041824,0.05087608844041824,1.0],1.0],"is_active_output":false,"name":"Background","outputs":[[0,0,0,0]],"type":"BACKGROUND_BL"},{"inputs":[[0,0,0,0],[0,0,0,0]],"is_active_output":true,"name":"World Output","outputs":[],"type":"OUTPUT_WORLD_BL"},{"blendType":"MIX","clampFactor":true,"clampResult":false,"dataType":"RGBA","factorMode":"UNIFORM","inputs":[0.5,[0.5,0.5,0.5],0.0,0.0,[0.0,0.0,0.0],[0.0,0.0,0.0],[0.5,0.5,0.5,1.0],[0.05126946419477463,0.05126946419477463,0.05126946419477463,1.0]],"is_active_output":false,"name":"Mix","outputs":[0.0,[0.0,0.0,0.0],[0.0,0.0,0.0,0.0]],"type":"MIX_BL"},{"inputs":[],"is_active_output":false,"name":"Light Path","outputs":[0.0,0.0,0.0,0.0,0.0,0.0,0.0,0.0,0.0,0.0,0.0,0.0,0.0],"type":"LIGHT_PATH_BL"},{"inputs":[[0.0,0.0,0.0]],"is_active_output":false,"name":"Environment Texture","outputs":[[0.0,0.0,0.0,0.0]],"projection":"EQUIRECTANGULAR","texture":0,"type":"TEX_ENVIRONMENT_BL"}]},"useCastShadows":true}},"name":"Verge3D_Environment_World"}],"meshes":[{"extensions":{"S8S_v3d_mesh":{"colorLayers":{},"uvLayers":{"UVMap":"TEXCOORD_0"}}},"name":"Φ120bowl-500ml ガラス","primitives":[{"attributes":{"NORMAL":2,"POSITION":1,"TEXCOORD_0":3},"indices":0,"material":2,"mode":4}]},{"extensions":{"S8S_v3d_mesh":{"colorLayers":{},"uvLayers":{"UVMap":"TEXCOORD_0"}}},"name":"Φ120bowl-500ml シルバー","primitives":[{"attributes":{"NORMAL":6,"POSITION":5,"TEXCOORD_0":7},"indices":4,"material":3,"mode":4}]},{"extensions":{"S8S_v3d_mesh":{"colorLayers":{},"uvLayers":{"UVMap":"TEXCOORD_0"}}},"name":"Φ120bowl-500ml 本体","primitives":[{"attributes":{"NORMAL":10,"POSITION":9,"TEXCOORD_0":11},"indices":8,"material":1,"mode":4}]},{"extensions":{"S8S_v3d_mesh":{"colorLayers":{},"uvLayers":{"UVMap":"TEXCOORD_0"}}},"name":"Φ120bowl-500ml 蓋シリコン","primitives":[{"attributes":{"NORMAL":14,"POSITION":13,"TEXCOORD_0":15},"indices":12,"material":0,"mode":4}]}],"nodes":[{"extensions":{"S8S_v3d_node":{"frustumCulling":true,"groupNames":[],"hidden":false,"hidpiCompositing":false,"objectColor":[1.0,1.0,1.0,1.0],"objectIndex":0,"renderOrder":0,"useShadows":true}},"mesh":2,"name":"Φ120bowl-500ml 本体","rotation":[0.0,0.7071067094802856,-0.0,0.7071068286895752],"scale":[0.009999999776482582,0.009999999776482582,0.009999999776482582],"translation":[0.0,-0.3987194299697876,-0.0]},{"extensions":{"S8S_v3d_node":{"frustumCulling":true,"groupNames":[],"hidden":false,"hidpiCompositing":false,"objectColor":[1.0,1.0,1.0,1.0],"objectIndex":0,"renderOrder":0,"useShadows":true}},"mesh":3,"name":"Φ120bowl-500ml 蓋シリコン","rotation":[0.0,0.7071067094802856,-0.0,0.7071068286895752],"scale":[0.009999999776482582,0.009999999776482582,0.009999999776482582],"translation":[0.0,-0.3987194299697876,-0.0]},{"extensions":{"S8S_v3d_node":{"frustumCulling":true,"groupNames":[],"hidden":false,"hidpiCompositing":false,"objectColor":[1.0,1.0,1.0,1.0],"objectIndex":0,"renderOrder":0,"useShadows":true}},"mesh":1,"name":"Φ120bowl-500ml シルバー","rotation":[0.0,0.7071067094802856,-0.0,0.7071068286895752],"scale":[0.009999999776482582,0.009999999776482582,0.009999999776482582],"translation":[0.0,-0.3987194299697876,-0.0]},{"camera":0,"extensions":{"S8S_v3d_node":{"frustumCulling":true,"groupNames":["Collection 1"],"hidden":false,"hidpiCompositing":false,"objectColor":[0.0,0.0,0.0,0.0],"objectIndex":0,"renderOrder":0}},"name":"Camera","rotation":[-0.20997299253940582,0.3857799470424652,0.09062844514846802,0.8937962055206299],"scale":[1.0,0.9999998807907104,0.9999998807907104],"translation":[7.226052284240723,6.414993762969971,6.946681022644043]},{"extensions":{"S8S_v3d_node":{"frustumCulling":true,"groupNames":[],"hidden":false,"hidpiCompositing":false,"objectColor":[1.0,1.0,1.0,1.0],"objectIndex":0,"renderOrder":0,"useShadows":true}},"mesh":0,"name":"Φ120bowl-500ml ガラス","rotation":[0.0,0.7071067094802856,-0.0,0.7071068286895752],"scale":[0.009999999776482582,0.009999999776482582,0.009999999776482582],"translation":[0.0,-0.399774432182312,-0.0]},{"extensions":{"S8S_v3d_lights":{"light":0},"S8S_v3d_node":{"frustumCulling":true,"groupNames":["Collection 1"],"hidden":false,"hidpiCompositing":false,"objectColor":[0.0,0.0,0.0,0.0],"objectIndex":0,"renderOrder":0}},"name":"Lamp","rotation":[-0.28416627645492554,0.7269423007965088,0.34203392267227173,0.5232754945755005],"scale":[1.0,0.9999998807907104,0.9999998807907104],"translation":[4.076245307922363,5.903861999511719,-1.0054539442062378]}],"samplers":[{}],"scene":0,"scenes":[{"extensions":{"S8S_v3d_scene":{"aaMethod":"AUTO","iblEnvironmentMode":"PMREM","physicallyCorrectLights":true,"pmremMaxTileSize":256,"shadowMap":{"esmDistanceScale":1.0,"renderReverseSided":false,"renderSingleSided":true,"type":"PCFPOISSON"},"worldMaterial":4}},"extras":{"animFrameRate":24,"coordSystem":"Z_UP_RIGHT"},"name":"Scene","nodes":[0,1,2,4,5,3]}],"textures":[{"extensions":{"S8S_v3d_texture":{"colorSpace":"linear","source":0}},"name":"environment.hdr","sampler":0}]}
