{"accessors":[{"bufferView":0,"componentType":5123,"count":36228,"max":[35653],"min":[0],"type":"SCALAR"},{"bufferView":1,"componentType":5126,"count":35654,"max":[55.50164794921875,0.0,55.456634521484375],"min":[-55.49483108520508,-100.80000305175781,-55.456634521484375],"type":"VEC3"},{"bufferView":2,"componentType":5126,"count":35654,"max":[1.0,1.0,0.9991909861564636],"min":[-1.0,-1.0,-0.9991908669471741],"type":"VEC3"},{"bufferView":3,"componentType":5126,"count":35654,"max":[11.062397003173828,18.88344383239746],"min":[-10.712231636047363,-38.207237243652344],"type":"VEC2"},{"bufferView":4,"componentType":5123,"count":7632,"max":[6981],"min":[0],"type":"SCALAR"},{"bufferView":5,"componentType":5126,"count":6982,"max":[56.6259765625,2.5,56.4676399230957],"min":[-56.6259765625,-24.5,-56.4676399230957],"type":"VEC3"},{"bufferView":6,"componentType":5126,"count":6982,"max":[1.0,1.0,1.0],"min":[-1.0,-1.0,-1.0],"type":"VEC3"},{"bufferView":7,"componentType":5126,"count":6982,"max":[10.959734916687012,18.985082626342773],"min":[-9.993816375732422,-16.6959171295166],"type":"VEC2"},{"bufferView":8,"componentType":5123,"count":6456,"max":[5978],"min":[0],"type":"SCALAR"},{"bufferView":9,"componentType":5126,"count":5979,"max":[53.79999923706055,1.0,53.64956283569336],"min":[-53.79999923706055,-24.5,-53.64956283569336],"type":"VEC3"},{"bufferView":10,"componentType":5126,"count":5979,"max":[1.0,1.0,1.0],"min":[-1.0,-1.0,-1.0],"type":"VEC3"},{"bufferView":11,"componentType":5126,"count":5979,"max":[10.760000228881836,17.90176773071289],"min":[-10.144801139831543,-16.12548828125],"type":"VEC2"},{"bufferView":12,"componentType":5123,"count":4080,"max":[3542],"min":[0],"type":"SCALAR"},{"bufferView":13,"componentType":5126,"count":3543,"max":[5.0,2.0,4.986019134521484],"min":[-5.0,-0.5,-4.986019134521484],"type":"VEC3"},{"bufferView":14,"componentType":5126,"count":3543,"max":[1.0,1.0,1.0],"min":[-1.0,-1.0,-1.0],"type":"VEC3"},{"bufferView":15,"componentType":5126,"count":3543,"max":[0.5,2.5247888565063477],"min":[-0.5,-0.5247889757156372],"type":"VEC2"},{"bufferView":16,"componentType":5126,"count":44,"max":[4.375],"min":[0.0],"type":"SCALAR"},{"bufferView":17,"componentType":5126,"count":44,"max":[0.0,0.5665090680122375,-0.0],"min":[0.0,0.0,-0.0],"type":"VEC3"},{"bufferView":18,"componentType":5126,"count":10,"max":[4.375],"min":[0.0],"type":"SCALAR"},{"bufferView":19,"componentType":5126,"count":10,"max":[0.0,0.7071067690849304,-0.0,0.7071068286895752],"min":[0.0,0.7071067690849304,-0.0,0.7071068286895752],"type":"VEC4"},{"bufferView":20,"componentType":5126,"count":44,"max":[4.375],"min":[0.0],"type":"SCALAR"},{"bufferView":21,"componentType":5126,"count":44,"max":[0.0,0.5665090680122375,-0.0],"min":[0.0,0.0,-0.0],"type":"VEC3"},{"bufferView":22,"componentType":5126,"count":10,"max":[4.375],"min":[0.0],"type":"SCALAR"},{"bufferView":23,"componentType":5126,"count":10,"max":[0.0,0.7071067690849304,-0.0,0.7071068286895752],"min":[0.0,0.7071067690849304,-0.0,0.7071068286895752],"type":"VEC4"},{"bufferView":24,"componentType":5126,"count":44,"max":[4.375],"min":[0.0],"type":"SCALAR"},{"bufferView":25,"componentType":5126,"count":44,"max":[0.0,0.5665090680122375,-0.0],"min":[0.0,0.0,-0.0],"type":"VEC3"},{"bufferView":26,"componentType":5126,"count":10,"max":[4.375],"min":[0.0],"type":"SCALAR"},{"bufferView":27,"componentType":5126,"count":10,"max":[0.0,0.7071067690849304,-0.0,0.7071068286895752],"min":[0.0,0.7071067690849304,-0.0,0.7071068286895752],"type":"VEC4"}],"animations":[{"channels":[{"sampler":0,"target":{"node":1,"path":"translation"}},{"sampler":1,"target":{"node":1,"path":"rotation"}}],"extensions":{"S8S_v3d_animation":{"auto":true,"loop":"REPEAT","offset":0.0,"repeatCount":1.0,"repeatInfinite":true}},"name":"Φ110-500ml v7蓋","samplers":[{"input":16,"interpolation":"LINEAR","output":17},{"input":18,"interpolation":"LINEAR","output":19}]},{"channels":[{"sampler":0,"target":{"node":2,"path":"translation"}},{"sampler":1,"target":{"node":2,"path":"rotation"}}],"extensions":{"S8S_v3d_animation":{"auto":true,"loop":"REPEAT","offset":0.0,"repeatCount":1.0,"repeatInfinite":true}},"name":"Φ110-500ml v8","samplers":[{"input":20,"interpolation":"LINEAR","output":21},{"input":22,"interpolation":"LINEAR","output":23}]},{"channels":[{"sampler":0,"target":{"node":3,"path":"translation"}},{"sampler":1,"target":{"node":3,"path":"rotation"}}],"extensions":{"S8S_v3d_animation":{"auto":true,"loop":"REPEAT","offset":0.0,"repeatCount":1.0,"repeatInfinite":true}},"name":"Φ110-500ml v9エアー","samplers":[{"input":24,"interpolation":"LINEAR","output":25},{"input":26,"interpolation":"LINEAR","output":27}]}],"asset":{"generator":"Verge3D for Blender","version":"2.0"},"bufferViews":[{"buffer":0,"byteLength":72456,"byteOffset":0,"target":34963},{"buffer":0,"byteLength":427848,"byteOffset":72456,"target":34962},{"buffer":0,"byteLength":427848,"byteOffset":500304,"target":34962},{"buffer":0,"byteLength":285232,"byteOffset":928152,"target":34962},{"buffer":0,"byteLength":15264,"byteOffset":1213384,"target":34963},{"buffer":0,"byteLength":83784,"byteOffset":1228648,"target":34962},{"buffer":0,"byteLength":83784,"byteOffset":1312432,"target":34962},{"buffer":0,"byteLength":55856,"byteOffset":1396216,"target":34962},{"buffer":0,"byteLength":12912,"byteOffset":1452072,"target":34963},{"buffer":0,"byteLength":71748,"byteOffset":1464984,"target":34962},{"buffer":0,"byteLength":71748,"byteOffset":1536732,"target":34962},{"buffer":0,"byteLength":47832,"byteOffset":1608480,"target":34962},{"buffer":0,"byteLength":8160,"byteOffset":1656312,"target":34963},{"buffer":0,"byteLength":42516,"byteOffset":1664472,"target":34962},{"buffer":0,"byteLength":42516,"byteOffset":1706988,"target":34962},{"buffer":0,"byteLength":28344,"byteOffset":1749504,"target":34962},{"buffer":0,"byteLength":176,"byteOffset":1777848},{"buffer":0,"byteLength":528,"byteOffset":1778024},{"buffer":0,"byteLength":40,"byteOffset":1778552},{"buffer":0,"byteLength":160,"byteOffset":1778592},{"buffer":0,"byteLength":176,"byteOffset":1778752},{"buffer":0,"byteLength":528,"byteOffset":1778928},{"buffer":0,"byteLength":40,"byteOffset":1779456},{"buffer":0,"byteLength":160,"byteOffset":1779496},{"buffer":0,"byteLength":176,"byteOffset":1779656},{"buffer":0,"byteLength":528,"byteOffset":1779832},{"buffer":0,"byteLength":40,"byteOffset":1780360},{"buffer":0,"byteLength":160,"byteOffset":1780400}],"buffers":[{"byteLength":1780560,"uri":"my_110_500ml_01.bin"}],"cameras":[{"extensions":{"S8S_v3d_camera":{"controls":"ORBIT","enablePan":true,"moveSpeed":1.0,"orbitMaxDistance":20.0,"orbitMaxPolarAngle":3.1415927410125732,"orbitMaxZoom":100.0,"orbitMinDistance":3.0,"orbitMinPolarAngle":0.0,"orbitMinZoom":0.009999999776482582,"orbitTarget":[0.0,0.0,-0.0],"rotateSpeed":1.0,"viewportFitInitialAspect":1.7777777777777777,"viewportFitType":"AUTO"}},"name":"Camera","perspective":{"aspectRatio":1.7777777777777777,"yfov":0.5033799372418416,"zfar":100.0,"znear":0.10000000149011612},"type":"perspective"}],"extensions":{"S8S_v3d_lights":{"lights":[{"color":[1.0,1.0,1.0],"decay":2,"distance":1e-08,"intensity":0.0,"name":"Lamp","profile":"blender","shadow":{"bias":-0.0018,"cameraFar":1e-08,"cameraFov":0,"cameraNear":1.0007989406585693,"enabled":true,"expBias":2.5,"mapSize":512,"radius":1.0,"slopeScaledBias":2.5},"type":"point"}]}},"extensionsUsed":["S8S_v3d_texture","S8S_v3d_materials","S8S_v3d_camera","S8S_v3d_lights","S8S_v3d_mesh","S8S_v3d_node","S8S_v3d_animation","S8S_v3d_scene"],"images":[{"uri":"environment.hdr"}],"materials":[{"extensions":{"S8S_v3d_materials":{"gtaoVisible":true,"materialIndex":0,"nodeGraph":{"edges":[{"fromNode":0,"fromOutput":0,"toInput":0,"toNode":1}],"nodes":[{"inputs":[[0.800000011920929,0.800000011920929,0.800000011920929,1.0],0.0,[1.0,0.20000000298023224,0.10000000149011612],[0.800000011920929,0.800000011920929,0.800000011920929,1.0],1.399999976158142,0.0,0.0,0.0,0.0,1.0,0.0,0.0,0.0,0.5,0.0,0.029999999329447746,1.4500000476837158,0.0,0.0,[0.0,0.0,0.0,1.0],1.0,1.0,[0.0,0.0,0.0],[0.0,0.0,0.0],[0.0,0.0,0.0]],"is_active_output":false,"name":"Principled BSDF","outputs":[[0,0,0,0]],"type":"BSDF_PRINCIPLED_BL"},{"inputs":[[0,0,0,0],[0,0,0,0],[0.0,0.0,0.0],0.0],"is_active_output":true,"name":"Material Output","outputs":[],"type":"OUTPUT_MATERIAL_BL"}]},"useCastShadows":true}},"name":"ABS_(White)"},{"extensions":{"S8S_v3d_materials":{"gtaoVisible":true,"materialIndex":0,"nodeGraph":{"edges":[{"fromNode":0,"fromOutput":0,"toInput":0,"toNode":1}],"nodes":[{"inputs":[[0.800000011920929,0.800000011920929,0.800000011920929,1.0],0.0,[1.0,0.20000000298023224,0.10000000149011612],[0.800000011920929,0.800000011920929,0.800000011920929,1.0],1.399999976158142,0.0,0.0,0.0,0.0,1.0,0.0,0.0,0.0,0.5,0.0,0.029999999329447746,1.4500000476837158,0.0,0.0,[0.0,0.0,0.0,1.0],1.0,1.0,[0.0,0.0,0.0],[0.0,0.0,0.0],[0.0,0.0,0.0]],"is_active_output":false,"name":"Principled BSDF","outputs":[[0,0,0,0]],"type":"BSDF_PRINCIPLED_BL"},{"inputs":[[0,0,0,0],[0,0,0,0],[0.0,0.0,0.0],0.0],"is_active_output":true,"name":"Material Output","outputs":[],"type":"OUTPUT_MATERIAL_BL"}]},"useCastShadows":true}},"name":"Acrylic_(Clear)"},{"extensions":{"S8S_v3d_materials":{"gtaoVisible":true,"materialIndex":0,"nodeGraph":{"edges":[{"fromNode":0,"fromOutput":0,"toInput":0,"toNode":1}],"nodes":[{"inputs":[[0.800000011920929,0.800000011920929,0.800000011920929,1.0],0.0,[1.0,0.20000000298023224,0.10000000149011612],[0.800000011920929,0.800000011920929,0.800000011920929,1.0],1.399999976158142,0.0,0.0,0.0,0.0,1.0,0.0,0.0,0.0,0.5,0.0,0.029999999329447746,1.4500000476837158,0.0,0.0,[0.0,0.0,0.0,1.0],1.0,1.0,[0.0,0.0,0.0],[0.0,0.0,0.0],[0.0,0.0,0.0]],"is_active_output":false,"name":"Principled BSDF","outputs":[[0,0,0,0]],"type":"BSDF_PRINCIPLED_BL"},{"inputs":[[0,0,0,0],[0,0,0,0],[0.0,0.0,0.0],0.0],"is_active_output":true,"name":"Material Output","outputs":[],"type":"OUTPUT_MATERIAL_BL"}]},"useCastShadows":true}},"name":"Silicone_(White)"},{"extensions":{"S8S_v3d_materials":{"gtaoVisible":true,"materialIndex":0,"nodeGraph":{"edges":[{"fromNode":0,"fromOutput":0,"toInput":0,"toNode":1}],"nodes":[{"inputs":[[0.800000011920929,0.800000011920929,0.800000011920929,1.0],0.0,[1.0,0.20000000298023224,0.10000000149011612],[0.800000011920929,0.800000011920929,0.800000011920929,1.0],1.399999976158142,0.0,0.0,0.0,0.0,1.0,0.0,0.0,0.0,0.5,0.0,0.029999999329447746,1.4500000476837158,0.0,0.0,[0.0,0.0,0.0,1.0],1.0,1.0,[0.0,0.0,0.0],[0.0,0.0,0.0],[0.0,0.0,0.0]],"is_active_output":false,"name":"Principled BSDF","outputs":[[0,0,0,0]],"type":"BSDF_PRINCIPLED_BL"},{"inputs":[[0,0,0,0],[0,0,0,0],[0.0,0.0,0.0],0.0],"is_active_output":true,"name":"Material Output","outputs":[],"type":"OUTPUT_MATERIAL_BL"}]},"useCastShadows":true}},"name":"Silicone_(White).001"},{"extensions":{"S8S_v3d_materials":{"gtaoVisible":true,"materialIndex":0,"nodeGraph":{"edges":[{"fromNode":0,"fromOutput":0,"toInput":0,"toNode":1},{"fromNode":4,"fromOutput":0,"toInput":6,"toNode":2},{"fromNode":3,"fromOutput":0,"toInput":0,"toNode":2},{"fromNode":2,"fromOutput":2,"toInput":0,"toNode":0}],"nodes":[{"inputs":[[0.05087608844041824,0.05087608844041824,0.05087608844041824,1.0],1.0],"is_active_output":false,"name":"Background","outputs":[[0,0,0,0]],"type":"BACKGROUND_BL"},{"inputs":[[0,0,0,0],[0,0,0,0]],"is_active_output":true,"name":"World Output","outputs":[],"type":"OUTPUT_WORLD_BL"},{"blendType":"MIX","clampFactor":true,"clampResult":false,"dataType":"RGBA","factorMode":"UNIFORM","inputs":[0.5,[0.5,0.5,0.5],0.0,0.0,[0.0,0.0,0.0],[0.0,0.0,0.0],[0.5,0.5,0.5,1.0],[0.05126946419477463,0.05126946419477463,0.05126946419477463,1.0]],"is_active_output":false,"name":"Mix","outputs":[0.0,[0.0,0.0,0.0],[0.0,0.0,0.0,0.0]],"type":"MIX_BL"},{"inputs":[],"is_active_output":false,"name":"Light Path","outputs":[0.0,0.0,0.0,0.0,0.0,0.0,0.0,0.0,0.0,0.0,0.0,0.0,0.0],"type":"LIGHT_PATH_BL"},{"inputs":[[0.0,0.0,0.0]],"is_active_output":false,"name":"Environment Texture","outputs":[[0.0,0.0,0.0,0.0]],"projection":"EQUIRECTANGULAR","texture":0,"type":"TEX_ENVIRONMENT_BL"}]},"useCastShadows":true}},"name":"Verge3D_Environment_World"}],"meshes":[{"extensions":{"S8S_v3d_mesh":{"colorLayers":{},"uvLayers":{"UVMap":"TEXCOORD_0"}}},"name":"Φ110-500ml v6本体","primitives":[{"attributes":{"NORMAL":2,"POSITION":1,"TEXCOORD_0":3},"indices":0,"material":1,"mode":4}]},{"extensions":{"S8S_v3d_mesh":{"colorLayers":{},"uvLayers":{"UVMap":"TEXCOORD_0"}}},"name":"Φ110-500ml v7蓋","primitives":[{"attributes":{"NORMAL":6,"POSITION":5,"TEXCOORD_0":7},"indices":4,"material":0,"mode":4}]},{"extensions":{"S8S_v3d_mesh":{"colorLayers":{},"uvLayers":{"UVMap":"TEXCOORD_0"}}},"name":"Φ110-500ml v8","primitives":[{"attributes":{"NORMAL":10,"POSITION":9,"TEXCOORD_0":11},"indices":8,"material":3,"mode":4}]},{"extensions":{"S8S_v3d_mesh":{"colorLayers":{},"uvLayers":{"UVMap":"TEXCOORD_0"}}},"name":"Φ110-500ml v9エアー","primitives":[{"attributes":{"NORMAL":14,"POSITION":13,"TEXCOORD_0":15},"indices":12,"material":2,"mode":4}]}],"nodes":[{"extensions":{"S8S_v3d_node":{"frustumCulling":true,"groupNames":[],"hidden":false,"hidpiCompositing":false,"objectColor":[1.0,1.0,1.0,1.0],"objectIndex":0,"renderOrder":0,"useShadows":true}},"mesh":0,"name":"Φ110-500ml v6本体","rotation":[0.0,0.7071067094802856,-0.0,0.7071068286895752],"scale":[0.009999999776482582,0.009999999776482582,0.009999999776482582]},{"extensions":{"S8S_v3d_node":{"frustumCulling":true,"groupNames":[],"hidden":false,"hidpiCompositing":false,"objectColor":[1.0,1.0,1.0,1.0],"objectIndex":0,"renderOrder":0,"useShadows":true}},"mesh":1,"name":"Φ110-500ml v7蓋","rotation":[0.0,0.7071067094802856,-0.0,0.7071068286895752],"scale":[0.009999999776482582,0.009999999776482582,0.009999999776482582]},{"extensions":{"S8S_v3d_node":{"frustumCulling":true,"groupNames":[],"hidden":false,"hidpiCompositing":false,"objectColor":[1.0,1.0,1.0,1.0],"objectIndex":0,"renderOrder":0,"useShadows":true}},"mesh":2,"name":"Φ110-500ml v8","rotation":[0.0,0.7071067094802856,-0.0,0.7071068286895752],"scale":[0.009999999776482582,0.009999999776482582,0.009999999776482582]},{"extensions":{"S8S_v3d_node":{"frustumCulling":true,"groupNames":[],"hidden":false,"hidpiCompositing":false,"objectColor":[1.0,1.0,1.0,1.0],"objectIndex":0,"renderOrder":0,"useShadows":true}},"mesh":3,"name":"Φ110-500ml v9エアー","rotation":[0.0,0.7071067094802856,-0.0,0.7071068286895752],"scale":[0.009999999776482582,0.009999999776482582,0.009999999776482582]},{"camera":0,"extensions":{"S8S_v3d_node":{"frustumCulling":true,"groupNames":["Collection 1"],"hidden":false,"hidpiCompositing":false,"objectColor":[0.0,0.0,0.0,0.0],"objectIndex":0,"renderOrder":0}},"name":"Camera","rotation":[-0.20997299253940582,0.3857799470424652,0.09062844514846802,0.8937962055206299],"scale":[1.0,0.9999998807907104,0.9999998807907104],"translation":[7.226052284240723,3.8394811153411865,6.946681022644043]},{"extensions":{"S8S_v3d_lights":{"light":0},"S8S_v3d_node":{"frustumCulling":true,"groupNames":["Collection 1"],"hidden":false,"hidpiCompositing":false,"objectColor":[0.0,0.0,0.0,0.0],"objectIndex":0,"renderOrder":0}},"name":"Lamp","rotation":[-0.28416627645492554,0.7269423007965088,0.34203392267227173,0.5232754945755005],"scale":[1.0,0.9999998807907104,0.9999998807907104],"translation":[-0.010960578918457031,5.903861999511719,-5.702691078186035]}],"samplers":[{}],"scene":0,"scenes":[{"extensions":{"S8S_v3d_scene":{"aaMethod":"AUTO","iblEnvironmentMode":"PMREM","physicallyCorrectLights":true,"pmremMaxTileSize":256,"shadowMap":{"esmDistanceScale":1.0,"renderReverseSided":false,"renderSingleSided":true,"type":"PCFPOISSON"},"worldMaterial":4}},"extras":{"animFrameRate":24,"coordSystem":"Z_UP_RIGHT"},"name":"Scene","nodes":[0,1,3,2,5,4]}],"textures":[{"extensions":{"S8S_v3d_texture":{"colorSpace":"linear","source":0}},"name":"environment.hdr","sampler":0}]}
