{"accessors":[{"bufferView":0,"componentType":5123,"count":17412,"max":[17206],"min":[0],"type":"SCALAR"},{"bufferView":1,"componentType":5126,"count":17207,"max":[35.0,113.0,35.0],"min":[-35.0,0.0,-35.0],"type":"VEC3"},{"bufferView":2,"componentType":5126,"count":17207,"max":[1.0,1.0,1.0],"min":[-1.0,-1.0,-1.0],"type":"VEC3"},{"bufferView":3,"componentType":5126,"count":17207,"max":[11.279999732971191,4.480000019073486],"min":[-11.279999732971191,-10.279999732971191],"type":"VEC2"},{"bufferView":4,"componentType":5123,"count":7068,"max":[6614],"min":[0],"type":"SCALAR"},{"bufferView":5,"componentType":5126,"count":6615,"max":[37.9995231628418,117.5,37.9995231628418],"min":[-37.9995231628418,110.0,-37.9995231628418],"type":"VEC3"},{"bufferView":6,"componentType":5126,"count":6615,"max":[1.0,1.0,1.0],"min":[-1.0,-1.0,-1.0],"type":"VEC3"},{"bufferView":7,"componentType":5126,"count":6615,"max":[7.300000190734863,7.849999904632568],"min":[-6.800000190734863,-5.420000076293945],"type":"VEC2"},{"bufferView":8,"componentType":5123,"count":5292,"max":[5205],"min":[0],"type":"SCALAR"},{"bufferView":9,"componentType":5126,"count":5206,"max":[2.6261520385742188,2.2873764038085938,14.99999713897705],"min":[-4.095050811767578,-19.934524536132812,-15.00000286102295],"type":"VEC3"},{"bufferView":10,"componentType":5126,"count":5206,"max":[1.0,1.0,1.0],"min":[-0.9992184042930603,-0.9998817443847656,-1.0],"type":"VEC3"},{"bufferView":11,"componentType":5126,"count":5206,"max":[1.4800000190734863,2.4800000190734863],"min":[-1.4800000190734863,-1.855215072631836],"type":"VEC2"},{"bufferView":12,"componentType":5123,"count":5292,"max":[5202],"min":[0],"type":"SCALAR"},{"bufferView":13,"componentType":5126,"count":5203,"max":[3.988248825073242,2.242656707763672,15.000001907348633],"min":[-2.7329540252685547,-19.979244232177734,-14.999998092651367],"type":"VEC3"},{"bufferView":14,"componentType":5126,"count":5203,"max":[0.9992185235023499,1.0,1.0],"min":[-1.0,-0.9998814463615417,-1.0],"type":"VEC3"},{"bufferView":15,"componentType":5126,"count":5203,"max":[1.4800000190734863,3.855215072631836],"min":[-1.4800000190734863,-0.48000001907348633],"type":"VEC2"},{"bufferView":16,"componentType":5123,"count":4704,"max":[4558],"min":[0],"type":"SCALAR"},{"bufferView":17,"componentType":5126,"count":4559,"max":[35.0,114.0,35.0],"min":[-35.0,113.0,-35.0],"type":"VEC3"},{"bufferView":18,"componentType":5126,"count":4559,"max":[1.0,1.0,1.0],"min":[-1.0,-1.0,-1.0],"type":"VEC3"},{"bufferView":19,"componentType":5126,"count":4559,"max":[6.980000019073486,4.199999809265137],"min":[-6.78000020980835,-5.679999828338623],"type":"VEC2"},{"bufferView":20,"componentType":5126,"count":78,"max":[4.166666507720947],"min":[0.0],"type":"SCALAR"},{"bufferView":21,"componentType":5126,"count":78,"max":[2.52058317438481e-16,0.7890028953552246,0.36767566204071045],"min":[2.52058317438481e-16,0.595149040222168,0.36767566204071045],"type":"VEC3"},{"bufferView":22,"componentType":5126,"count":20,"max":[4.166666507720947],"min":[0.0],"type":"SCALAR"},{"bufferView":23,"componentType":5126,"count":20,"max":[0.0,0.7071067690849304,2.766717521751616e-09,0.7071068286895752],"min":[-0.03649966046214104,0.7061641216278076,-0.03649965673685074,0.7061641812324524],"type":"VEC4"},{"bufferView":24,"componentType":5126,"count":78,"max":[4.166666507720947],"min":[0.0],"type":"SCALAR"},{"bufferView":25,"componentType":5126,"count":78,"max":[2.5215760558176695e-16,0.7894500494003296,-0.3687436878681183],"min":[2.5215760558176695e-16,0.595596194267273,-0.3687436878681183],"type":"VEC3"},{"bufferView":26,"componentType":5126,"count":20,"max":[4.166666507720947],"min":[0.0],"type":"SCALAR"},{"bufferView":27,"componentType":5126,"count":20,"max":[0.036514122039079666,0.7071067690849304,0.036514125764369965,0.7071068286895752],"min":[0.0,0.7061633467674255,-0.0,0.7061634063720703],"type":"VEC4"},{"bufferView":28,"componentType":5126,"count":78,"max":[4.166666507720947],"min":[0.0],"type":"SCALAR"},{"bufferView":29,"componentType":5126,"count":78,"max":[0.0,-0.3461668789386749,-0.0],"min":[0.0,-0.5400207042694092,-0.0],"type":"VEC3"},{"bufferView":30,"componentType":5126,"count":6,"max":[4.166666507720947],"min":[0.0],"type":"SCALAR"},{"bufferView":31,"componentType":5126,"count":6,"max":[0.0,0.7071067690849304,-0.0,0.7071068286895752],"min":[0.0,0.7071067690849304,-0.0,0.7071068286895752],"type":"VEC4"}],"animations":[{"channels":[{"sampler":0,"target":{"node":1,"path":"translation"}},{"sampler":1,"target":{"node":1,"path":"rotation"}}],"extensions":{"S8S_v3d_animation":{"auto":true,"loop":"REPEAT","offset":0.0,"repeatCount":1.0,"repeatInfinite":true}},"name":"Canister_Type_B_001_2Hooks_Lid.001","samplers":[{"input":20,"interpolation":"LINEAR","output":21},{"input":22,"interpolation":"LINEAR","output":23}]},{"channels":[{"sampler":0,"target":{"node":3,"path":"translation"}},{"sampler":1,"target":{"node":3,"path":"rotation"}}],"extensions":{"S8S_v3d_animation":{"auto":true,"loop":"REPEAT","offset":0.0,"repeatCount":1.0,"repeatInfinite":true}},"name":"Canister_Type_B_001_2Hooks_Lid.002","samplers":[{"input":24,"interpolation":"LINEAR","output":25},{"input":26,"interpolation":"LINEAR","output":27}]},{"channels":[{"sampler":0,"target":{"node":4,"path":"translation"}},{"sampler":1,"target":{"node":4,"path":"rotation"}}],"extensions":{"S8S_v3d_animation":{"auto":true,"loop":"REPEAT","offset":0.0,"repeatCount":1.0,"repeatInfinite":true}},"name":"Canister_Type_B_001_2Hooks_Lid","samplers":[{"input":28,"interpolation":"LINEAR","output":29},{"input":30,"interpolation":"LINEAR","output":31}]}],"asset":{"generator":"Verge3D for Blender","version":"2.0"},"bufferViews":[{"buffer":0,"byteLength":34824,"byteOffset":0,"target":34963},{"buffer":0,"byteLength":206484,"byteOffset":34824,"target":34962},{"buffer":0,"byteLength":206484,"byteOffset":241308,"target":34962},{"buffer":0,"byteLength":137656,"byteOffset":447792,"target":34962},{"buffer":0,"byteLength":14136,"byteOffset":585448,"target":34963},{"buffer":0,"byteLength":79380,"byteOffset":599584,"target":34962},{"buffer":0,"byteLength":79380,"byteOffset":678964,"target":34962},{"buffer":0,"byteLength":52920,"byteOffset":758344,"target":34962},{"buffer":0,"byteLength":10584,"byteOffset":811264,"target":34963},{"buffer":0,"byteLength":62472,"byteOffset":821848,"target":34962},{"buffer":0,"byteLength":62472,"byteOffset":884320,"target":34962},{"buffer":0,"byteLength":41648,"byteOffset":946792,"target":34962},{"buffer":0,"byteLength":10584,"byteOffset":988440,"target":34963},{"buffer":0,"byteLength":62436,"byteOffset":999024,"target":34962},{"buffer":0,"byteLength":62436,"byteOffset":1061460,"target":34962},{"buffer":0,"byteLength":41624,"byteOffset":1123896,"target":34962},{"buffer":0,"byteLength":9408,"byteOffset":1165520,"target":34963},{"buffer":0,"byteLength":54708,"byteOffset":1174928,"target":34962},{"buffer":0,"byteLength":54708,"byteOffset":1229636,"target":34962},{"buffer":0,"byteLength":36472,"byteOffset":1284344,"target":34962},{"buffer":0,"byteLength":312,"byteOffset":1320816},{"buffer":0,"byteLength":936,"byteOffset":1321128},{"buffer":0,"byteLength":80,"byteOffset":1322064},{"buffer":0,"byteLength":320,"byteOffset":1322144},{"buffer":0,"byteLength":312,"byteOffset":1322464},{"buffer":0,"byteLength":936,"byteOffset":1322776},{"buffer":0,"byteLength":80,"byteOffset":1323712},{"buffer":0,"byteLength":320,"byteOffset":1323792},{"buffer":0,"byteLength":312,"byteOffset":1324112},{"buffer":0,"byteLength":936,"byteOffset":1324424},{"buffer":0,"byteLength":24,"byteOffset":1325360},{"buffer":0,"byteLength":96,"byteOffset":1325384}],"buffers":[{"byteLength":1325480,"uri":"my_canister_2hook1.bin"}],"cameras":[{"extensions":{"S8S_v3d_camera":{"controls":"ORBIT","enablePan":true,"moveSpeed":1.0,"orbitMaxDistance":20.0,"orbitMaxPolarAngle":3.1415927410125732,"orbitMaxZoom":100.0,"orbitMinDistance":3.0,"orbitMinPolarAngle":0.0,"orbitMinZoom":0.009999999776482582,"orbitTarget":[0.0,0.0,-0.0],"rotateSpeed":1.0,"viewportFitInitialAspect":1.7777777777777777,"viewportFitType":"AUTO"}},"name":"Camera","perspective":{"aspectRatio":1.7777777777777777,"yfov":0.5033799372418416,"zfar":100.0,"znear":0.10000000149011612},"type":"perspective"}],"extensions":{"S8S_v3d_lights":{"lights":[{"color":[1.0,1.0,1.0],"decay":2,"distance":1e-08,"intensity":0.0,"name":"Lamp","profile":"blender","shadow":{"bias":-0.0018,"cameraFar":1e-08,"cameraFov":0,"cameraNear":1.0007989406585693,"enabled":true,"expBias":2.5,"mapSize":512,"radius":1.0,"slopeScaledBias":2.5},"type":"point"}]}},"extensionsUsed":["S8S_v3d_texture","S8S_v3d_materials","S8S_v3d_camera","S8S_v3d_lights","S8S_v3d_mesh","S8S_v3d_node","S8S_v3d_animation","S8S_v3d_scene"],"images":[{"uri":"スクリーンショット 2024-03-01 235445.png"}],"materials":[{"alphaMode":"BLEND","doubleSided":false,"extensions":{"S8S_v3d_materials":{"depthWrite":false,"gtaoVisible":false,"materialIndex":0,"nodeGraph":{"edges":[{"fromNode":4,"fromOutput":0,"toInput":1,"toNode":2},{"fromNode":2,"fromOutput":0,"toInput":0,"toNode":0},{"fromNode":1,"fromOutput":0,"toInput":0,"toNode":2},{"fromNode":3,"fromOutput":0,"toInput":2,"toNode":2}],"nodes":[{"inputs":[[0,0,0,0],[0,0,0,0],[0.0,0.0,0.0],0.0],"is_active_output":true,"name":"Material Output","outputs":[],"type":"OUTPUT_MATERIAL_BL"},{"inputs":[1.4500000476837158,[0.0,0.0,0.0]],"is_active_output":false,"name":"Fresnel","outputs":[0.0],"type":"FRESNEL_BL"},{"inputs":[0.5,[0,0,0,0],[0,0,0,0]],"is_active_output":false,"name":"Mix Shader","outputs":[[0,0,0,0]],"type":"MIX_SHADER_BL"},{"inputs":[[0.800000011920929,0.800000011920929,0.800000011920929,1.0],0.0,[0.0,0.0,0.0]],"is_active_output":false,"name":"Glossy BSDF","outputs":[[0,0,0,0]],"type":"BSDF_GLOSSY_BL"},{"inputs":[[1.0,1.0,1.0,1.0]],"is_active_output":false,"name":"Transparent BSDF","outputs":[[0,0,0,0]],"type":"BSDF_TRANSPARENT_BL"}]},"renderSide":"FRONT","useCastShadows":true}},"name":"glass_outer"},{"extensions":{"S8S_v3d_materials":{"gtaoVisible":true,"materialIndex":0,"nodeGraph":{"edges":[{"fromNode":0,"fromOutput":0,"toInput":0,"toNode":1}],"nodes":[{"inputs":[[0.06680679321289062,0.06680679321289062,0.06680679321289062,1.0],0.0,[1.0,0.20000000298023224,0.10000000149011612],[0.800000011920929,0.800000011920929,0.800000011920929,1.0],1.399999976158142,0.0,0.0,0.5,0.0,0.5,0.0,0.0,0.0,0.5,0.0,0.029999999329447746,1.4500000476837158,0.0,0.0,[0.0,0.0,0.0,1.0],1.0,1.0,[0.0,0.0,0.0],[0.0,0.0,0.0],[0.0,0.0,0.0]],"is_active_output":false,"name":"Principled BSDF","outputs":[[0,0,0,0]],"type":"BSDF_PRINCIPLED_BL"},{"inputs":[[0,0,0,0],[0,0,0,0],[0.0,0.0,0.0],0.0],"is_active_output":true,"name":"Material Output","outputs":[],"type":"OUTPUT_MATERIAL_BL"}]},"useCastShadows":true}},"name":"Material"},{"extensions":{"S8S_v3d_materials":{"gtaoVisible":true,"materialIndex":0,"nodeGraph":{"edges":[{"fromNode":0,"fromOutput":0,"toInput":0,"toNode":1}],"nodes":[{"inputs":[[0.2738310694694519,0.2738310694694519,0.2738310694694519,1.0],0.0,[1.0,0.20000000298023224,0.10000000149011612],[0.800000011920929,0.800000011920929,0.800000011920929,1.0],1.399999976158142,0.0,0.0,0.0,0.0,1.0,0.0,0.0,0.0,0.5,0.0,0.029999999329447746,1.4500000476837158,0.0,0.0,[0.0,0.0,0.0,1.0],1.0,1.0,[0.0,0.0,0.0],[0.0,0.0,0.0],[0.0,0.0,0.0]],"is_active_output":false,"name":"Principled BSDF","outputs":[[0,0,0,0]],"type":"BSDF_PRINCIPLED_BL"},{"inputs":[[0,0,0,0],[0,0,0,0],[0.0,0.0,0.0],0.0],"is_active_output":true,"name":"Material Output","outputs":[],"type":"OUTPUT_MATERIAL_BL"}]},"useCastShadows":true}},"name":"Steel_-_Satin"},{"extensions":{"S8S_v3d_materials":{"gtaoVisible":true,"materialIndex":0,"nodeGraph":{"edges":[{"fromNode":1,"fromOutput":0,"toInput":0,"toNode":0},{"fromNode":2,"fromOutput":0,"toInput":0,"toNode":1}],"nodes":[{"inputs":[[0,0,0,0],[0,0,0,0]],"is_active_output":true,"name":"World Output","outputs":[],"type":"OUTPUT_WORLD_BL"},{"inputs":[[0.05087608844041824,0.05087608844041824,0.05087608844041824,1.0],0.5000001192092896],"is_active_output":false,"name":"Background","outputs":[[0,0,0,0]],"type":"BACKGROUND_BL"},{"inputs":[[0.0,0.0,0.0]],"is_active_output":false,"name":"Environment Texture","outputs":[[0.0,0.0,0.0,0.0]],"projection":"EQUIRECTANGULAR","texture":0,"type":"TEX_ENVIRONMENT_BL"}]},"useCastShadows":true}},"name":"Verge3D_Environment_World.001"}],"meshes":[{"extensions":{"S8S_v3d_mesh":{"colorLayers":{},"uvLayers":{"UVMap":"TEXCOORD_0"}}},"name":"Canister_Type_B_001_2Hooks_container","primitives":[{"attributes":{"NORMAL":2,"POSITION":1,"TEXCOORD_0":3},"indices":0,"material":0,"mode":4}]},{"extensions":{"S8S_v3d_mesh":{"colorLayers":{},"uvLayers":{"UVMap":"TEXCOORD_0"}}},"name":"Canister_Type_B_001_2Hooks_Lid","primitives":[{"attributes":{"NORMAL":6,"POSITION":5,"TEXCOORD_0":7},"indices":4,"material":1,"mode":4}]},{"extensions":{"S8S_v3d_mesh":{"colorLayers":{},"uvLayers":{"UVMap":"TEXCOORD_0"}}},"name":"Canister_Type_B_001_2Hooks_Lid.001","primitives":[{"attributes":{"NORMAL":10,"POSITION":9,"TEXCOORD_0":11},"indices":8,"material":1,"mode":4}]},{"extensions":{"S8S_v3d_mesh":{"colorLayers":{},"uvLayers":{"UVMap":"TEXCOORD_0"}}},"name":"Canister_Type_B_001_2Hooks_Lid.002","primitives":[{"attributes":{"NORMAL":14,"POSITION":13,"TEXCOORD_0":15},"indices":12,"material":1,"mode":4}]},{"extensions":{"S8S_v3d_mesh":{"colorLayers":{},"uvLayers":{"UVMap":"TEXCOORD_0"}}},"name":"Canister_Type_B_001_2Hooks_Seal","primitives":[{"attributes":{"NORMAL":18,"POSITION":17,"TEXCOORD_0":19},"indices":16,"material":2,"mode":4}]}],"nodes":[{"extensions":{"S8S_v3d_node":{"frustumCulling":true,"groupNames":[],"hidden":false,"hidpiCompositing":false,"objectColor":[1.0,1.0,1.0,1.0],"objectIndex":0,"renderOrder":0,"useShadows":true}},"mesh":0,"name":"Canister_Type_B_001_2Hooks_container","rotation":[0.0,0.7071067094802856,-0.0,0.7071068286895752],"scale":[0.009999999776482582,0.009999999776482582,0.009999999776482582],"translation":[0.0,-0.5400207042694092,-0.0]},{"extensions":{"S8S_v3d_node":{"frustumCulling":true,"groupNames":[],"hidden":false,"hidpiCompositing":false,"objectColor":[1.0,1.0,1.0,1.0],"objectIndex":0,"renderOrder":0,"useShadows":true}},"mesh":2,"name":"Canister_Type_B_001_2Hooks_Lid.001","rotation":[0.0,0.7071067094802856,-0.0,0.7071068286895752],"scale":[0.009999999776482582,0.009999999776482582,0.009999999776482582],"translation":[2.52058317438481e-16,0.595149040222168,0.36767566204071045]},{"extensions":{"S8S_v3d_lights":{"light":0},"S8S_v3d_node":{"frustumCulling":true,"groupNames":["Collection 1"],"hidden":false,"hidpiCompositing":false,"objectColor":[0.0,0.0,0.0,0.0],"objectIndex":0,"renderOrder":0}},"name":"Lamp","rotation":[-0.28416627645492554,0.7269423007965088,0.34203392267227173,0.5232754945755005],"scale":[1.0,0.9999998807907104,0.9999998807907104],"translation":[-10.631515502929688,-5.114333152770996,-9.369147300720215]},{"extensions":{"S8S_v3d_node":{"frustumCulling":true,"groupNames":[],"hidden":false,"hidpiCompositing":false,"objectColor":[1.0,1.0,1.0,1.0],"objectIndex":0,"renderOrder":0,"useShadows":true}},"mesh":3,"name":"Canister_Type_B_001_2Hooks_Lid.002","rotation":[0.0,0.7071067094802856,-0.0,0.7071068286895752],"scale":[0.009999999776482582,0.009999999776482582,0.009999999776482582],"translation":[2.5215760558176695e-16,0.595596194267273,-0.3687436878681183]},{"extensions":{"S8S_v3d_node":{"frustumCulling":true,"groupNames":[],"hidden":false,"hidpiCompositing":false,"objectColor":[1.0,1.0,1.0,1.0],"objectIndex":0,"renderOrder":0,"useShadows":true}},"mesh":1,"name":"Canister_Type_B_001_2Hooks_Lid","rotation":[0.0,0.7071067094802856,-0.0,0.7071068286895752],"scale":[0.009999999776482582,0.009999999776482582,0.009999999776482582],"translation":[0.0,-0.5400207042694092,-0.0]},{"extensions":{"S8S_v3d_node":{"frustumCulling":true,"groupNames":[],"hidden":false,"hidpiCompositing":false,"objectColor":[1.0,1.0,1.0,1.0],"objectIndex":0,"renderOrder":0,"useShadows":true}},"mesh":4,"name":"Canister_Type_B_001_2Hooks_Seal","rotation":[0.0,0.7071067094802856,-0.0,0.7071068286895752],"scale":[0.009999999776482582,0.009999999776482582,0.009999999776482582],"translation":[0.0,-0.5400207042694092,-0.0]},{"camera":0,"extensions":{"S8S_v3d_node":{"frustumCulling":true,"groupNames":["Collection 1"],"hidden":false,"hidpiCompositing":false,"objectColor":[0.0,0.0,0.0,0.0],"objectIndex":0,"renderOrder":0}},"name":"Camera","rotation":[-0.20997299253940582,0.3857799470424652,0.09062844514846802,0.8937962055206299],"scale":[1.0,0.9999998807907104,0.9999998807907104],"translation":[7.226052284240723,5.80806303024292,6.946681022644043]}],"samplers":[{}],"scene":0,"scenes":[{"extensions":{"S8S_v3d_scene":{"aaMethod":"AUTO","iblEnvironmentMode":"PMREM","physicallyCorrectLights":true,"pmremMaxTileSize":256,"shadowMap":{"esmDistanceScale":1.0,"renderReverseSided":false,"renderSingleSided":true,"type":"PCFPOISSON"},"worldMaterial":3}},"extras":{"animFrameRate":24,"coordSystem":"Z_UP_RIGHT"},"name":"Scene","nodes":[0,4,5,1,3,2,6]}],"textures":[{"extensions":{"S8S_v3d_texture":{"colorSpace":"srgb"}},"name":"スクリーンショット 2024-03-01 235445.png","sampler":0,"source":0}]}
