{"accessors":[{"bufferView":0,"componentType":5123,"count":756,"max":[383],"min":[0],"type":"SCALAR"},{"bufferView":1,"componentType":5126,"count":384,"max":[1.0,1.0,1.0],"min":[-1.0,-1.0,-1.0],"type":"VEC3"},{"bufferView":2,"componentType":5126,"count":384,"max":[0.9951847791671753,1.0,0.9951847791671753],"min":[-0.9951847791671753,-1.0,-0.9951847791671753],"type":"VEC3"},{"bufferView":3,"componentType":5126,"count":384,"max":[1.0,0.9900000095367432],"min":[0.0,0.0],"type":"VEC2"},{"bufferView":4,"componentType":5121,"count":372,"max":[191],"min":[0],"type":"SCALAR"},{"bufferView":5,"componentType":5126,"count":192,"max":[1.0,1.0,1.0],"min":[-1.0,-1.0,-1.0],"type":"VEC3"},{"bufferView":6,"componentType":5126,"count":192,"max":[0.9951847791671753,1.0,0.9951847791671753],"min":[-0.9951847791671753,-1.0,-0.9951847791671753],"type":"VEC3"},{"bufferView":7,"componentType":5126,"count":192,"max":[1.0,0.9900000095367432],"min":[0.0,0.0],"type":"VEC2"},{"bufferView":8,"componentType":5121,"count":372,"max":[191],"min":[0],"type":"SCALAR"},{"bufferView":9,"componentType":5126,"count":192,"max":[1.0,1.0,1.0],"min":[-1.0,-1.0,-1.0],"type":"VEC3"},{"bufferView":10,"componentType":5126,"count":192,"max":[0.9951847791671753,1.0,0.9951847791671753],"min":[-0.9951847791671753,-1.0,-0.9951847791671753],"type":"VEC3"},{"bufferView":11,"componentType":5126,"count":192,"max":[1.0,0.9900000095367432],"min":[0.0,0.0],"type":"VEC2"},{"bufferView":12,"componentType":5123,"count":768,"max":[383],"min":[0],"type":"SCALAR"},{"bufferView":13,"componentType":5126,"count":384,"max":[1.0578478574752808,1.0026068687438965,1.0578478574752808],"min":[-1.0578478574752808,0.8377938270568848,-1.0578478574752808],"type":"VEC3"},{"bufferView":14,"componentType":5126,"count":384,"max":[0.9951847791671753,1.0,0.9951847791671753],"min":[-0.9951847791671753,-1.0,-0.9951847791671753],"type":"VEC3"},{"bufferView":15,"componentType":5126,"count":384,"max":[1.0,0.9900000095367432],"min":[0.0,0.0],"type":"VEC2"},{"bufferView":16,"componentType":5123,"count":768,"max":[383],"min":[0],"type":"SCALAR"},{"bufferView":17,"componentType":5126,"count":384,"max":[1.0578478574752808,1.0026068687438965,1.0578478574752808],"min":[-1.0578478574752808,0.8377938270568848,-1.0578478574752808],"type":"VEC3"},{"bufferView":18,"componentType":5126,"count":384,"max":[0.9951847791671753,1.0,0.9951847791671753],"min":[-0.9951847791671753,-1.0,-0.9951847791671753],"type":"VEC3"},{"bufferView":19,"componentType":5126,"count":384,"max":[1.0,0.9900000095367432],"min":[0.0,0.0],"type":"VEC2"},{"bufferView":20,"componentType":5123,"count":768,"max":[383],"min":[0],"type":"SCALAR"},{"bufferView":21,"componentType":5126,"count":384,"max":[1.0578478574752808,0.13910476863384247,1.0578478574752808],"min":[-1.0578478574752808,-0.1721220761537552,-1.0578478574752808],"type":"VEC3"},{"bufferView":22,"componentType":5126,"count":384,"max":[0.9951847791671753,1.0,0.9951847791671753],"min":[-0.9951847791671753,-1.0,-0.9951847791671753],"type":"VEC3"},{"bufferView":23,"componentType":5126,"count":384,"max":[1.0,0.9900000095367432],"min":[0.0,0.0],"type":"VEC2"},{"bufferView":24,"componentType":5126,"count":42,"max":[4.166666507720947],"min":[0.0],"type":"SCALAR"},{"bufferView":25,"componentType":5126,"count":42,"max":[0.0,1.7278493642807007,-0.0],"min":[0.0,0.9293525218963623,-0.0],"type":"VEC3"},{"bufferView":26,"componentType":5126,"count":38,"max":[4.166666507720947],"min":[0.0],"type":"SCALAR"},{"bufferView":27,"componentType":5126,"count":38,"max":[0.0,0.591594934463501,-0.0],"min":[0.0,0.39470529556274414,-0.0],"type":"VEC3"},{"bufferView":28,"componentType":5126,"count":42,"max":[4.166666507720947],"min":[0.0],"type":"SCALAR"},{"bufferView":29,"componentType":5126,"count":42,"max":[0.0,1.902862310409546,-0.0],"min":[0.0,1.1043654680252075,-0.0],"type":"VEC3"}],"animations":[{"channels":[{"sampler":0,"target":{"node":0,"path":"translation"}}],"extensions":{"S8S_v3d_animation":{"auto":true,"loop":"REPEAT","offset":0.0,"repeatCount":1.0,"repeatInfinite":true}},"name":"Cylinder.002","samplers":[{"input":24,"interpolation":"LINEAR","output":25}]},{"channels":[{"sampler":0,"target":{"node":2,"path":"translation"}}],"extensions":{"S8S_v3d_animation":{"auto":true,"loop":"REPEAT","offset":0.0,"repeatCount":1.0,"repeatInfinite":true}},"name":"Cylinder.005","samplers":[{"input":26,"interpolation":"LINEAR","output":27}]},{"channels":[{"sampler":0,"target":{"node":6,"path":"translation"}}],"extensions":{"S8S_v3d_animation":{"auto":true,"loop":"REPEAT","offset":0.0,"repeatCount":1.0,"repeatInfinite":true}},"name":"Cylinder.001","samplers":[{"input":28,"interpolation":"LINEAR","output":29}]}],"asset":{"generator":"Verge3D for Blender","version":"2.0"},"bufferViews":[{"buffer":0,"byteLength":1512,"byteOffset":0,"target":34963},{"buffer":0,"byteLength":4608,"byteOffset":1512,"target":34962},{"buffer":0,"byteLength":4608,"byteOffset":6120,"target":34962},{"buffer":0,"byteLength":3072,"byteOffset":10728,"target":34962},{"buffer":0,"byteLength":372,"byteOffset":13800,"target":34963},{"buffer":0,"byteLength":2304,"byteOffset":14172,"target":34962},{"buffer":0,"byteLength":2304,"byteOffset":16476,"target":34962},{"buffer":0,"byteLength":1536,"byteOffset":18780,"target":34962},{"buffer":0,"byteLength":372,"byteOffset":20316,"target":34963},{"buffer":0,"byteLength":2304,"byteOffset":20688,"target":34962},{"buffer":0,"byteLength":2304,"byteOffset":22992,"target":34962},{"buffer":0,"byteLength":1536,"byteOffset":25296,"target":34962},{"buffer":0,"byteLength":1536,"byteOffset":26832,"target":34963},{"buffer":0,"byteLength":4608,"byteOffset":28368,"target":34962},{"buffer":0,"byteLength":4608,"byteOffset":32976,"target":34962},{"buffer":0,"byteLength":3072,"byteOffset":37584,"target":34962},{"buffer":0,"byteLength":1536,"byteOffset":40656,"target":34963},{"buffer":0,"byteLength":4608,"byteOffset":42192,"target":34962},{"buffer":0,"byteLength":4608,"byteOffset":46800,"target":34962},{"buffer":0,"byteLength":3072,"byteOffset":51408,"target":34962},{"buffer":0,"byteLength":1536,"byteOffset":54480,"target":34963},{"buffer":0,"byteLength":4608,"byteOffset":56016,"target":34962},{"buffer":0,"byteLength":4608,"byteOffset":60624,"target":34962},{"buffer":0,"byteLength":3072,"byteOffset":65232,"target":34962},{"buffer":0,"byteLength":168,"byteOffset":68304},{"buffer":0,"byteLength":504,"byteOffset":68472},{"buffer":0,"byteLength":152,"byteOffset":68976},{"buffer":0,"byteLength":456,"byteOffset":69128},{"buffer":0,"byteLength":168,"byteOffset":69584},{"buffer":0,"byteLength":504,"byteOffset":69752}],"buffers":[{"byteLength":70256,"uri":"my_magnet_bottle_test1.bin"}],"cameras":[{"extensions":{"S8S_v3d_camera":{"controls":"ORBIT","enablePan":true,"moveSpeed":1.0,"orbitMaxDistance":100.0,"orbitMaxPolarAngle":3.1415927410125732,"orbitMaxZoom":100.0,"orbitMinDistance":0.0,"orbitMinPolarAngle":0.0,"orbitMinZoom":0.009999999776482582,"orbitTarget":[0.0,0.0,-0.0],"rotateSpeed":1.0,"viewportFitInitialAspect":1.7777777777777777,"viewportFitType":"AUTO"}},"name":"Camera","perspective":{"aspectRatio":1.7777777777777777,"yfov":0.5033799372418416,"zfar":100.0,"znear":0.10000000149011612},"type":"perspective"}],"extensions":{"S8S_v3d_lights":{"lights":[{"color":[1.0,1.0,1.0],"decay":2,"distance":10.00000011175871,"intensity":100.0,"name":"Lamp","profile":"blender","shadow":{"bias":-0.0018,"cameraFar":10.00000011175871,"cameraFov":0,"cameraNear":1.0007989406585693,"enabled":true,"expBias":2.5,"mapSize":512,"radius":1.0,"slopeScaledBias":2.5},"type":"point"}]}},"extensionsUsed":["S8S_v3d_texture","S8S_v3d_materials","S8S_v3d_camera","S8S_v3d_lights","S8S_v3d_mesh","S8S_v3d_node","S8S_v3d_animation","S8S_v3d_scene"],"images":[{"uri":"environment.hdr"}],"materials":[{"extensions":{"S8S_v3d_materials":{"gtaoVisible":true,"materialIndex":0,"nodeGraph":{"edges":[{"fromNode":0,"fromOutput":0,"toInput":0,"toNode":1}],"nodes":[{"inputs":[[0.014643879607319832,0.03520143777132034,0.16794893145561218,1.0],0.0,[1.0,0.20000000298023224,0.10000000149011612],[0.800000011920929,0.800000011920929,0.800000011920929,1.0],1.399999976158142,0.0,0.0,0.5,0.0,0.5,0.0,0.0,0.0,0.5,0.0,0.029999999329447746,1.4500000476837158,0.0,0.0,[0.0,0.0,0.0,1.0],1.0,1.0,[0.0,0.0,0.0],[0.0,0.0,0.0],[0.0,0.0,0.0]],"is_active_output":false,"name":"Principled BSDF","outputs":[[0,0,0,0]],"type":"BSDF_PRINCIPLED_BL"},{"inputs":[[0,0,0,0],[0,0,0,0],[0.0,0.0,0.0],0.0],"is_active_output":true,"name":"Material Output","outputs":[],"type":"OUTPUT_MATERIAL_BL"}]},"useCastShadows":true}},"name":"Material"},{"extensions":{"S8S_v3d_materials":{"gtaoVisible":true,"materialIndex":0,"nodeGraph":{"edges":[{"fromNode":0,"fromOutput":0,"toInput":0,"toNode":1}],"nodes":[{"inputs":[[0.447979211807251,0.447979211807251,0.447979211807251,1.0],0.0,[1.0,0.20000000298023224,0.10000000149011612],[0.800000011920929,0.800000011920929,0.800000011920929,1.0],1.399999976158142,0.0,0.0,0.5,0.0,0.5,0.0,0.0,0.0,0.5,0.0,0.029999999329447746,1.4500000476837158,0.0,0.0,[0.0,0.0,0.0,1.0],1.0,1.0,[0.0,0.0,0.0],[0.0,0.0,0.0],[0.0,0.0,0.0]],"is_active_output":false,"name":"Principled BSDF","outputs":[[0,0,0,0]],"type":"BSDF_PRINCIPLED_BL"},{"inputs":[[0,0,0,0],[0,0,0,0],[0.0,0.0,0.0],0.0],"is_active_output":true,"name":"Material Output","outputs":[],"type":"OUTPUT_MATERIAL_BL"}]},"useCastShadows":true}},"name":"Material.001"},{"extensions":{"S8S_v3d_materials":{"gtaoVisible":true,"materialIndex":0,"nodeGraph":{"edges":[{"fromNode":0,"fromOutput":0,"toInput":0,"toNode":1}],"nodes":[{"inputs":[[0.05780261754989624,0.05780261754989624,0.05780261754989624,1.0],0.0,[1.0,0.20000000298023224,0.10000000149011612],[0.800000011920929,0.800000011920929,0.800000011920929,1.0],1.399999976158142,0.0,0.0,0.5,0.0,0.5,0.0,0.0,0.0,0.5,0.0,0.029999999329447746,1.4500000476837158,0.0,0.0,[0.0,0.0,0.0,1.0],1.0,1.0,[0.0,0.0,0.0],[0.0,0.0,0.0],[0.0,0.0,0.0]],"is_active_output":false,"name":"Principled BSDF","outputs":[[0,0,0,0]],"type":"BSDF_PRINCIPLED_BL"},{"inputs":[[0,0,0,0],[0,0,0,0],[0.0,0.0,0.0],0.0],"is_active_output":true,"name":"Material Output","outputs":[],"type":"OUTPUT_MATERIAL_BL"}]},"useCastShadows":true}},"name":"Material.002"},{"extensions":{"S8S_v3d_materials":{"gtaoVisible":true,"materialIndex":0,"nodeGraph":{"edges":[{"fromNode":0,"fromOutput":0,"toInput":0,"toNode":1},{"fromNode":4,"fromOutput":0,"toInput":6,"toNode":2},{"fromNode":3,"fromOutput":0,"toInput":0,"toNode":2},{"fromNode":2,"fromOutput":2,"toInput":0,"toNode":0}],"nodes":[{"inputs":[[0.05087608844041824,0.05087608844041824,0.05087608844041824,1.0],1.0],"is_active_output":false,"name":"Background","outputs":[[0,0,0,0]],"type":"BACKGROUND_BL"},{"inputs":[[0,0,0,0],[0,0,0,0]],"is_active_output":true,"name":"World Output","outputs":[],"type":"OUTPUT_WORLD_BL"},{"blendType":"MIX","clampFactor":true,"clampResult":false,"dataType":"RGBA","factorMode":"UNIFORM","inputs":[0.5,[0.5,0.5,0.5],0.0,0.0,[0.0,0.0,0.0],[0.0,0.0,0.0],[0.5,0.5,0.5,1.0],[0.05126946419477463,0.05126946419477463,0.05126946419477463,1.0]],"is_active_output":false,"name":"Mix","outputs":[0.0,[0.0,0.0,0.0],[0.0,0.0,0.0,0.0]],"type":"MIX_BL"},{"inputs":[],"is_active_output":false,"name":"Light Path","outputs":[0.0,0.0,0.0,0.0,0.0,0.0,0.0,0.0,0.0,0.0,0.0,0.0,0.0],"type":"LIGHT_PATH_BL"},{"inputs":[[0.0,0.0,0.0]],"is_active_output":false,"name":"Environment Texture","outputs":[[0.0,0.0,0.0,0.0]],"projection":"EQUIRECTANGULAR","texture":0,"type":"TEX_ENVIRONMENT_BL"}]},"useCastShadows":true}},"name":"Verge3D_Environment_World"}],"meshes":[{"extensions":{"S8S_v3d_mesh":{"colorLayers":{},"uvLayers":{"UVMap":"TEXCOORD_0"}}},"name":"Cylinder.005","primitives":[{"attributes":{"NORMAL":2,"POSITION":1,"TEXCOORD_0":3},"indices":0,"material":1,"mode":4}]},{"extensions":{"S8S_v3d_mesh":{"colorLayers":{},"uvLayers":{"UVMap":"TEXCOORD_0"}}},"name":"Cylinder.007","primitives":[{"attributes":{"NORMAL":6,"POSITION":5,"TEXCOORD_0":7},"indices":4,"material":2,"mode":4}]},{"extensions":{"S8S_v3d_mesh":{"colorLayers":{},"uvLayers":{"UVMap":"TEXCOORD_0"}}},"name":"Cylinder.008","primitives":[{"attributes":{"NORMAL":10,"POSITION":9,"TEXCOORD_0":11},"indices":8,"material":0,"mode":4}]},{"extensions":{"S8S_v3d_mesh":{"colorLayers":{},"uvLayers":{"UVMap":"TEXCOORD_0"}}},"name":"Cylinder.009","primitives":[{"attributes":{"NORMAL":14,"POSITION":13,"TEXCOORD_0":15},"indices":12,"material":2,"mode":4}]},{"extensions":{"S8S_v3d_mesh":{"colorLayers":{},"uvLayers":{"UVMap":"TEXCOORD_0"}}},"name":"Cylinder.010","primitives":[{"attributes":{"NORMAL":18,"POSITION":17,"TEXCOORD_0":19},"indices":16,"material":2,"mode":4}]},{"extensions":{"S8S_v3d_mesh":{"colorLayers":{},"uvLayers":{"UVMap":"TEXCOORD_0"}}},"name":"Cylinder.011","primitives":[{"attributes":{"NORMAL":22,"POSITION":21,"TEXCOORD_0":23},"indices":20,"material":0,"mode":4}]}],"nodes":[{"extensions":{"S8S_v3d_node":{"frustumCulling":true,"groupNames":[],"hidden":false,"hidpiCompositing":false,"objectColor":[1.0,1.0,1.0,1.0],"objectIndex":0,"renderOrder":0,"useShadows":true}},"mesh":2,"name":"Cylinder.002","scale":[0.9195935130119324,0.09195937216281891,0.9195935130119324],"translation":[0.0,0.9293525218963623,-0.0]},{"extensions":{"S8S_v3d_node":{"frustumCulling":true,"groupNames":[],"hidden":false,"hidpiCompositing":false,"objectColor":[1.0,1.0,1.0,1.0],"objectIndex":0,"renderOrder":0,"useShadows":true}},"mesh":4,"name":"Cylinder.004","translation":[0.0,-0.9132980704307556,-0.0]},{"extensions":{"S8S_v3d_node":{"frustumCulling":true,"groupNames":[],"hidden":false,"hidpiCompositing":false,"objectColor":[1.0,1.0,1.0,1.0],"objectIndex":0,"renderOrder":0,"useShadows":true}},"mesh":5,"name":"Cylinder.005","scale":[1.0,1.7074718475341797,1.0],"translation":[0.0,0.591594934463501,-0.0]},{"camera":0,"extensions":{"S8S_v3d_node":{"frustumCulling":true,"groupNames":["Collection 1"],"hidden":false,"hidpiCompositing":false,"objectColor":[0.0,0.0,0.0,0.0],"objectIndex":0,"renderOrder":0}},"name":"Camera","rotation":[-0.20997299253940582,0.3857799470424652,0.09062844514846802,0.8937962055206299],"scale":[1.0,0.9999998807907104,0.9999998807907104],"translation":[7.226052284240723,5.1113457679748535,6.946681022644043]},{"extensions":{"S8S_v3d_node":{"frustumCulling":true,"groupNames":[],"hidden":false,"hidpiCompositing":false,"objectColor":[1.0,1.0,1.0,1.0],"objectIndex":0,"renderOrder":0,"useShadows":true}},"mesh":0,"name":"Cylinder","translation":[0.0,0.0002703666687011719,-0.0]},{"extensions":{"S8S_v3d_node":{"frustumCulling":true,"groupNames":[],"hidden":false,"hidpiCompositing":false,"objectColor":[1.0,1.0,1.0,1.0],"objectIndex":0,"renderOrder":0,"useShadows":true}},"mesh":3,"name":"Cylinder.003","translation":[0.0,-0.007605791091918945,-0.0]},{"extensions":{"S8S_v3d_node":{"frustumCulling":true,"groupNames":[],"hidden":false,"hidpiCompositing":false,"objectColor":[1.0,1.0,1.0,1.0],"objectIndex":0,"renderOrder":0,"useShadows":true}},"mesh":1,"name":"Cylinder.001","scale":[1.0,0.10000002384185791,1.0],"translation":[0.0,1.1043654680252075,-0.0]},{"extensions":{"S8S_v3d_lights":{"light":0},"S8S_v3d_node":{"frustumCulling":true,"groupNames":["Collection 1"],"hidden":false,"hidpiCompositing":false,"objectColor":[0.0,0.0,0.0,0.0],"objectIndex":0,"renderOrder":0}},"name":"Lamp","rotation":[-0.28416627645492554,0.7269423007965088,0.34203392267227173,0.5232754945755005],"scale":[1.0,0.9999998807907104,0.9999998807907104],"translation":[4.076245307922363,5.903861999511719,-1.0054539442062378]}],"samplers":[{}],"scene":0,"scenes":[{"extensions":{"S8S_v3d_scene":{"aaMethod":"AUTO","iblEnvironmentMode":"PMREM","physicallyCorrectLights":true,"pmremMaxTileSize":256,"shadowMap":{"esmDistanceScale":1.0,"renderReverseSided":false,"renderSingleSided":true,"type":"PCFPOISSON"},"worldMaterial":3}},"extras":{"animFrameRate":24,"coordSystem":"Z_UP_RIGHT"},"name":"Scene","nodes":[4,6,0,5,1,2,7,3]}],"textures":[{"extensions":{"S8S_v3d_texture":{"colorSpace":"linear","source":0}},"name":"environment.hdr","sampler":0}]}
