{"accessors":[{"bufferView":0,"componentType":5123,"count":29652,"max":[29552],"min":[0],"type":"SCALAR"},{"bufferView":1,"componentType":5126,"count":29553,"max":[348.3897705078125,127.66863250732422,15.0],"min":[189.5442352294922,69.74665069580078,-15.0],"type":"VEC3"},{"bufferView":2,"componentType":5126,"count":29553,"max":[0.9999901652336121,0.9995759725570679,1.0],"min":[-1.0,-0.996196448802948,-1.0],"type":"VEC3"},{"bufferView":3,"componentType":5126,"count":29553,"max":[15.483736991882324,11.49938678741455],"min":[-15.547548294067383,-14.800000190734863],"type":"VEC2"},{"bufferView":4,"componentType":5125,"count":90696,"max":[70283],"min":[0],"type":"SCALAR"},{"bufferView":5,"componentType":5126,"count":70284,"max":[77.09891510009766,23.120397567749023,15.000005722045898],"min":[-40.915470123291016,-59.02767562866211,-15.000001907348633],"type":"VEC3"},{"bufferView":6,"componentType":5126,"count":70284,"max":[0.9988260269165039,0.9999995231628418,1.0],"min":[-0.9988271594047546,-0.9999913573265076,-1.0],"type":"VEC3"},{"bufferView":7,"componentType":5126,"count":70284,"max":[15.483736991882324,11.49938678741455],"min":[-15.547548294067383,-14.800000190734863],"type":"VEC2"},{"bufferView":8,"componentType":5123,"count":3636,"max":[3545],"min":[0],"type":"SCALAR"},{"bufferView":9,"componentType":5126,"count":3546,"max":[189.5442352294922,100.20944213867188,30.0],"min":[134.94851684570312,57.5,-30.0],"type":"VEC3"},{"bufferView":10,"componentType":5126,"count":3546,"max":[1.0,1.0,1.0],"min":[-0.9962026476860046,-1.0,-1.0],"type":"VEC3"},{"bufferView":11,"componentType":5126,"count":3546,"max":[5.400000095367432,44.57001876831055],"min":[-2.9471020698547363,-42.57001876831055],"type":"VEC2"},{"bufferView":12,"componentType":5123,"count":3636,"max":[3544],"min":[0],"type":"SCALAR"},{"bufferView":13,"componentType":5126,"count":3545,"max":[51.33788299560547,35.553489685058594,30.0],"min":[-3.2578353881835938,-7.155952453613281,-30.0],"type":"VEC3"},{"bufferView":14,"componentType":5126,"count":3545,"max":[1.0,1.0,1.0],"min":[-0.9962026476860046,-1.0,-1.0],"type":"VEC3"},{"bufferView":15,"componentType":5126,"count":3545,"max":[5.400000095367432,44.57001876831055],"min":[-2.9471020698547363,-42.57001876831055],"type":"VEC2"},{"bufferView":16,"componentType":5123,"count":3888,"max":[3734],"min":[0],"type":"SCALAR"},{"bufferView":17,"componentType":5126,"count":3735,"max":[138.2318115234375,80.0,137.84527587890625],"min":[-138.2318115234375,1.5,-137.84527587890625],"type":"VEC3"},{"bufferView":18,"componentType":5126,"count":3735,"max":[0.9962368607521057,1.0,0.9954650402069092],"min":[-0.9961963295936584,-1.0,-0.9954650402069092],"type":"VEC3"},{"bufferView":19,"componentType":5126,"count":3735,"max":[21.064184188842773,44.34886169433594],"min":[-10.513087272644043,-42.789363861083984],"type":"VEC2"},{"bufferView":20,"componentType":5123,"count":3876,"max":[3705],"min":[0],"type":"SCALAR"},{"bufferView":21,"componentType":5126,"count":3706,"max":[140.0,80.0,139.60853576660156],"min":[-140.0,0.0,-139.60853576660156],"type":"VEC3"},{"bufferView":22,"componentType":5126,"count":3706,"max":[0.9962368607521057,1.0,0.9954639077186584],"min":[-0.9961954951286316,-1.0,-0.9954639077186584],"type":"VEC3"},{"bufferView":23,"componentType":5126,"count":3706,"max":[10.55109691619873,44.789363861083984],"min":[-10.55109691619873,-43.314334869384766],"type":"VEC2"},{"bufferView":24,"componentType":5123,"count":756,"max":[617],"min":[0],"type":"SCALAR"},{"bufferView":25,"componentType":5126,"count":618,"max":[140.0,80.0,139.60853576660156],"min":[-140.0,77.0,-139.60853576660156],"type":"VEC3"},{"bufferView":26,"componentType":5126,"count":618,"max":[0.9238126277923584,1.0,0.9212287664413452],"min":[-0.9238126277923584,-0.5077677965164185,-0.9212287664413452],"type":"VEC3"},{"bufferView":27,"componentType":5126,"count":618,"max":[28.0,44.704551696777344],"min":[-0.17411600053310394,-42.704551696777344],"type":"VEC2"},{"bufferView":28,"componentType":5123,"count":3888,"max":[3734],"min":[0],"type":"SCALAR"},{"bufferView":29,"componentType":5126,"count":3735,"max":[138.2318115234375,80.0,137.84527587890625],"min":[-138.2318115234375,1.5,-137.84527587890625],"type":"VEC3"},{"bufferView":30,"componentType":5126,"count":3735,"max":[0.9962368607521057,1.0,0.9954650402069092],"min":[-0.9961963295936584,-1.0,-0.9954650402069092],"type":"VEC3"},{"bufferView":31,"componentType":5126,"count":3735,"max":[21.064184188842773,44.34886169433594],"min":[-10.513087272644043,-42.789363861083984],"type":"VEC2"},{"bufferView":32,"componentType":5123,"count":3876,"max":[3705],"min":[0],"type":"SCALAR"},{"bufferView":33,"componentType":5126,"count":3706,"max":[140.0,80.0,139.60853576660156],"min":[-140.0,0.0,-139.60853576660156],"type":"VEC3"},{"bufferView":34,"componentType":5126,"count":3706,"max":[0.9962368607521057,1.0,0.9954639077186584],"min":[-0.9961954951286316,-1.0,-0.9954639077186584],"type":"VEC3"},{"bufferView":35,"componentType":5126,"count":3706,"max":[10.55109691619873,44.789363861083984],"min":[-10.55109691619873,-43.314334869384766],"type":"VEC2"},{"bufferView":36,"componentType":5123,"count":756,"max":[617],"min":[0],"type":"SCALAR"},{"bufferView":37,"componentType":5126,"count":618,"max":[140.0,80.0,139.60853576660156],"min":[-140.0,77.0,-139.60853576660156],"type":"VEC3"},{"bufferView":38,"componentType":5126,"count":618,"max":[0.9238126277923584,1.0,0.9212287664413452],"min":[-0.9238126277923584,-0.5077677965164185,-0.9212287664413452],"type":"VEC3"},{"bufferView":39,"componentType":5126,"count":618,"max":[28.0,44.704551696777344],"min":[-0.17411600053310394,-42.704551696777344],"type":"VEC2"},{"bufferView":40,"componentType":5123,"count":5076,"max":[4700],"min":[0],"type":"SCALAR"},{"bufferView":41,"componentType":5126,"count":4701,"max":[143.0,69.5,28.5],"min":[135.97659301757812,60.5,-28.5],"type":"VEC3"},{"bufferView":42,"componentType":5126,"count":4701,"max":[1.0,1.0,1.0],"min":[-1.0,-1.0,-1.0],"type":"VEC3"},{"bufferView":43,"componentType":5126,"count":4701,"max":[1.43613600730896,42.46193313598633],"min":[-1.43613600730896,-0.13767099380493164],"type":"VEC2"},{"bufferView":44,"componentType":5123,"count":5076,"max":[4698],"min":[0],"type":"SCALAR"},{"bufferView":45,"componentType":5126,"count":4699,"max":[4.7935791015625,4.844024658203125,28.5],"min":[-2.229827880859375,-4.155975341796875,-28.5],"type":"VEC3"},{"bufferView":46,"componentType":5126,"count":4699,"max":[1.0,1.0,1.0],"min":[-1.0,-1.0,-1.0],"type":"VEC3"},{"bufferView":47,"componentType":5126,"count":4699,"max":[1.43613600730896,42.46193313598633],"min":[-1.43613600730896,-0.13767099380493164],"type":"VEC2"}],"asset":{"generator":"Verge3D for Blender","version":"2.0"},"bufferViews":[{"buffer":0,"byteLength":59304,"byteOffset":0,"target":34963},{"buffer":0,"byteLength":354636,"byteOffset":59304,"target":34962},{"buffer":0,"byteLength":354636,"byteOffset":413940,"target":34962},{"buffer":0,"byteLength":236424,"byteOffset":768576,"target":34962},{"buffer":0,"byteLength":362784,"byteOffset":1005000,"target":34963},{"buffer":0,"byteLength":843408,"byteOffset":1367784,"target":34962},{"buffer":0,"byteLength":843408,"byteOffset":2211192,"target":34962},{"buffer":0,"byteLength":562272,"byteOffset":3054600,"target":34962},{"buffer":0,"byteLength":7272,"byteOffset":3616872,"target":34963},{"buffer":0,"byteLength":42552,"byteOffset":3624144,"target":34962},{"buffer":0,"byteLength":42552,"byteOffset":3666696,"target":34962},{"buffer":0,"byteLength":28368,"byteOffset":3709248,"target":34962},{"buffer":0,"byteLength":7272,"byteOffset":3737616,"target":34963},{"buffer":0,"byteLength":42540,"byteOffset":3744888,"target":34962},{"buffer":0,"byteLength":42540,"byteOffset":3787428,"target":34962},{"buffer":0,"byteLength":28360,"byteOffset":3829968,"target":34962},{"buffer":0,"byteLength":7776,"byteOffset":3858328,"target":34963},{"buffer":0,"byteLength":44820,"byteOffset":3866104,"target":34962},{"buffer":0,"byteLength":44820,"byteOffset":3910924,"target":34962},{"buffer":0,"byteLength":29880,"byteOffset":3955744,"target":34962},{"buffer":0,"byteLength":7752,"byteOffset":3985624,"target":34963},{"buffer":0,"byteLength":44472,"byteOffset":3993376,"target":34962},{"buffer":0,"byteLength":44472,"byteOffset":4037848,"target":34962},{"buffer":0,"byteLength":29648,"byteOffset":4082320,"target":34962},{"buffer":0,"byteLength":1512,"byteOffset":4111968,"target":34963},{"buffer":0,"byteLength":7416,"byteOffset":4113480,"target":34962},{"buffer":0,"byteLength":7416,"byteOffset":4120896,"target":34962},{"buffer":0,"byteLength":4944,"byteOffset":4128312,"target":34962},{"buffer":0,"byteLength":7776,"byteOffset":4133256,"target":34963},{"buffer":0,"byteLength":44820,"byteOffset":4141032,"target":34962},{"buffer":0,"byteLength":44820,"byteOffset":4185852,"target":34962},{"buffer":0,"byteLength":29880,"byteOffset":4230672,"target":34962},{"buffer":0,"byteLength":7752,"byteOffset":4260552,"target":34963},{"buffer":0,"byteLength":44472,"byteOffset":4268304,"target":34962},{"buffer":0,"byteLength":44472,"byteOffset":4312776,"target":34962},{"buffer":0,"byteLength":29648,"byteOffset":4357248,"target":34962},{"buffer":0,"byteLength":1512,"byteOffset":4386896,"target":34963},{"buffer":0,"byteLength":7416,"byteOffset":4388408,"target":34962},{"buffer":0,"byteLength":7416,"byteOffset":4395824,"target":34962},{"buffer":0,"byteLength":4944,"byteOffset":4403240,"target":34962},{"buffer":0,"byteLength":10152,"byteOffset":4408184,"target":34963},{"buffer":0,"byteLength":56412,"byteOffset":4418336,"target":34962},{"buffer":0,"byteLength":56412,"byteOffset":4474748,"target":34962},{"buffer":0,"byteLength":37608,"byteOffset":4531160,"target":34962},{"buffer":0,"byteLength":10152,"byteOffset":4568768,"target":34963},{"buffer":0,"byteLength":56388,"byteOffset":4578920,"target":34962},{"buffer":0,"byteLength":56388,"byteOffset":4635308,"target":34962},{"buffer":0,"byteLength":37592,"byteOffset":4691696,"target":34962}],"buffers":[{"byteLength":4729288,"uri":"my_nabe_ikigai_test1.bin"}],"cameras":[{"extensions":{"S8S_v3d_camera":{"controls":"ORBIT","enablePan":true,"moveSpeed":1.0,"orbitMaxDistance":10.0,"orbitMaxPolarAngle":3.1415927410125732,"orbitMaxZoom":100.0,"orbitMinDistance":3.0,"orbitMinPolarAngle":0.0,"orbitMinZoom":0.009999999776482582,"orbitTarget":[0.0,0.0,-0.0],"rotateSpeed":1.0,"viewportFitInitialAspect":1.7777777777777777,"viewportFitType":"AUTO"}},"name":"Camera","perspective":{"aspectRatio":1.7777777777777777,"yfov":0.5033799372418416,"zfar":100.0,"znear":0.10000000149011612},"type":"perspective"}],"extensions":{"S8S_v3d_lights":{"lights":[{"color":[1.0,1.0,1.0],"decay":2,"distance":10.00000011175871,"intensity":100.0,"name":"Lamp","profile":"blender","shadow":{"bias":-0.0018,"cameraFar":10.00000011175871,"cameraFov":0,"cameraNear":1.0007989406585693,"enabled":true,"expBias":2.5,"mapSize":512,"radius":1.0,"slopeScaledBias":2.5},"type":"point"}]}},"extensionsUsed":["S8S_v3d_texture","S8S_v3d_materials","S8S_v3d_camera","S8S_v3d_lights","S8S_v3d_mesh","S8S_v3d_node","S8S_v3d_scene"],"images":[{"uri":"environment.hdr"}],"materials":[{"extensions":{"S8S_v3d_materials":{"gtaoVisible":true,"materialIndex":0,"nodeGraph":{"edges":[{"fromNode":0,"fromOutput":0,"toInput":0,"toNode":1}],"nodes":[{"inputs":[[0.3108135163784027,0.3108135163784027,0.3108135163784027,1.0],0.0,[1.0,0.20000000298023224,0.10000000149011612],[0.0,0.0,0.0,1.0],1.399999976158142,0.0,0.0,0.0,0.0,1.0,0.0,0.0,0.0,0.5,0.0,0.029999999329447746,1.4500000476837158,0.0,0.0,[0.0,0.0,0.0,1.0],1.0,1.0,[0.0,0.0,0.0],[0.0,0.0,0.0],[0.0,0.0,0.0]],"is_active_output":false,"name":"Principled BSDF","outputs":[[0,0,0,0]],"type":"BSDF_PRINCIPLED_BL"},{"inputs":[[0,0,0,0],[0,0,0,0],[0.0,0.0,0.0],0.0],"is_active_output":true,"name":"Material Output","outputs":[],"type":"OUTPUT_MATERIAL_BL"}]},"useCastShadows":true}},"name":"Iron_-_Cast"},{"extensions":{"S8S_v3d_materials":{"gtaoVisible":true,"materialIndex":0,"nodeGraph":{"edges":[{"fromNode":0,"fromOutput":0,"toInput":0,"toNode":1}],"nodes":[{"inputs":[[0.7356579303741455,0.3654692769050598,0.06447267532348633,1.0],0.0,[1.0,0.20000000298023224,0.10000000149011612],[0.800000011920929,0.800000011920929,0.800000011920929,1.0],1.399999976158142,0.0,0.0,0.0,0.0,1.0,0.0,0.0,0.0,0.5,0.0,0.029999999329447746,1.4500000476837158,0.0,0.0,[0.0,0.0,0.0,1.0],1.0,1.0,[0.0,0.0,0.0],[0.0,0.0,0.0],[0.0,0.0,0.0]],"is_active_output":false,"name":"Principled BSDF","outputs":[[0,0,0,0]],"type":"BSDF_PRINCIPLED_BL"},{"inputs":[[0,0,0,0],[0,0,0,0],[0.0,0.0,0.0],0.0],"is_active_output":true,"name":"Material Output","outputs":[],"type":"OUTPUT_MATERIAL_BL"}]},"useCastShadows":true}},"name":"Pine.001"},{"extensions":{"S8S_v3d_materials":{"gtaoVisible":true,"materialIndex":0,"nodeGraph":{"edges":[{"fromNode":0,"fromOutput":0,"toInput":0,"toNode":1}],"nodes":[{"inputs":[[0.800000011920929,0.800000011920929,0.800000011920929,1.0],0.0,[1.0,0.20000000298023224,0.10000000149011612],[0.800000011920929,0.800000011920929,0.800000011920929,1.0],1.399999976158142,0.0,0.0,0.0,0.0,1.0,0.0,0.0,0.0,0.5,0.0,0.029999999329447746,1.4500000476837158,0.0,0.0,[0.0,0.0,0.0,1.0],1.0,1.0,[0.0,0.0,0.0],[0.0,0.0,0.0],[0.0,0.0,0.0]],"is_active_output":false,"name":"Principled BSDF","outputs":[[0,0,0,0]],"type":"BSDF_PRINCIPLED_BL"},{"inputs":[[0,0,0,0],[0,0,0,0],[0.0,0.0,0.0],0.0],"is_active_output":true,"name":"Material Output","outputs":[],"type":"OUTPUT_MATERIAL_BL"}]},"useCastShadows":true}},"name":"Silver_-_Polished"},{"extensions":{"S8S_v3d_materials":{"gtaoVisible":true,"materialIndex":0,"nodeGraph":{"edges":[{"fromNode":0,"fromOutput":0,"toInput":0,"toNode":1}],"nodes":[{"inputs":[[0.800000011920929,0.800000011920929,0.800000011920929,1.0],0.0,[1.0,0.20000000298023224,0.10000000149011612],[0.800000011920929,0.800000011920929,0.800000011920929,1.0],1.399999976158142,0.0,0.0,0.0,0.0,1.0,0.0,0.0,0.0,0.5,0.0,0.029999999329447746,1.4500000476837158,0.0,0.0,[0.0,0.0,0.0,1.0],1.0,1.0,[0.0,0.0,0.0],[0.0,0.0,0.0],[0.0,0.0,0.0]],"is_active_output":false,"name":"Principled BSDF","outputs":[[0,0,0,0]],"type":"BSDF_PRINCIPLED_BL"},{"inputs":[[0,0,0,0],[0,0,0,0],[0.0,0.0,0.0],0.0],"is_active_output":true,"name":"Material Output","outputs":[],"type":"OUTPUT_MATERIAL_BL"}]},"useCastShadows":true}},"name":"Stainless_Steel_-_Satin"},{"extensions":{"S8S_v3d_materials":{"gtaoVisible":true,"materialIndex":0,"nodeGraph":{"edges":[{"fromNode":0,"fromOutput":0,"toInput":0,"toNode":1}],"nodes":[{"inputs":[[0.800000011920929,0.800000011920929,0.800000011920929,1.0],0.0,[1.0,0.20000000298023224,0.10000000149011612],[0.800000011920929,0.800000011920929,0.800000011920929,1.0],1.399999976158142,0.0,0.0,0.0,0.0,1.0,0.0,0.0,0.0,0.5,0.0,0.029999999329447746,1.4500000476837158,0.0,0.0,[0.0,0.0,0.0,1.0],1.0,1.0,[0.0,0.0,0.0],[0.0,0.0,0.0],[0.0,0.0,0.0]],"is_active_output":false,"name":"Principled BSDF","outputs":[[0,0,0,0]],"type":"BSDF_PRINCIPLED_BL"},{"inputs":[[0,0,0,0],[0,0,0,0],[0.0,0.0,0.0],0.0],"is_active_output":true,"name":"Material Output","outputs":[],"type":"OUTPUT_MATERIAL_BL"}]},"useCastShadows":true}},"name":"Stainless_Steel_-_Satin.001"},{"extensions":{"S8S_v3d_materials":{"gtaoVisible":true,"materialIndex":0,"nodeGraph":{"edges":[{"fromNode":0,"fromOutput":0,"toInput":0,"toNode":1}],"nodes":[{"inputs":[[0.800000011920929,0.800000011920929,0.800000011920929,1.0],0.0,[1.0,0.20000000298023224,0.10000000149011612],[0.800000011920929,0.800000011920929,0.800000011920929,1.0],1.399999976158142,0.0,0.0,0.0,0.0,1.0,0.0,0.0,0.0,0.5,0.0,0.029999999329447746,1.4500000476837158,0.0,0.0,[0.0,0.0,0.0,1.0],1.0,1.0,[0.0,0.0,0.0],[0.0,0.0,0.0],[0.0,0.0,0.0]],"is_active_output":false,"name":"Principled BSDF","outputs":[[0,0,0,0]],"type":"BSDF_PRINCIPLED_BL"},{"inputs":[[0,0,0,0],[0,0,0,0],[0.0,0.0,0.0],0.0],"is_active_output":true,"name":"Material Output","outputs":[],"type":"OUTPUT_MATERIAL_BL"}]},"useCastShadows":true}},"name":"Stainless_Steel_-_Satin.002"},{"extensions":{"S8S_v3d_materials":{"gtaoVisible":true,"materialIndex":0,"nodeGraph":{"edges":[{"fromNode":0,"fromOutput":0,"toInput":0,"toNode":1},{"fromNode":4,"fromOutput":0,"toInput":6,"toNode":2},{"fromNode":3,"fromOutput":0,"toInput":0,"toNode":2},{"fromNode":2,"fromOutput":2,"toInput":0,"toNode":0}],"nodes":[{"inputs":[[0.05087608844041824,0.05087608844041824,0.05087608844041824,1.0],1.0],"is_active_output":false,"name":"Background","outputs":[[0,0,0,0]],"type":"BACKGROUND_BL"},{"inputs":[[0,0,0,0],[0,0,0,0]],"is_active_output":true,"name":"World Output","outputs":[],"type":"OUTPUT_WORLD_BL"},{"blendType":"MIX","clampFactor":true,"clampResult":false,"dataType":"RGBA","factorMode":"UNIFORM","inputs":[0.5,[0.5,0.5,0.5],0.0,0.0,[0.0,0.0,0.0],[0.0,0.0,0.0],[0.5,0.5,0.5,1.0],[0.05126946419477463,0.05126946419477463,0.05126946419477463,1.0]],"is_active_output":false,"name":"Mix","outputs":[0.0,[0.0,0.0,0.0],[0.0,0.0,0.0,0.0]],"type":"MIX_BL"},{"inputs":[],"is_active_output":false,"name":"Light Path","outputs":[0.0,0.0,0.0,0.0,0.0,0.0,0.0,0.0,0.0,0.0,0.0,0.0,0.0],"type":"LIGHT_PATH_BL"},{"inputs":[[0.0,0.0,0.0]],"is_active_output":false,"name":"Environment Texture","outputs":[[0.0,0.0,0.0,0.0]],"projection":"EQUIRECTANGULAR","texture":0,"type":"TEX_ENVIRONMENT_BL"}]},"useCastShadows":true}},"name":"Verge3D_Environment_World"}],"meshes":[{"extensions":{"S8S_v3d_mesh":{"colorLayers":{},"uvLayers":{"UVMap":"TEXCOORD_0"}}},"name":"FryingPan_Ikigai_handle.001","primitives":[{"attributes":{"NORMAL":2,"POSITION":1,"TEXCOORD_0":3},"indices":0,"material":1,"mode":4}]},{"extensions":{"S8S_v3d_mesh":{"colorLayers":{},"uvLayers":{"UVMap":"TEXCOORD_0"}}},"name":"FryingPan_Ikigai_handle.002","primitives":[{"attributes":{"NORMAL":6,"POSITION":5,"TEXCOORD_0":7},"indices":4,"material":1,"mode":4}]},{"extensions":{"S8S_v3d_mesh":{"colorLayers":{},"uvLayers":{"UVMap":"TEXCOORD_0"}}},"name":"FryingPan_Ikigai_HandleSteel","primitives":[{"attributes":{"NORMAL":10,"POSITION":9,"TEXCOORD_0":11},"indices":8,"material":3,"mode":4}]},{"extensions":{"S8S_v3d_mesh":{"colorLayers":{},"uvLayers":{"UVMap":"TEXCOORD_0"}}},"name":"FryingPan_Ikigai_HandleSteel.001","primitives":[{"attributes":{"NORMAL":14,"POSITION":13,"TEXCOORD_0":15},"indices":12,"material":3,"mode":4}]},{"extensions":{"S8S_v3d_mesh":{"colorLayers":{},"uvLayers":{"UVMap":"TEXCOORD_0"}}},"name":"FryingPan_Ikigai_Pan","primitives":[{"attributes":{"NORMAL":18,"POSITION":17,"TEXCOORD_0":19},"indices":16,"material":0,"mode":4},{"attributes":{"NORMAL":22,"POSITION":21,"TEXCOORD_0":23},"indices":20,"material":2,"mode":4},{"attributes":{"NORMAL":26,"POSITION":25,"TEXCOORD_0":27},"indices":24,"material":4,"mode":4}]},{"extensions":{"S8S_v3d_mesh":{"colorLayers":{},"uvLayers":{"UVMap":"TEXCOORD_0"}}},"name":"FryingPan_Ikigai_Pan.001","primitives":[{"attributes":{"NORMAL":30,"POSITION":29,"TEXCOORD_0":31},"indices":28,"material":0,"mode":4},{"attributes":{"NORMAL":34,"POSITION":33,"TEXCOORD_0":35},"indices":32,"material":2,"mode":4},{"attributes":{"NORMAL":38,"POSITION":37,"TEXCOORD_0":39},"indices":36,"material":4,"mode":4}]},{"extensions":{"S8S_v3d_mesh":{"colorLayers":{},"uvLayers":{"UVMap":"TEXCOORD_0"}}},"name":"FryingPan_Ikigai_Rivets","primitives":[{"attributes":{"NORMAL":42,"POSITION":41,"TEXCOORD_0":43},"indices":40,"material":5,"mode":4}]},{"extensions":{"S8S_v3d_mesh":{"colorLayers":{},"uvLayers":{"UVMap":"TEXCOORD_0"}}},"name":"FryingPan_Ikigai_Rivets.001","primitives":[{"attributes":{"NORMAL":46,"POSITION":45,"TEXCOORD_0":47},"indices":44,"material":5,"mode":4}]}],"nodes":[{"extensions":{"S8S_v3d_node":{"frustumCulling":true,"groupNames":[],"hidden":false,"hidpiCompositing":false,"objectColor":[1.0,1.0,1.0,1.0],"objectIndex":0,"renderOrder":0,"useShadows":true}},"mesh":0,"name":"FryingPan_Ikigai_handle","rotation":[0.0,0.7071067094802856,-0.0,0.7071068286895752],"scale":[0.009999999776482582,0.009999999776482582,0.009999999776482582],"translation":[0.0,0.0,0.0013208389282226562]},{"extensions":{"S8S_v3d_node":{"frustumCulling":true,"groupNames":[],"hidden":false,"hidpiCompositing":false,"objectColor":[1.0,1.0,1.0,1.0],"objectIndex":0,"renderOrder":0,"useShadows":true}},"mesh":2,"name":"FryingPan_Ikigai_HandleSteel","rotation":[0.0,0.7071067094802856,-0.0,0.7071068286895752],"scale":[0.009999999776482582,0.009999999776482582,0.009999999776482582],"translation":[0.0,0.0,0.0013208389282226562]},{"extensions":{"S8S_v3d_node":{"frustumCulling":true,"groupNames":[],"hidden":false,"hidpiCompositing":false,"objectColor":[1.0,1.0,1.0,1.0],"objectIndex":0,"renderOrder":0,"useShadows":true}},"mesh":4,"name":"FryingPan_Ikigai_Pan","rotation":[0.0,0.7071067094802856,-0.0,0.7071068286895752],"scale":[0.009999999776482582,0.009999999776482582,0.009999999776482582],"translation":[0.0,0.0,0.0013208389282226562]},{"extensions":{"S8S_v3d_node":{"frustumCulling":true,"groupNames":[],"hidden":false,"hidpiCompositing":false,"objectColor":[1.0,1.0,1.0,1.0],"objectIndex":0,"renderOrder":0,"useShadows":true}},"mesh":1,"name":"FryingPan_Ikigai_handle.001","rotation":[0.12278782576322556,0.6963642835617065,0.12278781086206436,0.6963642835617065],"scale":[0.009999998845160007,0.009999998845160007,0.009999999776482582],"translation":[-4.0,1.3116382360458374,-2.1586194038391113]},{"extensions":{"S8S_v3d_node":{"frustumCulling":true,"groupNames":[],"hidden":false,"hidpiCompositing":false,"objectColor":[1.0,1.0,1.0,1.0],"objectIndex":0,"renderOrder":0,"useShadows":true}},"mesh":6,"name":"FryingPan_Ikigai_Rivets","rotation":[0.0,0.7071067094802856,-0.0,0.7071068286895752],"scale":[0.009999999776482582,0.009999999776482582,0.009999999776482582],"translation":[0.0,0.0,0.0013208389282226562]},{"extensions":{"S8S_v3d_node":{"frustumCulling":true,"groupNames":[],"hidden":false,"hidpiCompositing":false,"objectColor":[1.0,1.0,1.0,1.0],"objectIndex":0,"renderOrder":0,"useShadows":true}},"mesh":3,"name":"FryingPan_Ikigai_HandleSteel.001","rotation":[0.12278782576322556,0.6963642835617065,0.12278781086206436,0.6963642835617065],"scale":[0.009999998845160007,0.009999998845160007,0.009999999776482582],"translation":[-4.0,0.7206858396530151,-1.3883073329925537]},{"extensions":{"S8S_v3d_node":{"frustumCulling":true,"groupNames":[],"hidden":false,"hidpiCompositing":false,"objectColor":[1.0,1.0,1.0,1.0],"objectIndex":0,"renderOrder":0,"useShadows":true}},"mesh":5,"name":"FryingPan_Ikigai_Pan.001","rotation":[0.0,0.7071067094802856,-0.0,0.7071068286895752],"scale":[0.009999999776482582,0.009999999776482582,0.009999999776482582],"translation":[-4.0,0.0,-0.0]},{"extensions":{"S8S_v3d_lights":{"light":0},"S8S_v3d_node":{"frustumCulling":true,"groupNames":["Collection 1"],"hidden":false,"hidpiCompositing":false,"objectColor":[0.0,0.0,0.0,0.0],"objectIndex":0,"renderOrder":0}},"name":"Lamp","rotation":[-0.28416627645492554,0.7269423007965088,0.34203392267227173,0.5232754945755005],"scale":[1.0,0.9999998807907104,0.9999998807907104],"translation":[4.076245307922363,5.903861999511719,-1.0054539442062378]},{"camera":0,"extensions":{"S8S_v3d_node":{"frustumCulling":true,"groupNames":["Collection 1"],"hidden":false,"hidpiCompositing":false,"objectColor":[0.0,0.0,0.0,0.0],"objectIndex":0,"renderOrder":0}},"name":"Camera","rotation":[-0.20997299253940582,0.3857799470424652,0.09062844514846802,0.8937962055206299],"scale":[1.0,0.9999998807907104,0.9999998807907104],"translation":[7.226052284240723,5.1113457679748535,6.946681022644043]},{"extensions":{"S8S_v3d_node":{"frustumCulling":true,"groupNames":[],"hidden":false,"hidpiCompositing":false,"objectColor":[1.0,1.0,1.0,1.0],"objectIndex":0,"renderOrder":0,"useShadows":true}},"mesh":7,"name":"FryingPan_Ikigai_Rivets.001","rotation":[0.12278782576322556,0.6963642835617065,0.12278781086206436,0.6963642835617065],"scale":[0.009999998845160007,0.009999998845160007,0.009999999776482582],"translation":[-4.0,0.7206861972808838,-1.388307809829712]}],"samplers":[{}],"scene":0,"scenes":[{"extensions":{"S8S_v3d_scene":{"aaMethod":"AUTO","iblEnvironmentMode":"PMREM","physicallyCorrectLights":true,"pmremMaxTileSize":256,"shadowMap":{"esmDistanceScale":1.0,"renderReverseSided":false,"renderSingleSided":true,"type":"PCFPOISSON"},"worldMaterial":6}},"extras":{"animFrameRate":24,"coordSystem":"Z_UP_RIGHT"},"name":"Scene","nodes":[0,1,2,4,3,5,6,9,7,8]}],"textures":[{"extensions":{"S8S_v3d_texture":{"colorSpace":"linear","source":0}},"name":"environment.hdr","sampler":0}]}
