{"accessors":[{"bufferView":0,"componentType":5123,"count":17412,"max":[17206],"min":[0],"type":"SCALAR"},{"bufferView":1,"componentType":5126,"count":17207,"max":[35.0,113.0,35.0],"min":[-35.0,0.0,-35.0],"type":"VEC3"},{"bufferView":2,"componentType":5126,"count":17207,"max":[1.0,1.0,1.0],"min":[-1.0,-1.0,-1.0],"type":"VEC3"},{"bufferView":3,"componentType":5126,"count":17207,"max":[11.279999732971191,4.480000019073486],"min":[-11.279999732971191,-10.279999732971191],"type":"VEC2"},{"bufferView":4,"componentType":5123,"count":4704,"max":[4558],"min":[0],"type":"SCALAR"},{"bufferView":5,"componentType":5126,"count":4559,"max":[35.0,114.0,35.0],"min":[-35.0,113.0,-35.0],"type":"VEC3"},{"bufferView":6,"componentType":5126,"count":4559,"max":[1.0,1.0,1.0],"min":[-1.0,-1.0,-1.0],"type":"VEC3"},{"bufferView":7,"componentType":5126,"count":4559,"max":[6.980000019073486,4.199999809265137],"min":[-6.78000020980835,-5.679999828338623],"type":"VEC2"},{"bufferView":8,"componentType":5123,"count":5526,"max":[5435],"min":[0],"type":"SCALAR"},{"bufferView":9,"componentType":5126,"count":5436,"max":[1.221099853515625,2.3632583618164062,15.00000286102295],"min":[-2.5891456604003906,-15.782081604003906,-14.99999713897705],"type":"VEC3"},{"bufferView":10,"componentType":5126,"count":5436,"max":[0.9999006390571594,1.0,1.0],"min":[-1.0,-0.998927891254425,-1.0],"type":"VEC3"},{"bufferView":11,"componentType":5126,"count":5436,"max":[2.5007059574127197,3.452709913253784],"min":[-1.4800000190734863,-0.5],"type":"VEC2"},{"bufferView":12,"componentType":5123,"count":5526,"max":[5432],"min":[0],"type":"SCALAR"},{"bufferView":13,"componentType":5126,"count":5433,"max":[2.6067543029785156,2.1340675354003906,14.99999713897705],"min":[-1.2034912109375,-16.011272430419922,-15.00000286102295],"type":"VEC3"},{"bufferView":14,"componentType":5126,"count":5433,"max":[1.0,1.0,1.0],"min":[-0.9999006390571594,-0.9989292621612549,-1.0],"type":"VEC3"},{"bufferView":15,"componentType":5126,"count":5433,"max":[1.4800000190734863,2.5],"min":[-2.5007059574127197,-1.4527099132537842],"type":"VEC2"},{"bufferView":16,"componentType":5123,"count":7044,"max":[6648],"min":[0],"type":"SCALAR"},{"bufferView":17,"componentType":5126,"count":6649,"max":[37.9995231628418,117.5,37.9995231628418],"min":[-37.9995231628418,110.0,-37.9995231628418],"type":"VEC3"},{"bufferView":18,"componentType":5126,"count":6649,"max":[1.0,1.0,1.0],"min":[-1.0,-1.0,-1.0],"type":"VEC3"},{"bufferView":19,"componentType":5126,"count":6649,"max":[7.300000190734863,7.849999904632568],"min":[-6.800000190734863,-5.420000076293945],"type":"VEC2"},{"bufferView":20,"componentType":5126,"count":43,"max":[4.166666507720947],"min":[0.0],"type":"SCALAR"},{"bufferView":21,"componentType":5126,"count":43,"max":[2.517992841752988e-16,0.7645393013954163,0.36748167872428894],"min":[2.517992841752988e-16,0.5945392847061157,0.36748167872428894],"type":"VEC3"},{"bufferView":22,"componentType":5126,"count":38,"max":[4.166666507720947],"min":[0.0],"type":"SCALAR"},{"bufferView":23,"componentType":5126,"count":38,"max":[0.0,0.7071067690849304,-0.0,0.7071068286895752],"min":[-0.037007108330726624,0.7061377167701721,-0.03700711205601692,0.7061377167701721],"type":"VEC4"},{"bufferView":24,"componentType":5126,"count":42,"max":[4.166666507720947],"min":[0.0],"type":"SCALAR"},{"bufferView":25,"componentType":5126,"count":42,"max":[2.5129034972289695e-16,0.7622473835945129,-0.3673056364059448],"min":[2.5129034972289695e-16,0.5922473669052124,-0.3673056364059448],"type":"VEC3"},{"bufferView":26,"componentType":5126,"count":34,"max":[4.166666507720947],"min":[0.0],"type":"SCALAR"},{"bufferView":27,"componentType":5126,"count":34,"max":[0.037007108330726624,0.7071067690849304,0.03700711205601692,0.7071068286895752],"min":[0.0,0.7061377167701721,-0.0,0.7061377167701721],"type":"VEC4"},{"bufferView":28,"componentType":5126,"count":42,"max":[4.166666507720947],"min":[0.0],"type":"SCALAR"},{"bufferView":29,"componentType":5126,"count":42,"max":[0.0,-0.3694637417793274,-0.0],"min":[0.0,-0.5394637584686279,-0.0],"type":"VEC3"},{"bufferView":30,"componentType":5126,"count":8,"max":[4.166666507720947],"min":[0.0],"type":"SCALAR"},{"bufferView":31,"componentType":5126,"count":8,"max":[0.0,0.7071067690849304,-0.0,0.7071068286895752],"min":[0.0,0.7071067690849304,-0.0,0.7071068286895752],"type":"VEC4"}],"animations":[{"channels":[{"sampler":0,"target":{"node":1,"path":"translation"}},{"sampler":1,"target":{"node":1,"path":"rotation"}}],"extensions":{"S8S_v3d_animation":{"auto":true,"loop":"REPEAT","offset":0.0,"repeatCount":1.0,"repeatInfinite":true}},"name":"Canister_Type_B_001_Hooks.001","samplers":[{"input":20,"interpolation":"LINEAR","output":21},{"input":22,"interpolation":"LINEAR","output":23}]},{"channels":[{"sampler":0,"target":{"node":4,"path":"translation"}},{"sampler":1,"target":{"node":4,"path":"rotation"}}],"extensions":{"S8S_v3d_animation":{"auto":true,"loop":"REPEAT","offset":0.0,"repeatCount":1.0,"repeatInfinite":true}},"name":"Canister_Type_B_001_Hooks","samplers":[{"input":24,"interpolation":"LINEAR","output":25},{"input":26,"interpolation":"LINEAR","output":27}]},{"channels":[{"sampler":0,"target":{"node":5,"path":"translation"}},{"sampler":1,"target":{"node":5,"path":"rotation"}}],"extensions":{"S8S_v3d_animation":{"auto":true,"loop":"REPEAT","offset":0.0,"repeatCount":1.0,"repeatInfinite":true}},"name":"Canister_Type_B_001_lid","samplers":[{"input":28,"interpolation":"LINEAR","output":29},{"input":30,"interpolation":"LINEAR","output":31}]}],"asset":{"generator":"Verge3D for Blender","version":"2.0"},"bufferViews":[{"buffer":0,"byteLength":34824,"byteOffset":0,"target":34963},{"buffer":0,"byteLength":206484,"byteOffset":34824,"target":34962},{"buffer":0,"byteLength":206484,"byteOffset":241308,"target":34962},{"buffer":0,"byteLength":137656,"byteOffset":447792,"target":34962},{"buffer":0,"byteLength":9408,"byteOffset":585448,"target":34963},{"buffer":0,"byteLength":54708,"byteOffset":594856,"target":34962},{"buffer":0,"byteLength":54708,"byteOffset":649564,"target":34962},{"buffer":0,"byteLength":36472,"byteOffset":704272,"target":34962},{"buffer":0,"byteLength":11052,"byteOffset":740744,"target":34963},{"buffer":0,"byteLength":65232,"byteOffset":751796,"target":34962},{"buffer":0,"byteLength":65232,"byteOffset":817028,"target":34962},{"buffer":0,"byteLength":43488,"byteOffset":882260,"target":34962},{"buffer":0,"byteLength":11052,"byteOffset":925748,"target":34963},{"buffer":0,"byteLength":65196,"byteOffset":936800,"target":34962},{"buffer":0,"byteLength":65196,"byteOffset":1001996,"target":34962},{"buffer":0,"byteLength":43464,"byteOffset":1067192,"target":34962},{"buffer":0,"byteLength":14088,"byteOffset":1110656,"target":34963},{"buffer":0,"byteLength":79788,"byteOffset":1124744,"target":34962},{"buffer":0,"byteLength":79788,"byteOffset":1204532,"target":34962},{"buffer":0,"byteLength":53192,"byteOffset":1284320,"target":34962},{"buffer":0,"byteLength":172,"byteOffset":1337512},{"buffer":0,"byteLength":516,"byteOffset":1337684},{"buffer":0,"byteLength":152,"byteOffset":1338200},{"buffer":0,"byteLength":608,"byteOffset":1338352},{"buffer":0,"byteLength":168,"byteOffset":1338960},{"buffer":0,"byteLength":504,"byteOffset":1339128},{"buffer":0,"byteLength":136,"byteOffset":1339632},{"buffer":0,"byteLength":544,"byteOffset":1339768},{"buffer":0,"byteLength":168,"byteOffset":1340312},{"buffer":0,"byteLength":504,"byteOffset":1340480},{"buffer":0,"byteLength":32,"byteOffset":1340984},{"buffer":0,"byteLength":128,"byteOffset":1341016}],"buffers":[{"byteLength":1341144,"uri":"my_canister_2hook1.bin"}],"cameras":[{"extensions":{"S8S_v3d_camera":{"controls":"ORBIT","enablePan":true,"moveSpeed":1.0,"orbitMaxDistance":20.0,"orbitMaxPolarAngle":3.1415927410125732,"orbitMaxZoom":100.0,"orbitMinDistance":3.0,"orbitMinPolarAngle":0.0,"orbitMinZoom":0.009999999776482582,"orbitTarget":[0.0,0.0,-0.0],"rotateSpeed":1.0,"viewportFitInitialAspect":1.7777777777777777,"viewportFitType":"AUTO"}},"name":"Camera","perspective":{"aspectRatio":1.7777777777777777,"yfov":0.5033799372418416,"zfar":100.0,"znear":0.10000000149011612},"type":"perspective"}],"extensions":{"S8S_v3d_lights":{"lights":[{"color":[1.0,1.0,1.0],"decay":2,"distance":1e-08,"intensity":0.0,"name":"Lamp","profile":"blender","shadow":{"bias":-0.0018,"cameraFar":1e-08,"cameraFov":0,"cameraNear":1.0007989406585693,"enabled":true,"expBias":2.5,"mapSize":512,"radius":1.0,"slopeScaledBias":2.5},"type":"point"}]}},"extensionsUsed":["S8S_v3d_texture","S8S_v3d_materials","S8S_v3d_camera","S8S_v3d_lights","S8S_v3d_mesh","S8S_v3d_node","S8S_v3d_animation","S8S_v3d_scene"],"images":[{"uri":"environment.hdr"}],"materials":[{"extensions":{"S8S_v3d_materials":{"gtaoVisible":true,"materialIndex":0,"nodeGraph":{"edges":[{"fromNode":0,"fromOutput":0,"toInput":0,"toNode":1}],"nodes":[{"inputs":[[0.800000011920929,0.800000011920929,0.800000011920929,1.0],0.0,[1.0,0.20000000298023224,0.10000000149011612],[0.800000011920929,0.800000011920929,0.800000011920929,1.0],1.399999976158142,0.0,0.0,0.0,0.0,1.0,0.0,0.0,0.0,0.5,0.0,0.029999999329447746,1.4500000476837158,0.0,0.0,[0.0,0.0,0.0,1.0],1.0,1.0,[0.0,0.0,0.0],[0.0,0.0,0.0],[0.0,0.0,0.0]],"is_active_output":false,"name":"Principled BSDF","outputs":[[0,0,0,0]],"type":"BSDF_PRINCIPLED_BL"},{"inputs":[[0,0,0,0],[0,0,0,0],[0.0,0.0,0.0],0.0],"is_active_output":true,"name":"Material Output","outputs":[],"type":"OUTPUT_MATERIAL_BL"}]},"useCastShadows":true}},"name":"Plastic_-_Glossy_(White).002"},{"extensions":{"S8S_v3d_materials":{"gtaoVisible":true,"materialIndex":0,"nodeGraph":{"edges":[{"fromNode":0,"fromOutput":0,"toInput":0,"toNode":1}],"nodes":[{"inputs":[[0.800000011920929,0.800000011920929,0.800000011920929,1.0],0.0,[1.0,0.20000000298023224,0.10000000149011612],[0.800000011920929,0.800000011920929,0.800000011920929,1.0],1.399999976158142,0.0,0.0,0.0,0.0,1.0,0.0,0.0,0.0,0.5,0.0,0.029999999329447746,1.4500000476837158,0.0,0.0,[0.0,0.0,0.0,1.0],1.0,1.0,[0.0,0.0,0.0],[0.0,0.0,0.0],[0.0,0.0,0.0]],"is_active_output":false,"name":"Principled BSDF","outputs":[[0,0,0,0]],"type":"BSDF_PRINCIPLED_BL"},{"inputs":[[0,0,0,0],[0,0,0,0],[0.0,0.0,0.0],0.0],"is_active_output":true,"name":"Material Output","outputs":[],"type":"OUTPUT_MATERIAL_BL"}]},"useCastShadows":true}},"name":"Plastic_-_Glossy_(White).003"},{"extensions":{"S8S_v3d_materials":{"gtaoVisible":true,"materialIndex":0,"nodeGraph":{"edges":[{"fromNode":0,"fromOutput":0,"toInput":0,"toNode":1}],"nodes":[{"inputs":[[0.42922598123550415,0.42922598123550415,0.42922598123550415,1.0],0.0,[1.0,0.20000000298023224,0.10000000149011612],[0.800000011920929,0.800000011920929,0.800000011920929,1.0],1.399999976158142,0.0,0.0,0.0,0.0,1.0,0.0,0.0,0.0,0.5,0.0,0.029999999329447746,1.4500000476837158,0.0,0.0,[0.0,0.0,0.0,1.0],1.0,1.0,[0.0,0.0,0.0],[0.0,0.0,0.0],[0.0,0.0,0.0]],"is_active_output":false,"name":"Principled BSDF","outputs":[[0,0,0,0]],"type":"BSDF_PRINCIPLED_BL"},{"inputs":[[0,0,0,0],[0,0,0,0],[0.0,0.0,0.0],0.0],"is_active_output":true,"name":"Material Output","outputs":[],"type":"OUTPUT_MATERIAL_BL"}]},"useCastShadows":true}},"name":"Steel_-_Satin"},{"extensions":{"S8S_v3d_materials":{"gtaoVisible":true,"materialIndex":0,"nodeGraph":{"edges":[{"fromNode":0,"fromOutput":0,"toInput":0,"toNode":1}],"nodes":[{"inputs":[[0.800000011920929,0.800000011920929,0.800000011920929,1.0],0.0,[1.0,0.20000000298023224,0.10000000149011612],[0.800000011920929,0.800000011920929,0.800000011920929,1.0],1.399999976158142,0.0,0.0,0.5,0.0,0.5,0.0,0.0,0.0,0.5,0.0,0.029999999329447746,1.4500000476837158,0.0,0.0,[0.0,0.0,0.0,1.0],1.0,1.0,[0.0,0.0,0.0],[0.0,0.0,0.0],[0.0,0.0,0.0]],"is_active_output":false,"name":"Principled BSDF","outputs":[[0,0,0,0]],"type":"BSDF_PRINCIPLED_BL"},{"inputs":[[0,0,0,0],[0,0,0,0],[0.0,0.0,0.0],0.0],"is_active_output":true,"name":"Material Output","outputs":[],"type":"OUTPUT_MATERIAL_BL"}]},"useCastShadows":true}},"name":"WHITE"},{"extensions":{"S8S_v3d_materials":{"gtaoVisible":true,"materialIndex":0,"nodeGraph":{"edges":[{"fromNode":0,"fromOutput":0,"toInput":0,"toNode":1},{"fromNode":4,"fromOutput":0,"toInput":6,"toNode":2},{"fromNode":3,"fromOutput":0,"toInput":0,"toNode":2},{"fromNode":2,"fromOutput":2,"toInput":0,"toNode":0}],"nodes":[{"inputs":[[0.05087608844041824,0.05087608844041824,0.05087608844041824,1.0],1.0],"is_active_output":false,"name":"Background","outputs":[[0,0,0,0]],"type":"BACKGROUND_BL"},{"inputs":[[0,0,0,0],[0,0,0,0]],"is_active_output":true,"name":"World Output","outputs":[],"type":"OUTPUT_WORLD_BL"},{"blendType":"MIX","clampFactor":true,"clampResult":false,"dataType":"RGBA","factorMode":"UNIFORM","inputs":[0.5,[0.5,0.5,0.5],0.0,0.0,[0.0,0.0,0.0],[0.0,0.0,0.0],[0.5,0.5,0.5,1.0],[0.0,0.0,0.0,1.0]],"is_active_output":false,"name":"Mix","outputs":[0.0,[0.0,0.0,0.0],[0.0,0.0,0.0,0.0]],"type":"MIX_BL"},{"inputs":[],"is_active_output":false,"name":"Light Path","outputs":[0.0,0.0,0.0,0.0,0.0,0.0,0.0,0.0,0.0,0.0,0.0,0.0,0.0],"type":"LIGHT_PATH_BL"},{"inputs":[[0.0,0.0,0.0]],"is_active_output":false,"name":"Environment Texture","outputs":[[0.0,0.0,0.0,0.0]],"projection":"EQUIRECTANGULAR","texture":0,"type":"TEX_ENVIRONMENT_BL"}]},"useCastShadows":true}},"name":"Verge3D_Environment_World"}],"meshes":[{"extensions":{"S8S_v3d_mesh":{"colorLayers":{},"uvLayers":{"UVMap":"TEXCOORD_0"}}},"name":"Canister_Type_B_001_2Hooks_container","primitives":[{"attributes":{"NORMAL":2,"POSITION":1,"TEXCOORD_0":3},"indices":0,"material":3,"mode":4}]},{"extensions":{"S8S_v3d_mesh":{"colorLayers":{},"uvLayers":{"UVMap":"TEXCOORD_0"}}},"name":"Canister_Type_B_001_2Hooks_Seal","primitives":[{"attributes":{"NORMAL":6,"POSITION":5,"TEXCOORD_0":7},"indices":4,"material":2,"mode":4}]},{"extensions":{"S8S_v3d_mesh":{"colorLayers":{},"uvLayers":{"UVMap":"TEXCOORD_0"}}},"name":"Canister_Type_B_001_Hooks","primitives":[{"attributes":{"NORMAL":10,"POSITION":9,"TEXCOORD_0":11},"indices":8,"material":1,"mode":4}]},{"extensions":{"S8S_v3d_mesh":{"colorLayers":{},"uvLayers":{"UVMap":"TEXCOORD_0"}}},"name":"Canister_Type_B_001_Hooks.001","primitives":[{"attributes":{"NORMAL":14,"POSITION":13,"TEXCOORD_0":15},"indices":12,"material":1,"mode":4}]},{"extensions":{"S8S_v3d_mesh":{"colorLayers":{},"uvLayers":{"UVMap":"TEXCOORD_0"}}},"name":"Canister_Type_B_001_lid.001","primitives":[{"attributes":{"NORMAL":18,"POSITION":17,"TEXCOORD_0":19},"indices":16,"material":0,"mode":4}]}],"nodes":[{"extensions":{"S8S_v3d_node":{"frustumCulling":true,"groupNames":[],"hidden":false,"hidpiCompositing":false,"objectColor":[1.0,1.0,1.0,1.0],"objectIndex":0,"renderOrder":0,"useShadows":true}},"mesh":1,"name":"Canister_Type_B_001_2Hooks_Seal","rotation":[0.0,0.7071067094802856,-0.0,0.7071068286895752],"scale":[0.009999999776482582,0.009999999776482582,0.009999999776482582],"translation":[0.0,-0.5400207042694092,-0.0]},{"extensions":{"S8S_v3d_node":{"frustumCulling":true,"groupNames":[],"hidden":false,"hidpiCompositing":false,"objectColor":[1.0,1.0,1.0,1.0],"objectIndex":0,"renderOrder":0,"useShadows":true}},"mesh":3,"name":"Canister_Type_B_001_Hooks.001","rotation":[0.0,0.7071067094802856,-0.0,0.7071068286895752],"scale":[0.009999999776482582,0.009999999776482582,0.009999999776482582],"translation":[2.517992841752988e-16,0.5945392847061157,0.36748167872428894]},{"camera":0,"extensions":{"S8S_v3d_node":{"frustumCulling":true,"groupNames":["Collection 1"],"hidden":false,"hidpiCompositing":false,"objectColor":[0.0,0.0,0.0,0.0],"objectIndex":0,"renderOrder":0}},"name":"Camera","rotation":[-0.20997299253940582,0.3857799470424652,0.09062844514846802,0.8937962055206299],"scale":[1.0,0.9999998807907104,0.9999998807907104],"translation":[7.226052284240723,5.80806303024292,6.946681022644043]},{"extensions":{"S8S_v3d_node":{"frustumCulling":true,"groupNames":[],"hidden":false,"hidpiCompositing":false,"objectColor":[1.0,1.0,1.0,1.0],"objectIndex":0,"renderOrder":0,"useShadows":true}},"mesh":0,"name":"Canister_Type_B_001_2Hooks_container","rotation":[0.0,0.7071067094802856,-0.0,0.7071068286895752],"scale":[0.009999999776482582,0.009999999776482582,0.009999999776482582],"translation":[0.0,-0.5400207042694092,-0.0]},{"extensions":{"S8S_v3d_node":{"frustumCulling":true,"groupNames":[],"hidden":false,"hidpiCompositing":false,"objectColor":[1.0,1.0,1.0,1.0],"objectIndex":0,"renderOrder":0,"useShadows":true}},"mesh":2,"name":"Canister_Type_B_001_Hooks","rotation":[0.0,0.7071067094802856,-0.0,0.7071068286895752],"scale":[0.009999999776482582,0.009999999776482582,0.009999999776482582],"translation":[2.5129034972289695e-16,0.5922473669052124,-0.3673056364059448]},{"extensions":{"S8S_v3d_node":{"frustumCulling":true,"groupNames":[],"hidden":false,"hidpiCompositing":false,"objectColor":[1.0,1.0,1.0,1.0],"objectIndex":0,"renderOrder":0,"useShadows":true}},"mesh":4,"name":"Canister_Type_B_001_lid","rotation":[0.0,0.7071067094802856,-0.0,0.7071068286895752],"scale":[0.009999999776482582,0.009999999776482582,0.009999999776482582],"translation":[0.0,-0.5394637584686279,-0.0]},{"extensions":{"S8S_v3d_lights":{"light":0},"S8S_v3d_node":{"frustumCulling":true,"groupNames":["Collection 1"],"hidden":false,"hidpiCompositing":false,"objectColor":[0.0,0.0,0.0,0.0],"objectIndex":0,"renderOrder":0}},"name":"Lamp","rotation":[-0.28416627645492554,0.7269423007965088,0.34203392267227173,0.5232754945755005],"scale":[1.0,0.9999998807907104,0.9999998807907104],"translation":[-10.631515502929688,-5.114333152770996,-9.369147300720215]}],"samplers":[{}],"scene":0,"scenes":[{"extensions":{"S8S_v3d_scene":{"aaMethod":"AUTO","iblEnvironmentMode":"PMREM","physicallyCorrectLights":true,"pmremMaxTileSize":256,"shadowMap":{"esmDistanceScale":1.0,"renderReverseSided":false,"renderSingleSided":true,"type":"PCFPOISSON"},"worldMaterial":4}},"extras":{"animFrameRate":24,"coordSystem":"Z_UP_RIGHT"},"name":"Scene","nodes":[3,0,5,4,1,6,2]}],"textures":[{"extensions":{"S8S_v3d_texture":{"colorSpace":"linear","source":0}},"name":"environment.hdr","sampler":0}]}
