{"accessors":[{"bufferView":0,"componentType":5121,"count":84,"max":[47],"min":[0],"type":"SCALAR"},{"bufferView":1,"componentType":5126,"count":48,"max":[1.0,1.0,1.0],"min":[-1.0,-1.0,-1.0],"type":"VEC3"},{"bufferView":2,"componentType":5126,"count":48,"max":[1.0,1.0,1.0],"min":[-1.0,-1.0,-1.0],"type":"VEC3"},{"bufferView":3,"componentType":5126,"count":48,"max":[0.875,1.0],"min":[0.125,0.0],"type":"VEC2"},{"bufferView":4,"componentType":5121,"count":36,"max":[23],"min":[0],"type":"SCALAR"},{"bufferView":5,"componentType":5126,"count":24,"max":[0.8620198369026184,0.0042845457792282104,0.9000000357627869],"min":[-0.9379802346229553,-0.1427742838859558,-0.9000000357627869],"type":"VEC3"},{"bufferView":6,"componentType":5126,"count":24,"max":[0.8944270014762878,1.0,1.0],"min":[-1.0,-1.0,-1.0],"type":"VEC3"},{"bufferView":7,"componentType":5126,"count":24,"max":[0.375,0.5],"min":[0.125,0.25],"type":"VEC2"},{"bufferView":8,"componentType":5121,"count":84,"max":[47],"min":[0],"type":"SCALAR"},{"bufferView":9,"componentType":5126,"count":48,"max":[1.0,0.1738055944442749,1.0],"min":[-1.0,0.0042618513107299805,-1.0],"type":"VEC3"},{"bufferView":10,"componentType":5126,"count":48,"max":[1.0,1.0,1.0],"min":[-1.0,-1.0,-1.0],"type":"VEC3"},{"bufferView":11,"componentType":5126,"count":48,"max":[0.375,0.5],"min":[0.125,0.25],"type":"VEC2"},{"bufferView":12,"componentType":5121,"count":96,"max":[47],"min":[0],"type":"SCALAR"},{"bufferView":13,"componentType":5126,"count":48,"max":[1.0000003576278687,0.09383110702037811,0.08735203742980957],"min":[-1.0000003576278687,-0.07571270316839218,-1.9126479625701904],"type":"VEC3"},{"bufferView":14,"componentType":5126,"count":48,"max":[1.0,1.0,1.0],"min":[-1.0,-1.0,-1.0],"type":"VEC3"},{"bufferView":15,"componentType":5126,"count":48,"max":[0.375,0.5],"min":[0.125,0.25],"type":"VEC2"},{"bufferView":16,"componentType":5126,"count":56,"max":[3.75],"min":[0.0],"type":"SCALAR"},{"bufferView":17,"componentType":5126,"count":56,"max":[-0.027345756068825722,2.0199782848358154,0.8220531940460205],"min":[-0.027345756068825722,1.1221256256103516,0.8122677206993103],"type":"VEC3"},{"bufferView":18,"componentType":5126,"count":94,"max":[3.75],"min":[0.0],"type":"SCALAR"},{"bufferView":19,"componentType":5126,"count":94,"max":[0.26339271664619446,7.555799414484989e-18,-0.0,1.0],"min":[0.0,-3.2300993465792517e-18,-5.848493170783497e-17,0.9646887183189392],"type":"VEC4"},{"bufferView":20,"componentType":5126,"count":26,"max":[2.9166667461395264],"min":[1.25],"type":"SCALAR"},{"bufferView":21,"componentType":5126,"count":26,"max":[4.076245307922363,6.801714897155762,-1.0054539442062378],"min":[4.076245307922363,5.903861999511719,-1.0054539442062378],"type":"VEC3"},{"bufferView":22,"componentType":5126,"count":4,"max":[2.9166667461395264],"min":[1.25],"type":"SCALAR"},{"bufferView":23,"componentType":5126,"count":4,"max":[-0.28416621685028076,0.7269423604011536,0.34203392267227173,0.5232754945755005],"min":[-0.28416621685028076,0.7269423604011536,0.34203392267227173,0.5232754945755005],"type":"VEC4"},{"bufferView":24,"componentType":5126,"count":56,"max":[3.75],"min":[0.0],"type":"SCALAR"},{"bufferView":25,"componentType":5126,"count":56,"max":[0.0,1.9657789468765259,-0.0],"min":[0.0,1.0013316869735718,-0.00978553295135498],"type":"VEC3"},{"bufferView":26,"componentType":5126,"count":27,"max":[3.75],"min":[0.0],"type":"SCALAR"},{"bufferView":27,"componentType":5126,"count":27,"max":[0.08074555546045303,1.4192739100790707e-18,-0.0,1.0],"min":[0.0,0.0,-1.7929114961668498e-17,0.9967347383499146],"type":"VEC4"}],"animations":[{"channels":[{"sampler":0,"target":{"node":1,"path":"translation"}},{"sampler":1,"target":{"node":1,"path":"rotation"}}],"extensions":{"S8S_v3d_animation":{"auto":true,"loop":"REPEAT","offset":0.0,"repeatCount":1.0,"repeatInfinite":true}},"name":"Cube.002","samplers":[{"input":16,"interpolation":"LINEAR","output":17},{"input":18,"interpolation":"LINEAR","output":19}]},{"channels":[{"sampler":0,"target":{"node":3,"path":"translation"}},{"sampler":1,"target":{"node":3,"path":"rotation"}}],"extensions":{"S8S_v3d_animation":{"auto":true,"loop":"REPEAT","offset":0.0,"repeatCount":1.0,"repeatInfinite":true}},"name":"Lamp","samplers":[{"input":20,"interpolation":"LINEAR","output":21},{"input":22,"interpolation":"LINEAR","output":23}]},{"channels":[{"sampler":0,"target":{"node":4,"path":"translation"}},{"sampler":1,"target":{"node":4,"path":"rotation"}}],"extensions":{"S8S_v3d_animation":{"auto":true,"loop":"REPEAT","offset":0.0,"repeatCount":1.0,"repeatInfinite":true}},"name":"Cube.001","samplers":[{"input":24,"interpolation":"LINEAR","output":25},{"input":26,"interpolation":"LINEAR","output":27}]}],"asset":{"generator":"Verge3D for Blender","version":"2.0"},"bufferViews":[{"buffer":0,"byteLength":84,"byteOffset":0,"target":34963},{"buffer":0,"byteLength":576,"byteOffset":84,"target":34962},{"buffer":0,"byteLength":576,"byteOffset":660,"target":34962},{"buffer":0,"byteLength":384,"byteOffset":1236,"target":34962},{"buffer":0,"byteLength":36,"byteOffset":1620,"target":34963},{"buffer":0,"byteLength":288,"byteOffset":1656,"target":34962},{"buffer":0,"byteLength":288,"byteOffset":1944,"target":34962},{"buffer":0,"byteLength":192,"byteOffset":2232,"target":34962},{"buffer":0,"byteLength":84,"byteOffset":2424,"target":34963},{"buffer":0,"byteLength":576,"byteOffset":2508,"target":34962},{"buffer":0,"byteLength":576,"byteOffset":3084,"target":34962},{"buffer":0,"byteLength":384,"byteOffset":3660,"target":34962},{"buffer":0,"byteLength":96,"byteOffset":4044,"target":34963},{"buffer":0,"byteLength":576,"byteOffset":4140,"target":34962},{"buffer":0,"byteLength":576,"byteOffset":4716,"target":34962},{"buffer":0,"byteLength":384,"byteOffset":5292,"target":34962},{"buffer":0,"byteLength":224,"byteOffset":5676},{"buffer":0,"byteLength":672,"byteOffset":5900},{"buffer":0,"byteLength":376,"byteOffset":6572},{"buffer":0,"byteLength":1504,"byteOffset":6948},{"buffer":0,"byteLength":104,"byteOffset":8452},{"buffer":0,"byteLength":312,"byteOffset":8556},{"buffer":0,"byteLength":16,"byteOffset":8868},{"buffer":0,"byteLength":64,"byteOffset":8884},{"buffer":0,"byteLength":224,"byteOffset":8948},{"buffer":0,"byteLength":672,"byteOffset":9172},{"buffer":0,"byteLength":108,"byteOffset":9844},{"buffer":0,"byteLength":432,"byteOffset":9952}],"buffers":[{"byteLength":10384,"uri":"my_canister_01.bin"}],"cameras":[{"extensions":{"S8S_v3d_camera":{"controls":"ORBIT","enablePan":true,"moveSpeed":1.0,"orbitMaxDistance":100.0,"orbitMaxPolarAngle":3.1415927410125732,"orbitMaxZoom":100.0,"orbitMinDistance":0.0,"orbitMinPolarAngle":0.0,"orbitMinZoom":0.009999999776482582,"orbitTarget":[0.0,0.0,-0.0],"rotateSpeed":1.0,"viewportFitInitialAspect":1.7777777777777777,"viewportFitType":"AUTO"}},"name":"Camera","perspective":{"aspectRatio":1.7777777777777777,"yfov":0.5033799372418416,"zfar":100.0,"znear":0.10000000149011612},"type":"perspective"}],"extensions":{"S8S_v3d_lights":{"lights":[{"color":[1.0,1.0,1.0],"decay":2,"distance":10.00000011175871,"intensity":100.0,"name":"Lamp","profile":"blender","shadow":{"bias":-0.0018,"cameraFar":10.00000011175871,"cameraFov":0,"cameraNear":1.0007989406585693,"enabled":true,"expBias":2.5,"mapSize":512,"radius":1.0,"slopeScaledBias":2.5},"type":"point"}]}},"extensionsUsed":["S8S_v3d_texture","S8S_v3d_materials","S8S_v3d_camera","S8S_v3d_lights","S8S_v3d_mesh","S8S_v3d_node","S8S_v3d_animation","S8S_v3d_scene"],"images":[{"uri":"environment.hdr"}],"materials":[{"extensions":{"S8S_v3d_materials":{"gtaoVisible":true,"materialIndex":0,"nodeGraph":{"edges":[{"fromNode":0,"fromOutput":0,"toInput":0,"toNode":1}],"nodes":[{"inputs":[[0.06680696457624435,0.06680696457624435,0.06680696457624435,1.0],0.0,[1.0,0.20000000298023224,0.10000000149011612],[0.800000011920929,0.800000011920929,0.800000011920929,1.0],1.399999976158142,0.0,0.0,0.5,0.0,0.5,0.0,0.0,0.0,0.5,0.0,0.029999999329447746,1.4500000476837158,0.0,0.0,[0.0,0.0,0.0,1.0],1.0,1.0,[0.0,0.0,0.0],[0.0,0.0,0.0],[0.0,0.0,0.0]],"is_active_output":false,"name":"Principled BSDF","outputs":[[0,0,0,0]],"type":"BSDF_PRINCIPLED_BL"},{"inputs":[[0,0,0,0],[0,0,0,0],[0.0,0.0,0.0],0.0],"is_active_output":true,"name":"Material Output","outputs":[],"type":"OUTPUT_MATERIAL_BL"}]},"useCastShadows":true}},"name":"Material"},{"extensions":{"S8S_v3d_materials":{"gtaoVisible":true,"materialIndex":0,"nodeGraph":{"edges":[{"fromNode":0,"fromOutput":0,"toInput":0,"toNode":1}],"nodes":[{"inputs":[[0.4292266070842743,0.4292266070842743,0.4292266070842743,1.0],0.0,[1.0,0.20000000298023224,0.10000000149011612],[0.800000011920929,0.800000011920929,0.800000011920929,1.0],1.399999976158142,0.0,0.0,0.5,0.0,0.5,0.0,0.0,0.0,0.5,0.0,0.029999999329447746,1.4500000476837158,0.0,0.0,[0.0,0.0,0.0,1.0],1.0,1.0,[0.0,0.0,0.0],[0.0,0.0,0.0],[0.0,0.0,0.0]],"is_active_output":false,"name":"Principled BSDF","outputs":[[0,0,0,0]],"type":"BSDF_PRINCIPLED_BL"},{"inputs":[[0,0,0,0],[0,0,0,0],[0.0,0.0,0.0],0.0],"is_active_output":true,"name":"Material Output","outputs":[],"type":"OUTPUT_MATERIAL_BL"}]},"useCastShadows":true}},"name":"Material.001"},{"extensions":{"S8S_v3d_materials":{"gtaoVisible":true,"materialIndex":0,"nodeGraph":{"edges":[{"fromNode":0,"fromOutput":0,"toInput":0,"toNode":1},{"fromNode":4,"fromOutput":0,"toInput":6,"toNode":2},{"fromNode":3,"fromOutput":0,"toInput":0,"toNode":2},{"fromNode":2,"fromOutput":2,"toInput":0,"toNode":0}],"nodes":[{"inputs":[[0.05087608844041824,0.05087608844041824,0.05087608844041824,1.0],1.0],"is_active_output":false,"name":"Background","outputs":[[0,0,0,0]],"type":"BACKGROUND_BL"},{"inputs":[[0,0,0,0],[0,0,0,0]],"is_active_output":true,"name":"World Output","outputs":[],"type":"OUTPUT_WORLD_BL"},{"blendType":"MIX","clampFactor":true,"clampResult":false,"dataType":"RGBA","factorMode":"UNIFORM","inputs":[0.5,[0.5,0.5,0.5],0.0,0.0,[0.0,0.0,0.0],[0.0,0.0,0.0],[0.5,0.5,0.5,1.0],[0.05126946419477463,0.05126946419477463,0.05126946419477463,1.0]],"is_active_output":false,"name":"Mix","outputs":[0.0,[0.0,0.0,0.0],[0.0,0.0,0.0,0.0]],"type":"MIX_BL"},{"inputs":[],"is_active_output":false,"name":"Light Path","outputs":[0.0,0.0,0.0,0.0,0.0,0.0,0.0,0.0,0.0,0.0,0.0,0.0,0.0],"type":"LIGHT_PATH_BL"},{"inputs":[[0.0,0.0,0.0]],"is_active_output":false,"name":"Environment Texture","outputs":[[0.0,0.0,0.0,0.0]],"projection":"EQUIRECTANGULAR","texture":0,"type":"TEX_ENVIRONMENT_BL"}]},"useCastShadows":true}},"name":"Verge3D_Environment_World"}],"meshes":[{"extensions":{"S8S_v3d_mesh":{"colorLayers":{},"uvLayers":{"UVMap":"TEXCOORD_0"}}},"name":"Cube.001","primitives":[{"attributes":{"NORMAL":2,"POSITION":1,"TEXCOORD_0":3},"indices":0,"material":1,"mode":4}]},{"extensions":{"S8S_v3d_mesh":{"colorLayers":{},"uvLayers":{"UVMap":"TEXCOORD_0"}}},"name":"Cube.003","primitives":[{"attributes":{"NORMAL":6,"POSITION":5,"TEXCOORD_0":7},"indices":4,"material":0,"mode":4},{"attributes":{"NORMAL":10,"POSITION":9,"TEXCOORD_0":11},"indices":8,"material":1,"mode":4}]},{"extensions":{"S8S_v3d_mesh":{"colorLayers":{},"uvLayers":{"UVMap":"TEXCOORD_0"}}},"name":"Cube.004","primitives":[{"attributes":{"NORMAL":14,"POSITION":13,"TEXCOORD_0":15},"indices":12,"material":0,"mode":4}]}],"nodes":[{"camera":0,"extensions":{"S8S_v3d_node":{"frustumCulling":true,"groupNames":["Collection 1"],"hidden":false,"hidpiCompositing":false,"objectColor":[0.0,0.0,0.0,0.0],"objectIndex":0,"renderOrder":0}},"name":"Camera","rotation":[-0.20997299253940582,0.3857799470424652,0.09062844514846802,0.8937962055206299],"scale":[1.0,0.9999998807907104,0.9999998807907104],"translation":[7.226052284240723,5.1113457679748535,6.946681022644043]},{"extensions":{"S8S_v3d_node":{"frustumCulling":true,"groupNames":[],"hidden":false,"hidpiCompositing":false,"objectColor":[1.0,1.0,1.0,1.0],"objectIndex":0,"renderOrder":0,"useShadows":true}},"mesh":2,"name":"Cube.002","scale":[0.9034544229507446,0.5,0.9000000357627869],"translation":[-0.027345756068825722,1.1887202262878418,0.8122677206993103]},{"extensions":{"S8S_v3d_node":{"frustumCulling":true,"groupNames":[],"hidden":false,"hidpiCompositing":false,"objectColor":[1.0,1.0,1.0,1.0],"objectIndex":0,"renderOrder":0,"useShadows":true}},"mesh":0,"name":"Cube"},{"extensions":{"S8S_v3d_lights":{"light":0},"S8S_v3d_node":{"frustumCulling":true,"groupNames":["Collection 1"],"hidden":false,"hidpiCompositing":false,"objectColor":[0.0,0.0,0.0,0.0],"objectIndex":0,"renderOrder":0}},"name":"Lamp","rotation":[-0.28416627645492554,0.7269423007965088,0.34203392267227173,0.5232754945755005],"scale":[1.0,0.9999998807907104,0.9999998807907104],"translation":[4.076245307922363,5.903861999511719,-1.0054539442062378]},{"extensions":{"S8S_v3d_node":{"frustumCulling":true,"groupNames":[],"hidden":false,"hidpiCompositing":false,"objectColor":[1.0,1.0,1.0,1.0],"objectIndex":0,"renderOrder":0,"useShadows":true}},"mesh":1,"name":"Cube.001","scale":[1.0,1.3600000143051147,1.0],"translation":[0.0,1.0013316869735718,-0.0]}],"samplers":[{}],"scene":0,"scenes":[{"extensions":{"S8S_v3d_scene":{"aaMethod":"AUTO","iblEnvironmentMode":"PMREM","physicallyCorrectLights":true,"pmremMaxTileSize":256,"shadowMap":{"esmDistanceScale":1.0,"renderReverseSided":false,"renderSingleSided":true,"type":"PCFPOISSON"},"worldMaterial":2}},"extras":{"animFrameRate":24,"coordSystem":"Z_UP_RIGHT"},"name":"Scene","nodes":[2,4,1,3,0]}],"textures":[{"extensions":{"S8S_v3d_texture":{"colorSpace":"linear","source":0}},"name":"environment.hdr","sampler":0}]}
